<svg version="1.1" xmlns="http://www.w3.org/2000/svg" xmlns:xlink="http://www.w3.org/1999/xlink" width="161.77147" height="237.44838" viewBox="0,0,161.77147,237.44838"><g transform="translate(-159.11427,-61.65081)"><g data-paper-data="{&quot;isPaintingLayer&quot;:true}" fill-rule="nonzero" stroke-linecap="butt" stroke-linejoin="miter" stroke-miterlimit="10" stroke-dasharray="" stroke-dashoffset="0" style="mix-blend-mode: normal"><g><path d="M160.61427,297.59919v-200.41644h158.77147v200.41644z" fill="#909090" stroke="#000000" stroke-width="3"/><path d="M164.99329,105.33898v-42.93817h18.08545v42.93817z" fill="#909090" stroke="#000000" stroke-width="1.5"/><path d="M192.46353,105.33898v-42.93817h18.08545v42.93817z" fill="#909090" stroke="#000000" stroke-width="1.5"/><path d="M219.10885,105.33898v-42.93817h18.08545v42.93817z" fill="#909090" stroke="#000000" stroke-width="1.5"/><path d="M246.5791,105.33898v-42.93817h18.08545v42.93817z" fill="#909090" stroke="#000000" stroke-width="1.5"/><path d="M271.01009,105.33898v-42.93817h18.08545v42.93817z" fill="#909090" stroke="#000000" stroke-width="1.5"/><path d="M297.12548,105.33898v-42.93817h18.08545v42.93817z" fill="#909090" stroke="#000000" stroke-width="1.5"/><path d="M160.61427,297.59919v-200.41645h158.77147v200.41645z" fill="#909090" stroke="#000000" stroke-width="0"/><g fill="#ffffff" stroke="#434343"><g><path d="M284.27289,116.23301v-14.57103h14.57103v14.57103z" stroke-width="2.5"/><path d="M301.20887,116.23642v-14.57103h14.57103v14.57103z" stroke-width="2.5"/><path d="M284.27631,132.9747v-14.57103h14.57103v14.57103z" stroke-width="2.5"/><path d="M301.21228,132.97812v-14.57103h14.57103v14.57103z" stroke-width="2.5"/><path d="M284.27289,116.23301v-14.57103h14.57103v14.57103z" stroke-width="0"/><path d="M301.20887,116.23642v-14.57103h14.57103v14.57103z" stroke-width="0"/><path d="M284.27631,132.9747v-14.57103h14.57103v14.57103z" stroke-width="0"/><path d="M301.21228,132.97812v-14.57103h14.57103v14.57103z" stroke-width="0"/></g><g><path d="M244.74085,116.23301v-14.57103h14.57103v14.57103z" stroke-width="2.5"/><path d="M261.67682,116.23642v-14.57103h14.57103v14.57103z" stroke-width="2.5"/><path d="M244.74426,132.9747v-14.57103h14.57103v14.57103z" stroke-width="2.5"/><path d="M261.68024,132.97812v-14.57103h14.57103v14.57103z" stroke-width="2.5"/><path d="M244.74085,116.23301v-14.57103h14.57103v14.57103z" stroke-width="0"/><path d="M261.67682,116.23642v-14.57103h14.57103v14.57103z" stroke-width="0"/><path d="M244.74426,132.9747v-14.57103h14.57103v14.57103z" stroke-width="0"/><path d="M261.68024,132.97812v-14.57103h14.57103v14.57103z" stroke-width="0"/></g><g><path d="M204.45484,116.23301v-14.57103h14.57103v14.57103z" stroke-width="2.5"/><path d="M221.39081,116.23642v-14.57103h14.57103v14.57103z" stroke-width="2.5"/><path d="M204.45825,132.9747v-14.57103h14.57103v14.57103z" stroke-width="2.5"/><path d="M221.39423,132.97812v-14.57103h14.57103v14.57103z" stroke-width="2.5"/><path d="M204.45484,116.23301v-14.57103h14.57103v14.57103z" stroke-width="0"/><path d="M221.39081,116.23642v-14.57103h14.57103v14.57103z" stroke-width="0"/><path d="M204.45825,132.9747v-14.57103h14.57103v14.57103z" stroke-width="0"/><path d="M221.39423,132.97812v-14.57103h14.57103v14.57103z" stroke-width="0"/></g><g><path d="M164.21669,116.23301v-14.57103h14.57103v14.57103z" stroke-width="2.5"/><path d="M181.15266,116.23642v-14.57103h14.57103v14.57103z" stroke-width="2.5"/><path d="M164.2201,132.9747v-14.57103h14.57103v14.57103z" stroke-width="2.5"/><path d="M181.15608,132.97812v-14.57103h14.57103v14.57103z" stroke-width="2.5"/><path d="M164.21669,116.23301v-14.57103h14.57103v14.57103z" stroke-width="0"/><path d="M181.15266,116.23642v-14.57103h14.57103v14.57103z" stroke-width="0"/><path d="M164.2201,132.9747v-14.57103h14.57103v14.57103z" stroke-width="0"/><path d="M181.15608,132.97812v-14.57103h14.57103v14.57103z" stroke-width="0"/></g></g><g fill="#ffffff" stroke="#434343"><g><path d="M284.2729,152.98947v-14.57103h14.57103v14.57103z" stroke-width="2.5"/><path d="M301.20887,152.99288v-14.57103h14.57103v14.57103z" stroke-width="2.5"/><path d="M284.27631,169.73116v-14.57103h14.57103v14.57103z" stroke-width="2.5"/><path d="M301.21229,169.73458v-14.57103h14.57103v14.57103z" stroke-width="2.5"/><path d="M284.2729,152.98947v-14.57103h14.57103v14.57103z" stroke-width="0"/><path d="M301.20887,152.99288v-14.57103h14.57103v14.57103z" stroke-width="0"/><path d="M284.27631,169.73116v-14.57103h14.57103v14.57103z" stroke-width="0"/><path d="M301.21229,169.73458v-14.57103h14.57103v14.57103z" stroke-width="0"/></g><g><path d="M244.74085,152.98947v-14.57103h14.57103v14.57103z" stroke-width="2.5"/><path d="M261.67683,152.99288v-14.57103h14.57103v14.57103z" stroke-width="2.5"/><path d="M244.74426,169.73116v-14.57103h14.57103v14.57103z" stroke-width="2.5"/><path d="M261.68024,169.73458v-14.57103h14.57103v14.57103z" stroke-width="2.5"/><path d="M244.74085,152.98947v-14.57103h14.57103v14.57103z" stroke-width="0"/><path d="M261.67683,152.99288v-14.57103h14.57103v14.57103z" stroke-width="0"/><path d="M244.74426,169.73116v-14.57103h14.57103v14.57103z" stroke-width="0"/><path d="M261.68024,169.73458v-14.57103h14.57103v14.57103z" stroke-width="0"/></g><g><path d="M204.45484,152.98947v-14.57103h14.57103v14.57103z" stroke-width="2.5"/><path d="M221.39081,152.99288v-14.57103h14.57103v14.57103z" stroke-width="2.5"/><path d="M204.45825,169.73116v-14.57103h14.57103v14.57103z" stroke-width="2.5"/><path d="M221.39423,169.73458v-14.57103h14.57103v14.57103z" stroke-width="2.5"/><path d="M204.45484,152.98947v-14.57103h14.57103v14.57103z" stroke-width="0"/><path d="M221.39081,152.99288v-14.57103h14.57103v14.57103z" stroke-width="0"/><path d="M204.45825,169.73116v-14.57103h14.57103v14.57103z" stroke-width="0"/><path d="M221.39423,169.73458v-14.57103h14.57103v14.57103z" stroke-width="0"/></g><g><path d="M164.21668,152.98947v-14.57103h14.57103v14.57103z" stroke-width="2.5"/><path d="M181.15266,152.99288v-14.57103h14.57103v14.57103z" stroke-width="2.5"/><path d="M164.2201,169.73116v-14.57103h14.57103v14.57103z" stroke-width="2.5"/><path d="M181.15608,169.73458v-14.57103h14.57103v14.57103z" stroke-width="2.5"/><path d="M164.21668,152.98947v-14.57103h14.57103v14.57103z" stroke-width="0"/><path d="M181.15266,152.99288v-14.57103h14.57103v14.57103z" stroke-width="0"/><path d="M164.2201,169.73116v-14.57103h14.57103v14.57103z" stroke-width="0"/><path d="M181.15608,169.73458v-14.57103h14.57103v14.57103z" stroke-width="0"/></g></g><g fill="#ffffff" stroke="#434343"><g><path d="M284.2729,189.74593v-14.57103h14.57103v14.57103z" stroke-width="2.5"/><path d="M301.20887,189.74934v-14.57103h14.57103v14.57103z" stroke-width="2.5"/><path d="M284.27631,206.48762v-14.57103h14.57103v14.57103z" stroke-width="2.5"/><path d="M301.21229,206.49104v-14.57103h14.57103v14.57103z" stroke-width="2.5"/><path d="M284.2729,189.74593v-14.57103h14.57103v14.57103z" stroke-width="0"/><path d="M301.20887,189.74934v-14.57103h14.57103v14.57103z" stroke-width="0"/><path d="M284.27631,206.48762v-14.57103h14.57103v14.57103z" stroke-width="0"/><path d="M301.21229,206.49104v-14.57103h14.57103v14.57103z" stroke-width="0"/></g><g><path d="M244.74085,189.74593v-14.57103h14.57103v14.57103z" stroke-width="2.5"/><path d="M261.67683,189.74934v-14.57103h14.57103v14.57103z" stroke-width="2.5"/><path d="M244.74427,206.48762v-14.57103h14.57103v14.57103z" stroke-width="2.5"/><path d="M261.68024,206.49104v-14.57103h14.57103v14.57103z" stroke-width="2.5"/><path d="M244.74085,189.74593v-14.57103h14.57103v14.57103z" stroke-width="0"/><path d="M261.67683,189.74934v-14.57103h14.57103v14.57103z" stroke-width="0"/><path d="M244.74427,206.48762v-14.57103h14.57103v14.57103z" stroke-width="0"/><path d="M261.68024,206.49104v-14.57103h14.57103v14.57103z" stroke-width="0"/></g><g><path d="M204.45484,189.74593v-14.57103h14.57103v14.57103z" stroke-width="2.5"/><path d="M221.39081,189.74934v-14.57103h14.57103v14.57103z" stroke-width="2.5"/><path d="M204.45825,206.48762v-14.57103h14.57103v14.57103z" stroke-width="2.5"/><path d="M221.39423,206.49104v-14.57103h14.57103v14.57103z" stroke-width="2.5"/><path d="M204.45484,189.74593v-14.57103h14.57103v14.57103z" stroke-width="0"/><path d="M221.39081,189.74934v-14.57103h14.57103v14.57103z" stroke-width="0"/><path d="M204.45825,206.48762v-14.57103h14.57103v14.57103z" stroke-width="0"/><path d="M221.39423,206.49104v-14.57103h14.57103v14.57103z" stroke-width="0"/></g><g><path d="M164.21669,189.74593v-14.57103h14.57103v14.57103z" stroke-width="2.5"/><path d="M181.15266,189.74934v-14.57103h14.57103v14.57103z" stroke-width="2.5"/><path d="M164.2201,206.48762v-14.57103h14.57103v14.57103z" stroke-width="2.5"/><path d="M181.15608,206.49104v-14.57103h14.57103v14.57103z" stroke-width="2.5"/><path d="M164.21669,189.74593v-14.57103h14.57103v14.57103z" stroke-width="0"/><path d="M181.15266,189.74934v-14.57103h14.57103v14.57103z" stroke-width="0"/><path d="M164.2201,206.48762v-14.57103h14.57103v14.57103z" stroke-width="0"/><path d="M181.15608,206.49104v-14.57103h14.57103v14.57103z" stroke-width="0"/></g></g><g fill="#ffffff" stroke="#434343"><g><path d="M284.2729,225.62781v-14.57103h14.57103v14.57103z" stroke-width="2.5"/><path d="M301.20887,225.63122v-14.57103h14.57103v14.57103z" stroke-width="2.5"/><path d="M284.27631,242.3695v-14.57103h14.57103v14.57103z" stroke-width="2.5"/><path d="M301.21229,242.37292v-14.57103h14.57103v14.57103z" stroke-width="2.5"/><path d="M284.2729,225.62781v-14.57103h14.57103v14.57103z" stroke-width="0"/><path d="M301.20887,225.63122v-14.57103h14.57103v14.57103z" stroke-width="0"/><path d="M284.27631,242.3695v-14.57103h14.57103v14.57103z" stroke-width="0"/><path d="M301.21229,242.37292v-14.57103h14.57103v14.57103z" stroke-width="0"/></g><g><path d="M244.74085,225.62781v-14.57103h14.57103v14.57103z" stroke-width="2.5"/><path d="M261.67682,225.63122v-14.57103h14.57103v14.57103z" stroke-width="2.5"/><path d="M244.74426,242.3695v-14.57103h14.57103v14.57103z" stroke-width="2.5"/><path d="M261.68024,242.37292v-14.57103h14.57103v14.57103z" stroke-width="2.5"/><path d="M244.74085,225.62781v-14.57103h14.57103v14.57103z" stroke-width="0"/><path d="M261.67682,225.63122v-14.57103h14.57103v14.57103z" stroke-width="0"/><path d="M244.74426,242.3695v-14.57103h14.57103v14.57103z" stroke-width="0"/><path d="M261.68024,242.37292v-14.57103h14.57103v14.57103z" stroke-width="0"/></g><g><path d="M204.45484,225.62781v-14.57103h14.57103v14.57103z" stroke-width="2.5"/><path d="M221.39081,225.63122v-14.57103h14.57103v14.57103z" stroke-width="2.5"/><path d="M204.45825,242.3695v-14.57103h14.57103v14.57103z" stroke-width="2.5"/><path d="M221.39423,242.37292v-14.57103h14.57103v14.57103z" stroke-width="2.5"/><path d="M204.45484,225.62781v-14.57103h14.57103v14.57103z" stroke-width="0"/><path d="M221.39081,225.63122v-14.57103h14.57103v14.57103z" stroke-width="0"/><path d="M204.45825,242.3695v-14.57103h14.57103v14.57103z" stroke-width="0"/><path d="M221.39423,242.37292v-14.57103h14.57103v14.57103z" stroke-width="0"/></g><g><path d="M164.21669,225.62781v-14.57103h14.57103v14.57103z" stroke-width="2.5"/><path d="M181.15266,225.63122v-14.57103h14.57103v14.57103z" stroke-width="2.5"/><path d="M164.2201,242.3695v-14.57103h14.57103v14.57103z" stroke-width="2.5"/><path d="M181.15608,242.37292v-14.57103h14.57103v14.57103z" stroke-width="2.5"/><path d="M164.21669,225.62781v-14.57103h14.57103v14.57103z" stroke-width="0"/><path d="M181.15266,225.63122v-14.57103h14.57103v14.57103z" stroke-width="0"/><path d="M164.2201,242.3695v-14.57103h14.57103v14.57103z" stroke-width="0"/><path d="M181.15608,242.37292v-14.57103h14.57103v14.57103z" stroke-width="0"/></g></g><g fill="#ffffff" stroke="#434343"><g><path d="M284.2729,262.38427v-14.57103h14.57103v14.57103z" stroke-width="2.5"/><path d="M301.20887,262.38768v-14.57103h14.57103v14.57103z" stroke-width="2.5"/><path d="M284.27631,279.12596v-14.57103h14.57103v14.57103z" stroke-width="2.5"/><path d="M301.21229,279.12938v-14.57103h14.57103v14.57103z" stroke-width="2.5"/><path d="M284.2729,262.38427v-14.57103h14.57103v14.57103z" stroke-width="0"/><path d="M301.20887,262.38768v-14.57103h14.57103v14.57103z" stroke-width="0"/><path d="M284.27631,279.12596v-14.57103h14.57103v14.57103z" stroke-width="0"/><path d="M301.21229,279.12938v-14.57103h14.57103v14.57103z" stroke-width="0"/></g><g><path d="M244.74085,262.38427v-14.57103h14.57103v14.57103z" stroke-width="2.5"/><path d="M261.67683,262.38768v-14.57103h14.57103v14.57103z" stroke-width="2.5"/><path d="M244.74427,279.12596v-14.57103h14.57103v14.57103z" stroke-width="2.5"/><path d="M261.68024,279.12938v-14.57103h14.57103v14.57103z" stroke-width="2.5"/><path d="M244.74085,262.38427v-14.57103h14.57103v14.57103z" stroke-width="0"/><path d="M261.67683,262.38768v-14.57103h14.57103v14.57103z" stroke-width="0"/><path d="M244.74427,279.12596v-14.57103h14.57103v14.57103z" stroke-width="0"/><path d="M261.68024,279.12938v-14.57103h14.57103v14.57103z" stroke-width="0"/></g><g><path d="M204.45484,262.38427v-14.57103h14.57103v14.57103z" stroke-width="2.5"/><path d="M221.39081,262.38768v-14.57103h14.57103v14.57103z" stroke-width="2.5"/><path d="M204.45825,279.12596v-14.57103h14.57103v14.57103z" stroke-width="2.5"/><path d="M221.39423,279.12938v-14.57103h14.57103v14.57103z" stroke-width="2.5"/><path d="M204.45484,262.38427v-14.57103h14.57103v14.57103z" stroke-width="0"/><path d="M221.39081,262.38768v-14.57103h14.57103v14.57103z" stroke-width="0"/><path d="M204.45825,279.12596v-14.57103h14.57103v14.57103z" stroke-width="0"/><path d="M221.39423,279.12938v-14.57103h14.57103v14.57103z" stroke-width="0"/></g><g><path d="M164.21669,262.38427v-14.57103h14.57103v14.57103z" stroke-width="2.5"/><path d="M181.15266,262.38768v-14.57103h14.57103v14.57103z" stroke-width="2.5"/><path d="M164.2201,279.12596v-14.57103h14.57103v14.57103z" stroke-width="2.5"/><path d="M181.15608,279.12938v-14.57103h14.57103v14.57103z" stroke-width="2.5"/><path d="M164.21669,262.38427v-14.57103h14.57103v14.57103z" stroke-width="0"/><path d="M181.15266,262.38768v-14.57103h14.57103v14.57103z" stroke-width="0"/><path d="M164.2201,279.12596v-14.57103h14.57103v14.57103z" stroke-width="0"/><path d="M181.15608,279.12938v-14.57103h14.57103v14.57103z" stroke-width="0"/></g></g></g></g></g></svg>