<svg version="1.1" xmlns="http://www.w3.org/2000/svg" xmlns:xlink="http://www.w3.org/1999/xlink" width="12.18966" height="12.18965" viewBox="0,0,12.18966,12.18965"><g transform="translate(-209.51539,-174.11073)"><g data-paper-data="{&quot;isPaintingLayer&quot;:true}" fill="#ff0000" fill-rule="nonzero" stroke-linecap="butt" stroke-linejoin="miter" stroke-miterlimit="10" stroke-dasharray="" stroke-dashoffset="0" style="mix-blend-mode: normal"><path d="M221.20505,180.20556c0,0.55805 -3.89651,0.86104 -4.04861,1.36962c-0.34028,1.13783 4.6303,1.35665 3.71196,2.06358c-0.43096,0.33175 -2.7717,0.04424 -3.70774,0.46731c-0.59289,0.26798 4.37067,1.33924 3.81424,1.51019c-0.48926,0.15033 -5.03835,0.18412 -5.36469,0.18412c-3.08993,0 -5.59482,-2.50489 -5.59482,-5.59482c0,-3.08993 2.50489,-5.59483 5.59482,-5.59483c1.73159,0 4.71492,0.33437 5.74117,1.56979c0.41431,0.49875 -5.25391,1.36561 -5.03185,1.98841c0.20942,0.58737 4.8855,1.37733 4.8855,2.03662z" data-paper-data="{&quot;index&quot;:null}" stroke="#000000" stroke-width="1"/><path d="M221.20505,180.20556c0,0.55805 -3.89651,0.86104 -4.04861,1.36962c-0.34028,1.13783 4.6303,1.35665 3.71196,2.06358c-0.43096,0.33175 -2.77169,0.04424 -3.70773,0.46731c-0.59289,0.26798 4.37066,1.33924 3.81424,1.5102c-0.48926,0.15033 -5.03836,0.18411 -5.36469,0.18411c-3.08993,0 -5.59482,-2.50489 -5.59482,-5.59482c0,-3.08993 2.50489,-5.59483 5.59482,-5.59483c1.73159,0 4.71492,0.33437 5.74118,1.56979c0.41431,0.49875 -5.25391,1.36561 -5.03185,1.98841c0.20942,0.58737 4.8855,1.37733 4.8855,2.03662z" data-paper-data="{&quot;index&quot;:null}" stroke="none" stroke-width="0"/></g></g></svg>