<svg version="1.1" xmlns="http://www.w3.org/2000/svg" xmlns:xlink="http://www.w3.org/1999/xlink" width="43.6783" height="43.6783" viewBox="0,0,43.6783,43.6783"><g transform="translate(-270.79528,-184.93846)"><g data-paper-data="{&quot;isPaintingLayer&quot;:true}" fill-rule="nonzero" stroke="none" stroke-width="0" stroke-linecap="butt" stroke-linejoin="miter" stroke-miterlimit="10" stroke-dasharray="" stroke-dashoffset="0" style="mix-blend-mode: normal"><path d="M270.79528,206.77762c0,-12.06143 9.77772,-21.83915 21.83915,-21.83915c12.06143,0 21.83915,9.77772 21.83915,21.83915c0,12.06143 -9.77772,21.83916 -21.83915,21.83916c-12.06143,0 -21.83915,-9.77773 -21.83915,-21.83916z" fill="#585858"/><path d="M272.21065,206.77762c0,-11.27974 9.14404,-20.42379 20.42379,-20.42379c11.27974,0 20.42379,9.14404 20.42379,20.42379c0,11.27974 -9.14404,20.42378 -20.42379,20.42378c-11.27974,0 -20.42379,-9.14404 -20.42379,-20.42378z" fill="#808080"/><path d="M277.44516,206.77762c0,-8.3888 6.80047,-15.18927 15.18927,-15.18927c8.3888,0 15.18926,6.80047 15.18926,15.18927c0,8.3888 -6.80046,15.18927 -15.18926,15.18927c-8.3888,0 -15.18927,-6.80047 -15.18927,-15.18927z" fill="#585858"/><path d="M279.03366,206.77762c0,-7.5115 6.08927,-13.60077 13.60077,-13.60077c7.5115,0 13.60077,6.08927 13.60077,13.60077c0,7.5115 -6.08927,13.60077 -13.60077,13.60077c-7.5115,0 -13.60077,-6.08927 -13.60077,-13.60077z" fill="#808080"/><path d="M286.63115,201.10421v-13.59565h11.96241v13.59565z" fill="#808080"/><path d="M291.37639,205.60656v-17.89936h2.47193v17.89936z" fill="#585858"/></g></g></svg>