<svg version="1.1" xmlns="http://www.w3.org/2000/svg" xmlns:xlink="http://www.w3.org/1999/xlink" width="15.19112" height="15.19112" viewBox="0,0,15.19112,15.19112"><g transform="translate(-232.90444,-172.40444)"><g data-paper-data="{&quot;isPaintingLayer&quot;:true}" fill-rule="nonzero" stroke-linecap="butt" stroke-linejoin="miter" stroke-miterlimit="10" stroke-dasharray="" stroke-dashoffset="0" style="mix-blend-mode: normal"><path d="M240.5,173.40444c3.64263,0 6.59556,2.95293 6.59556,6.59556c0,3.64263 -2.95293,6.59556 -6.59556,6.59556c-3.64263,0 -6.59556,-2.95293 -6.59556,-6.59556c0,-3.64263 2.95293,-6.59556 6.59556,-6.59556z" data-paper-data="{&quot;index&quot;:null}" fill="#106900" stroke="#000000" stroke-width="2"/><path d="M240.5,173.40445c3.64263,0 6.59555,2.95293 6.59555,6.59555c0,3.64263 -2.95293,6.59555 -6.59555,6.59555c-3.64263,0 -6.59555,-2.95293 -6.59555,-6.59555c0,-3.64263 2.95293,-6.59555 6.59555,-6.59555z" data-paper-data="{&quot;index&quot;:null}" fill="#ae8741" stroke="#000000" stroke-width="0"/><path d="M242.43596,176.16807l3.83193,3.83193l-3.83193,3.83193z" data-paper-data="{&quot;index&quot;:null}" fill="#ffffff" stroke="none" stroke-width="0"/><path d="M235.0907,179.33621h7.81318v1.32759h-7.81318z" data-paper-data="{&quot;index&quot;:null}" fill="#ffffff" stroke="none" stroke-width="0"/></g></g></svg>