<svg version="1.1" xmlns="http://www.w3.org/2000/svg" xmlns:xlink="http://www.w3.org/1999/xlink" width="751.807" height="517.3841" viewBox="0,0,751.807,517.3841"><defs><radialGradient cx="-7.26018" cy="369.41092" r="28.99078" gradientUnits="userSpaceOnUse" id="color-1"><stop offset="0" stop-color="#ff0000"/><stop offset="1" stop-color="#000000"/></radialGradient></defs><g transform="translate(145.3876,98.64239)"><g data-paper-data="{&quot;isPaintingLayer&quot;:true}" fill-rule="nonzero" stroke-linejoin="miter" stroke-miterlimit="10" stroke-dasharray="" stroke-dashoffset="0" style="mix-blend-mode: normal"><path d="M-41.31948,376.7597v-406.22043h542.21854v406.22043z" fill="#000eff" stroke="none" stroke-width="NaN" stroke-linecap="butt"/><path d="M157.94731,223.61401l29.56481,-11.82592" fill="none" stroke="#268000" stroke-width="2.5" stroke-linecap="round"/><path d="M144.3475,175.71902l21.87796,-15.965" fill="none" stroke="#268000" stroke-width="2.5" stroke-linecap="round"/><path d="M203.94858,32.12022l39.78683,-7.66536" fill="none" stroke="#000680" stroke-width="4" stroke-linecap="round"/><path d="M247.38557,60.22651l40.51687,-15.33071" fill="none" stroke="#000680" stroke-width="4" stroke-linecap="round"/><path d="M288.63247,112.05889l34.67659,-17.88583" fill="none" stroke="#000680" stroke-width="4" stroke-linecap="round"/><path d="M311.99354,154.76585l35.40663,-13.1406" fill="none" stroke="#000680" stroke-width="4" stroke-linecap="round"/><path d="M360.54078,175.57181l51.83238,-1.46007" fill="none" stroke="#000680" stroke-width="4" stroke-linecap="round"/><path d="M413.10319,202.58305l58.40269,-16.79077" fill="none" stroke="#000680" stroke-width="4" stroke-linecap="round"/><path d="M389.01208,139.07013l22.63104,-15.33071" fill="none" stroke="#000680" stroke-width="4" stroke-linecap="round"/><path d="M431.35403,151.11569l26.28121,-10.22047" fill="none" stroke="#000680" stroke-width="4" stroke-linecap="round"/><path d="M468.58574,163.52626l20.07593,-15.3307" fill="none" stroke="#000680" stroke-width="4" stroke-linecap="round"/><path d="M345.9401,123.73943l21.90101,-21.53599" fill="none" stroke="#000680" stroke-width="4" stroke-linecap="round"/><path d="M399.96259,103.6635l18.25084,-16.79077" fill="none" stroke="#000680" stroke-width="4" stroke-linecap="round"/><path d="M342.65495,82.12751l23.72609,-17.88582" fill="none" stroke="#000680" stroke-width="4" stroke-linecap="round"/><path d="M287.90244,74.09715l24.82114,-19.71091" fill="none" stroke="#000680" stroke-width="4" stroke-linecap="round"/><path d="M320.38893,38.69052l20.07592,-24.45612" fill="none" stroke="#000680" stroke-width="4" stroke-linecap="round"/><path d="M359.81074,31.02517l29.93138,-21.90101" fill="none" stroke="#000680" stroke-width="4" stroke-linecap="round"/><path d="M408.35797,38.69052l18.25084,-18.98087" fill="none" stroke="#000680" stroke-width="4" stroke-linecap="round"/><path d="M448.87484,42.7057l37.23171,-32.12148" fill="none" stroke="#000680" stroke-width="4" stroke-linecap="round"/><path d="M463.11049,93.80805l41.24689,-35.77164" fill="none" stroke="#000680" stroke-width="4" stroke-linecap="round"/><path d="M470.77584,117.53414l48.91225,-39.05679" fill="none" stroke="#000680" stroke-width="4" stroke-linecap="round"/><path d="M412.37316,67.52684l31.02643,-20.07592" fill="none" stroke="#000680" stroke-width="4" stroke-linecap="round"/><path d="M442.30453,100.01334l16.06074,-33.21653" fill="none" stroke="#000680" stroke-width="4" stroke-linecap="round"/><path d="M279.50705,13.13934l20.44094,-37.59672" fill="none" stroke="#000680" stroke-width="4" stroke-linecap="round"/><path d="M198.10831,8.39413l31.39145,-23.36107" fill="none" stroke="#000680" stroke-width="4" stroke-linecap="round"/><path d="M204.31359,60.22651l23.72609,-12.77558" fill="none" stroke="#000680" stroke-width="4" stroke-linecap="round"/><path d="M241.18029,95.63314l20.07593,-5.11023" fill="none" stroke="#000680" stroke-width="4" stroke-linecap="round"/><path d="M260.52618,121.91434l16.42575,-1.46007" fill="none" stroke="#000680" stroke-width="4" stroke-linecap="round"/><path d="M291.18759,147.83054l13.1406,-21.90101" fill="none" stroke="#000680" stroke-width="4" stroke-linecap="round"/><path d="M335.35462,174.47676l28.10629,-22.99606" fill="none" stroke="#000680" stroke-width="4" stroke-linecap="round"/><path d="M381.34673,194.18767l36.50168,-14.23566" fill="none" stroke="#000680" stroke-width="4" stroke-linecap="round"/><path d="M443.03457,228.86426l31.02643,-28.47131" fill="none" stroke="#000680" stroke-width="4" stroke-linecap="round"/><path d="M339.3698,210.2484l32.12147,-25.18616" fill="none" stroke="#000680" stroke-width="4" stroke-linecap="round"/><path d="M288.99749,183.9672l24.09111,-19.7109" fill="none" stroke="#000680" stroke-width="4" stroke-linecap="round"/><path d="M243.37039,162.06618l31.39144,-19.34588" fill="none" stroke="#000680" stroke-width="4" stroke-linecap="round"/><path d="M215.2641,136.14999l23.72609,-25.18615" fill="none" stroke="#000680" stroke-width="4" stroke-linecap="round"/><path d="M199.56838,108.40872l17.88582,-8.7604" fill="none" stroke="#000680" stroke-width="4" stroke-linecap="round"/><path d="M187.15781,91.25293l22.63104,-8.03037" fill="none" stroke="#000680" stroke-width="4" stroke-linecap="round"/><path d="M156.13138,64.24169l32.4865,-8.39539" fill="none" stroke="#000680" stroke-width="4" stroke-linecap="round"/><path d="M151.75117,41.61065l20.07593,-5.84027" fill="none" stroke="#000680" stroke-width="4" stroke-linecap="round"/><path d="M141.89572,20.80469l26.28121,-7.66535" fill="none" stroke="#000680" stroke-width="4" stroke-linecap="round"/><path d="M132.40529,-6.57156l32.12148,-6.5703" fill="none" stroke="#000680" stroke-width="4" stroke-linecap="round"/><path d="M606.4194,378.21192l-594.84389,-16.55629l23.65184,-457.07189l102.29423,-1.77389c0,0 -37.6901,136.36044 118.23472,244.49859c182.78914,126.7693 309.86366,53.51465 309.86366,53.51465z" fill="#e1ff00" stroke="#000000" stroke-width="0" stroke-linecap="round"/><path d="M-145.3876,-97.45978v-1.1826h3.54778v1.1826z" fill="#000eff" stroke="none" stroke-width="0" stroke-linecap="butt"/><path d="M562.98514,418.74172l-594.84389,-16.55629l23.65184,-457.07189l102.29423,-1.77389c0,0 -37.69009,136.36044 118.23473,244.49859c182.78915,126.7693 309.86366,53.51465 309.86366,53.51465z" fill="#4eff00" stroke="#000000" stroke-width="0" stroke-linecap="round"/><path d="M88.17437,311.12583l-40.20814,15.965" fill="none" stroke="#268000" stroke-width="2.5" stroke-linecap="round"/><path d="M111.82621,315.26491l-15.3737,19.51277" fill="none" stroke="#268000" stroke-width="2.5" stroke-linecap="round"/><path d="M140.79972,332.41249l25.42573,-11.82592" fill="none" stroke="#268000" stroke-width="2.5" stroke-linecap="round"/><path d="M202.88581,326.49953l28.97351,-17.73888" fill="none" stroke="#268000" stroke-width="2.5" stroke-linecap="round"/><path d="M270.88486,330.04731l55.58183,-5.32167" fill="none" stroke="#268000" stroke-width="2.5" stroke-linecap="round"/><path d="M347.75336,326.49953l15.965,-4.13907" fill="none" stroke="#268000" stroke-width="2.5" stroke-linecap="round"/><path d="M390.32668,341.28193l19.51277,-14.7824" fill="none" stroke="#268000" stroke-width="2.5" stroke-linecap="round"/><path d="M442.95203,351.33397l30.1561,-31.33869" fill="none" stroke="#268000" stroke-width="2.5" stroke-linecap="round"/><path d="M415.75241,310.53454l33.11258,-30.7474" fill="none" stroke="#268000" stroke-width="2.5" stroke-linecap="round"/><path d="M316.41466,296.93473l31.33869,-11.23463" fill="none" stroke="#268000" stroke-width="2.5" stroke-linecap="round"/><path d="M249.5982,274.46547l27.79092,-13.59981" fill="none" stroke="#268000" stroke-width="2.5" stroke-linecap="round"/><path d="M250.7808,269.7351l-71.54683,16.55629" fill="none" stroke="#268000" stroke-width="2.5" stroke-linecap="round"/><path d="M204.0684,249.03974l33.70388,-5.91296" fill="none" stroke="#268000" stroke-width="2.5" stroke-linecap="round"/><path d="M130.74769,257.31789l-75.09461,13.00851" fill="none" stroke="#268000" stroke-width="2.5" stroke-linecap="round"/><path d="M76.93974,220.65753l49.66887,-18.33018" fill="none" stroke="#268000" stroke-width="2.5" stroke-linecap="round"/><path d="M14.26235,267.96122l22.46925,-38.43425" fill="none" stroke="#268000" stroke-width="2.5" stroke-linecap="round"/><path d="M55.65308,188.72754l36.66036,-33.11258" fill="none" stroke="#268000" stroke-width="2.5" stroke-linecap="round"/><path d="M20.76661,177.49291l19.51277,-17.14759" fill="none" stroke="#268000" stroke-width="2.5" stroke-linecap="round"/><path d="M82.8527,137.28478l27.19962,-7.09555" fill="none" stroke="#268000" stroke-width="2.5" stroke-linecap="round"/><path d="M30.22735,123.09367l28.97351,-5.91296" fill="none" stroke="#268000" stroke-width="2.5" stroke-linecap="round"/><path d="M82.2614,100.62442l37.25166,-8.27815" fill="none" stroke="#268000" stroke-width="2.5" stroke-linecap="round"/><path d="M21.9492,90.57239l-27.79092,2.36518" fill="none" stroke="#268000" stroke-width="2.5" stroke-linecap="round"/><path d="M43.82716,76.38128l25.42573,-7.09555" fill="none" stroke="#268000" stroke-width="2.5" stroke-linecap="round"/><path d="M102.95677,67.51184c0,0 -15.45467,-6.10823 -17.95134,-9.09036c-3.9279,-4.69166 -3.33532,-16.33538 -3.33532,-16.33538" fill="none" stroke="#268000" stroke-width="2.5" stroke-linecap="round"/><path d="M22.5405,47.99906l31.33869,-2.36518" fill="none" stroke="#268000" stroke-width="2.5" stroke-linecap="round"/><path d="M7.75809,17.25166l23.06055,-4.13907" fill="none" stroke="#268000" stroke-width="2.5" stroke-linecap="round"/><path d="M71.61808,18.43425l-21.87796,3.54778" fill="none" stroke="#268000" stroke-width="2.5" stroke-linecap="round"/><path d="M86.99177,-2.85241l-11.82592,3.54778" fill="none" stroke="#268000" stroke-width="2.5" stroke-linecap="round"/><path d="M20.76661,-2.26112l33.11258,-7.68685" fill="none" stroke="#268000" stroke-width="2.5" stroke-linecap="round"/><path d="M10.71457,-14.67833l15.965,-5.32167" fill="none" stroke="#268000" stroke-width="2.5" stroke-linecap="round"/><path d="M53.28789,-27.09554l19.51277,-4.13907" fill="none" stroke="#268000" stroke-width="2.5" stroke-linecap="round"/><path d="M-13.01697,377.74308v-49.18496h49.18496v49.18496z" fill="#676767" stroke="none" stroke-width="0" stroke-linecap="butt"/><path d="M11.57551,387.92961l-34.77901,-34.77901l34.77901,-34.77901l34.77901,34.77901z" fill="#676767" stroke="none" stroke-width="0" stroke-linecap="butt"/><path d="M-1.28802,385.46328l-19.44915,-45.17621l45.17621,-19.44915l19.44915,45.1762z" fill="#676767" stroke="none" stroke-width="0" stroke-linecap="butt"/><path d="M25.32814,385.09501l-45.69703,-18.19178l18.19177,-45.69703l45.69704,18.19177z" fill="#676767" stroke="none" stroke-width="0" stroke-linecap="butt"/><path d="M-11.06613,375.79224v-45.28328h45.28328v45.28328z" fill="#000000" stroke="none" stroke-width="0" stroke-linecap="butt"/><path d="M34.58724,304.52986l-39.05487,32.22027" fill="none" stroke="#268000" stroke-width="2.5" stroke-linecap="round"/><path d="M11.57551,385.17071l-32.02011,-32.02011l32.02011,-32.02011l32.02011,32.02011z" fill="#000000" stroke="none" stroke-width="0" stroke-linecap="butt"/><path d="M-0.26759,382.90003l-17.90632,-41.59253l41.59253,-17.90632l17.90632,41.59253z" fill="#000000" stroke="none" stroke-width="0" stroke-linecap="butt"/><path d="M24.23719,382.56097l-42.07204,-16.74868l16.74869,-42.07204l42.07205,16.74869z" fill="#000000" stroke="none" stroke-width="0" stroke-linecap="butt"/><path d="M-35.15925,395.61179v-57.98156h57.98156v57.98156z" fill="url(#color-1)" stroke="none" stroke-width="NaN" stroke-linecap="butt"/><path d="M167.3738,246.92393l46.37766,-20.99199" fill="none" stroke="#268000" stroke-width="2.5" stroke-linecap="round"/><path d="M199.59407,203.96357l-78.59793,10.74009" fill="none" stroke="#268000" stroke-width="2.5" stroke-linecap="round"/><path d="M162.98012,173.69605l-46.86585,4.88186" fill="none" stroke="#268000" stroke-width="2.5" stroke-linecap="round"/><path d="M154.68096,228.37287l-17.08651,31.2439" fill="none" stroke="#268000" stroke-width="2.5" stroke-linecap="round"/><path d="M164.44468,269.38048l-31.73208,15.62195" fill="none" stroke="#268000" stroke-width="2.5" stroke-linecap="round"/><path d="M18.4771,167.34963l-30.26753,7.81097" fill="none" stroke="#268000" stroke-width="2.5" stroke-linecap="round"/><path d="M12.13068,203.47538l-38.0785,3.4173" fill="none" stroke="#268000" stroke-width="2.5" stroke-linecap="round"/><path d="M13.10706,240.57751l-27.33841,-16.11013" fill="none" stroke="#268000" stroke-width="2.5" stroke-linecap="round"/><path d="M22.38259,270.84504l-42.96036,3.90549" fill="none" stroke="#268000" stroke-width="2.5" stroke-linecap="round"/><path d="M19.45347,300.13619l-39.05487,5.85823" fill="none" stroke="#268000" stroke-width="2.5" stroke-linecap="round"/><g stroke-linecap="butt"><path d="M8.42794,311.32666v-172.96422h137.0236v172.96422z" fill="#909090" stroke="#000000" stroke-width="3"/><path d="M12.20714,145.40147v-37.05668h15.60818v37.05668z" fill="#909090" stroke="#000000" stroke-width="1.5"/><path d="M35.91463,145.40147v-37.05668h15.60817v37.05668z" fill="#909090" stroke="#000000" stroke-width="1.5"/><path d="M58.91017,145.40147v-37.05668h15.60818v37.05668z" fill="#909090" stroke="#000000" stroke-width="1.5"/><path d="M82.61766,145.40147v-37.05668h15.60818v37.05668z" fill="#909090" stroke="#000000" stroke-width="1.5"/><path d="M103.70219,145.40147v-37.05668h15.60818v37.05668z" fill="#909090" stroke="#000000" stroke-width="1.5"/><path d="M126.24041,145.40147v-37.05668h15.60818v37.05668z" fill="#909090" stroke="#000000" stroke-width="1.5"/><path d="M8.42794,311.32666v-172.96422h137.0236v172.96422z" fill="#909090" stroke="#000000" stroke-width="0"/><g fill="#ffffff" stroke="#434343"><g><path d="M115.14832,154.80328v-12.57515h12.57515v12.57515z" stroke-width="2.5"/><path d="M129.76447,154.80622v-12.57515h12.57515v12.57515z" stroke-width="2.5"/><path d="M115.15126,169.25176v-12.57515h12.57515v12.57515z" stroke-width="2.5"/><path d="M129.76742,169.25471v-12.57515h12.57515v12.57515z" stroke-width="2.5"/><path d="M115.14832,154.80328v-12.57515h12.57515v12.57515z" stroke-width="0"/><path d="M129.76447,154.80622v-12.57515h12.57515v12.57515z" stroke-width="0"/><path d="M115.15126,169.25176v-12.57515h12.57515v12.57515z" stroke-width="0"/><path d="M129.76742,169.25471v-12.57515h12.57515v12.57515z" stroke-width="0"/></g><g><path d="M81.0312,154.80328v-12.57515h12.57515v12.57515z" stroke-width="2.5"/><path d="M95.64736,154.80622v-12.57515h12.57515v12.57515z" stroke-width="2.5"/><path d="M81.03415,169.25176v-12.57515h12.57515v12.57515z" stroke-width="2.5"/><path d="M95.65031,169.25471v-12.57515h12.57515v12.57515z" stroke-width="2.5"/><path d="M81.0312,154.80328v-12.57515h12.57515v12.57515z" stroke-width="0"/><path d="M95.64736,154.80622v-12.57515h12.57515v12.57515z" stroke-width="0"/><path d="M81.03415,169.25176v-12.57515h12.57515v12.57515z" stroke-width="0"/><path d="M95.65031,169.25471v-12.57515h12.57515v12.57515z" stroke-width="0"/></g><g><path d="M46.26341,154.80328v-12.57515h12.57515v12.57515z" stroke-width="2.5"/><path d="M60.87956,154.80622v-12.57515h12.57515v12.57515z" stroke-width="2.5"/><path d="M46.26635,169.25176v-12.57515h12.57515v12.57515z" stroke-width="2.5"/><path d="M60.88251,169.25471v-12.57515h12.57515v12.57515z" stroke-width="2.5"/><path d="M46.26341,154.80328v-12.57515h12.57515v12.57515z" stroke-width="0"/><path d="M60.87956,154.80622v-12.57515h12.57515v12.57515z" stroke-width="0"/><path d="M46.26635,169.25176v-12.57515h12.57515v12.57515z" stroke-width="0"/><path d="M60.88251,169.25471v-12.57515h12.57515v12.57515z" stroke-width="0"/></g><g><path d="M11.53691,154.80328v-12.57515h12.57515v12.57515z" stroke-width="2.5"/><path d="M26.15307,154.80622v-12.57515h12.57515v12.57515z" stroke-width="2.5"/><path d="M11.53986,169.25176v-12.57515h12.57515v12.57515z" stroke-width="2.5"/><path d="M26.15601,169.25471v-12.57515h12.57515v12.57515z" stroke-width="2.5"/><path d="M11.53691,154.80328v-12.57515h12.57515v12.57515z" stroke-width="0"/><path d="M26.15307,154.80622v-12.57515h12.57515v12.57515z" stroke-width="0"/><path d="M11.53986,169.25176v-12.57515h12.57515v12.57515z" stroke-width="0"/><path d="M26.15601,169.25471v-12.57515h12.57515v12.57515z" stroke-width="0"/></g></g><g fill="#ffffff" stroke="#434343"><g><path d="M115.14832,186.52499v-12.57515h12.57515v12.57515z" stroke-width="2.5"/><path d="M129.76447,186.52793v-12.57515h12.57515v12.57515z" stroke-width="2.5"/><path d="M115.15126,200.97347v-12.57515h12.57515v12.57515z" stroke-width="2.5"/><path d="M129.76742,200.97641v-12.57515h12.57515v12.57515z" stroke-width="2.5"/><path d="M115.14832,186.52499v-12.57515h12.57515v12.57515z" stroke-width="0"/><path d="M129.76447,186.52793v-12.57515h12.57515v12.57515z" stroke-width="0"/><path d="M115.15126,200.97347v-12.57515h12.57515v12.57515z" stroke-width="0"/><path d="M129.76742,200.97641v-12.57515h12.57515v12.57515z" stroke-width="0"/></g><g><path d="M81.03121,186.52499v-12.57515h12.57515v12.57515z" stroke-width="2.5"/><path d="M95.64736,186.52793v-12.57515h12.57515v12.57515z" stroke-width="2.5"/><path d="M81.03416,200.97347v-12.57515h12.57515v12.57515z" stroke-width="2.5"/><path d="M95.65031,200.97641v-12.57515h12.57515v12.57515z" stroke-width="2.5"/><path d="M81.03121,186.52499v-12.57515h12.57515v12.57515z" stroke-width="0"/><path d="M95.64736,186.52793v-12.57515h12.57515v12.57515z" stroke-width="0"/><path d="M81.03416,200.97347v-12.57515h12.57515v12.57515z" stroke-width="0"/><path d="M95.65031,200.97641v-12.57515h12.57515v12.57515z" stroke-width="0"/></g><g><path d="M46.26341,186.52499v-12.57515h12.57515v12.57515z" stroke-width="2.5"/><path d="M60.87956,186.52793v-12.57515h12.57515v12.57515z" stroke-width="2.5"/><path d="M46.26635,200.97347v-12.57515h12.57515v12.57515z" stroke-width="2.5"/><path d="M60.88251,200.97641v-12.57515h12.57515v12.57515z" stroke-width="2.5"/><path d="M46.26341,186.52499v-12.57515h12.57515v12.57515z" stroke-width="0"/><path d="M60.87956,186.52793v-12.57515h12.57515v12.57515z" stroke-width="0"/><path d="M46.26635,200.97347v-12.57515h12.57515v12.57515z" stroke-width="0"/><path d="M60.88251,200.97641v-12.57515h12.57515v12.57515z" stroke-width="0"/></g><g><path d="M11.53691,186.52499v-12.57515h12.57515v12.57515z" stroke-width="2.5"/><path d="M26.15307,186.52793v-12.57515h12.57515v12.57515z" stroke-width="2.5"/><path d="M11.53986,200.97347v-12.57515h12.57515v12.57515z" stroke-width="2.5"/><path d="M26.15601,200.97641v-12.57515h12.57515v12.57515z" stroke-width="2.5"/><path d="M11.53691,186.52499v-12.57515h12.57515v12.57515z" stroke-width="0"/><path d="M26.15307,186.52793v-12.57515h12.57515v12.57515z" stroke-width="0"/><path d="M11.53986,200.97347v-12.57515h12.57515v12.57515z" stroke-width="0"/><path d="M26.15601,200.97641v-12.57515h12.57515v12.57515z" stroke-width="0"/></g></g><g fill="#ffffff" stroke="#434343"><g><path d="M115.14832,218.2467v-12.57515h12.57515v12.57515z" stroke-width="2.5"/><path d="M129.76447,218.24965v-12.57515h12.57515v12.57515z" stroke-width="2.5"/><path d="M115.15126,232.69518v-12.57515h12.57515v12.57515z" stroke-width="2.5"/><path d="M129.76742,232.69813v-12.57515h12.57515v12.57515z" stroke-width="2.5"/><path d="M115.14832,218.2467v-12.57515h12.57515v12.57515z" stroke-width="0"/><path d="M129.76447,218.24965v-12.57515h12.57515v12.57515z" stroke-width="0"/><path d="M115.15126,232.69518v-12.57515h12.57515v12.57515z" stroke-width="0"/><path d="M129.76742,232.69813v-12.57515h12.57515v12.57515z" stroke-width="0"/></g><g><path d="M81.03121,218.2467v-12.57515h12.57515v12.57515z" stroke-width="2.5"/><path d="M95.64736,218.24965v-12.57515h12.57515v12.57515z" stroke-width="2.5"/><path d="M81.03416,232.69518v-12.57515h12.57515v12.57515z" stroke-width="2.5"/><path d="M95.65031,232.69813v-12.57515h12.57515v12.57515z" stroke-width="2.5"/><path d="M81.03121,218.2467v-12.57515h12.57515v12.57515z" stroke-width="0"/><path d="M95.64736,218.24965v-12.57515h12.57515v12.57515z" stroke-width="0"/><path d="M81.03416,232.69518v-12.57515h12.57515v12.57515z" stroke-width="0"/><path d="M95.65031,232.69813v-12.57515h12.57515v12.57515z" stroke-width="0"/></g><g><path d="M46.26341,218.2467v-12.57515h12.57515v12.57515z" stroke-width="2.5"/><path d="M60.87956,218.24965v-12.57515h12.57515v12.57515z" stroke-width="2.5"/><path d="M46.26635,232.69518v-12.57515h12.57515v12.57515z" stroke-width="2.5"/><path d="M60.88251,232.69813v-12.57515h12.57515v12.57515z" stroke-width="2.5"/><path d="M46.26341,218.2467v-12.57515h12.57515v12.57515z" stroke-width="0"/><path d="M60.87956,218.24965v-12.57515h12.57515v12.57515z" stroke-width="0"/><path d="M46.26635,232.69518v-12.57515h12.57515v12.57515z" stroke-width="0"/><path d="M60.88251,232.69813v-12.57515h12.57515v12.57515z" stroke-width="0"/></g><g><path d="M11.53691,218.2467v-12.57515h12.57515v12.57515z" stroke-width="2.5"/><path d="M26.15307,218.24965v-12.57515h12.57515v12.57515z" stroke-width="2.5"/><path d="M11.53986,232.69518v-12.57515h12.57515v12.57515z" stroke-width="2.5"/><path d="M26.15601,232.69813v-12.57515h12.57515v12.57515z" stroke-width="2.5"/><path d="M11.53691,218.2467v-12.57515h12.57515v12.57515z" stroke-width="0"/><path d="M26.15307,218.24965v-12.57515h12.57515v12.57515z" stroke-width="0"/><path d="M11.53986,232.69518v-12.57515h12.57515v12.57515z" stroke-width="0"/><path d="M26.15601,232.69813v-12.57515h12.57515v12.57515z" stroke-width="0"/></g></g><g fill="#ffffff" stroke="#434343"><g><path d="M115.14832,249.21362v-12.57515h12.57515v12.57515z" stroke-width="2.5"/><path d="M129.76447,249.21657v-12.57515h12.57515v12.57515z" stroke-width="2.5"/><path d="M115.15126,263.66211v-12.57515h12.57515v12.57515z" stroke-width="2.5"/><path d="M129.76742,263.66506v-12.57515h12.57515v12.57515z" stroke-width="2.5"/><path d="M115.14832,249.21362v-12.57515h12.57515v12.57515z" stroke-width="0"/><path d="M129.76447,249.21657v-12.57515h12.57515v12.57515z" stroke-width="0"/><path d="M115.15126,263.66211v-12.57515h12.57515v12.57515z" stroke-width="0"/><path d="M129.76742,263.66506v-12.57515h12.57515v12.57515z" stroke-width="0"/></g><g><path d="M81.0312,249.21362v-12.57515h12.57515v12.57515z" stroke-width="2.5"/><path d="M95.64736,249.21657v-12.57515h12.57515v12.57515z" stroke-width="2.5"/><path d="M81.03415,263.66211v-12.57515h12.57515v12.57515z" stroke-width="2.5"/><path d="M95.65031,263.66506v-12.57515h12.57515v12.57515z" stroke-width="2.5"/><path d="M81.0312,249.21362v-12.57515h12.57515v12.57515z" stroke-width="0"/><path d="M95.64736,249.21657v-12.57515h12.57515v12.57515z" stroke-width="0"/><path d="M81.03415,263.66211v-12.57515h12.57515v12.57515z" stroke-width="0"/><path d="M95.65031,263.66506v-12.57515h12.57515v12.57515z" stroke-width="0"/></g><g><path d="M46.26341,249.21362v-12.57515h12.57515v12.57515z" stroke-width="2.5"/><path d="M60.87956,249.21657v-12.57515h12.57515v12.57515z" stroke-width="2.5"/><path d="M46.26635,263.66211v-12.57515h12.57515v12.57515z" stroke-width="2.5"/><path d="M60.88251,263.66506v-12.57515h12.57515v12.57515z" stroke-width="2.5"/><path d="M46.26341,249.21362v-12.57515h12.57515v12.57515z" stroke-width="0"/><path d="M60.87956,249.21657v-12.57515h12.57515v12.57515z" stroke-width="0"/><path d="M46.26635,263.66211v-12.57515h12.57515v12.57515z" stroke-width="0"/><path d="M60.88251,263.66506v-12.57515h12.57515v12.57515z" stroke-width="0"/></g><g><path d="M11.53691,249.21362v-12.57515h12.57515v12.57515z" stroke-width="2.5"/><path d="M26.15307,249.21657v-12.57515h12.57515v12.57515z" stroke-width="2.5"/><path d="M11.53986,263.66211v-12.57515h12.57515v12.57515z" stroke-width="2.5"/><path d="M26.15601,263.66506v-12.57515h12.57515v12.57515z" stroke-width="2.5"/><path d="M11.53691,249.21362v-12.57515h12.57515v12.57515z" stroke-width="0"/><path d="M26.15307,249.21657v-12.57515h12.57515v12.57515z" stroke-width="0"/><path d="M11.53986,263.66211v-12.57515h12.57515v12.57515z" stroke-width="0"/><path d="M26.15601,263.66506v-12.57515h12.57515v12.57515z" stroke-width="0"/></g></g><g fill="#ffffff" stroke="#434343"><g><path d="M115.14832,280.93534v-12.57515h12.57515v12.57515z" stroke-width="2.5"/><path d="M129.76447,280.93827v-12.57515h12.57515v12.57515z" stroke-width="2.5"/><path d="M115.15126,295.38382v-12.57515h12.57515v12.57515z" stroke-width="2.5"/><path d="M129.76742,295.38677v-12.57515h12.57515v12.57515z" stroke-width="2.5"/><path d="M115.14832,280.93534v-12.57515h12.57515v12.57515z" stroke-width="0"/><path d="M129.76447,280.93827v-12.57515h12.57515v12.57515z" stroke-width="0"/><path d="M115.15126,295.38382v-12.57515h12.57515v12.57515z" stroke-width="0"/><path d="M129.76742,295.38677v-12.57515h12.57515v12.57515z" stroke-width="0"/></g><g><path d="M81.03121,280.93534v-12.57515h12.57515v12.57515z" stroke-width="2.5"/><path d="M95.64736,280.93827v-12.57515h12.57515v12.57515z" stroke-width="2.5"/><path d="M81.03416,295.38382v-12.57515h12.57515v12.57515z" stroke-width="2.5"/><path d="M95.65031,295.38677v-12.57515h12.57515v12.57515z" stroke-width="2.5"/><path d="M81.03121,280.93534v-12.57515h12.57515v12.57515z" stroke-width="0"/><path d="M95.64736,280.93827v-12.57515h12.57515v12.57515z" stroke-width="0"/><path d="M81.03416,295.38382v-12.57515h12.57515v12.57515z" stroke-width="0"/><path d="M95.65031,295.38677v-12.57515h12.57515v12.57515z" stroke-width="0"/></g><g><path d="M46.26341,280.93534v-12.57515h12.57515v12.57515z" stroke-width="2.5"/><path d="M60.87956,280.93827v-12.57515h12.57515v12.57515z" stroke-width="2.5"/><path d="M46.26635,295.38382v-12.57515h12.57515v12.57515z" stroke-width="2.5"/><path d="M60.88251,295.38677v-12.57515h12.57515v12.57515z" stroke-width="2.5"/><path d="M46.26341,280.93534v-12.57515h12.57515v12.57515z" stroke-width="0"/><path d="M60.87956,280.93827v-12.57515h12.57515v12.57515z" stroke-width="0"/><path d="M46.26635,295.38382v-12.57515h12.57515v12.57515z" stroke-width="0"/><path d="M60.88251,295.38677v-12.57515h12.57515v12.57515z" stroke-width="0"/></g><g><path d="M11.53691,280.93534v-12.57515h12.57515v12.57515z" stroke-width="2.5"/><path d="M26.15307,280.93827v-12.57515h12.57515v12.57515z" stroke-width="2.5"/><path d="M11.53986,295.38382v-12.57515h12.57515v12.57515z" stroke-width="2.5"/><path d="M26.15601,295.38677v-12.57515h12.57515v12.57515z" stroke-width="2.5"/><path d="M11.53691,280.93534v-12.57515h12.57515v12.57515z" stroke-width="0"/><path d="M26.15307,280.93827v-12.57515h12.57515v12.57515z" stroke-width="0"/><path d="M11.53986,295.38382v-12.57515h12.57515v12.57515z" stroke-width="0"/><path d="M26.15601,295.38677v-12.57515h12.57515v12.57515z" stroke-width="0"/></g></g></g><path d="M248.90084,326.49823l-41.4958,49.79496" fill="none" stroke="#268000" stroke-width="2.5" stroke-linecap="round"/><path d="M170.30291,347.97841l-72.7397,27.33841" fill="none" stroke="#268000" stroke-width="2.5" stroke-linecap="round"/><path d="M335.79793,349.44297l-37.10213,17.57469" fill="none" stroke="#268000" stroke-width="2.5" stroke-linecap="round"/><path d="M387.54563,348.95478l-33.19664,36.12576" fill="none" stroke="#268000" stroke-width="2.5" stroke-linecap="round"/><path d="M461.2617,370.43496l36.61394,-40.03124" fill="none" stroke="#268000" stroke-width="2.5" stroke-linecap="round"/></g></g></svg>