<svg version="1.1" xmlns="http://www.w3.org/2000/svg" xmlns:xlink="http://www.w3.org/1999/xlink" width="15.19112" height="17.00742" viewBox="0,0,15.19112,17.00742"><g transform="translate(-232.90444,-208.7274)"><g data-paper-data="{&quot;isPaintingLayer&quot;:true}" fill-rule="nonzero" stroke-linecap="butt" stroke-linejoin="miter" stroke-miterlimit="10" stroke-dasharray="" stroke-dashoffset="0" style="mix-blend-mode: normal"><path d="M240.5,210.90444c3.64263,0 6.59556,2.95293 6.59556,6.59556c0,3.64263 -2.95293,6.59556 -6.59556,6.59556c-3.64263,0 -6.59556,-2.95293 -6.59556,-6.59556c0,-3.64263 2.95293,-6.59556 6.59556,-6.59556z" data-paper-data="{&quot;index&quot;:null}" fill="#106900" stroke="#000000" stroke-width="2"/><path d="M240.5,210.90445c3.64263,0 6.59555,2.95293 6.59555,6.59555c0,3.64263 -2.95293,6.59555 -6.59555,6.59555c-3.64263,0 -6.59555,-2.95293 -6.59555,-6.59555c0,-3.64263 2.95293,-6.59555 6.59555,-6.59555z" data-paper-data="{&quot;index&quot;:null}" fill="#ae8741" stroke="#000000" stroke-width="0"/><text transform="translate(236.59969,222.06595) scale(0.30523,0.30523)" font-size="40" xml:space="preserve" fill="#ffffff" fill-rule="nonzero" stroke="none" stroke-width="1" stroke-linecap="butt" stroke-linejoin="miter" stroke-miterlimit="10" stroke-dasharray="" stroke-dashoffset="0" font-family="Sans Serif" font-weight="normal" text-anchor="start" style="mix-blend-mode: normal"><tspan x="0" dy="0">E</tspan></text></g></g></svg>