<svg version="1.1" xmlns="http://www.w3.org/2000/svg" xmlns:xlink="http://www.w3.org/1999/xlink" width="179.97588" height="348.77593" viewBox="0,0,179.97588,348.77593"><g transform="translate(-147.76206,-3.99214)"><g data-paper-data="{&quot;isPaintingLayer&quot;:true}" fill-rule="nonzero" stroke-linecap="butt" stroke-linejoin="miter" stroke-miterlimit="10" stroke-dasharray="" stroke-dashoffset="0" style="mix-blend-mode: normal"><path d="M152.26206,345.09672c0,-56.71431 0,-267.68097 0,-328.15949c0,-6.99947 10.00038,-10.56899 13.46206,-7.10732c30.11719,30.11719 151.39264,150.52701 157.32916,157.4013c4.09058,4.73675 8.59538,12.60771 -1.16214,22.36523c-31.04336,31.04335 -159.9387,159.93869 -159.98966,159.98966c-3.78218,3.78219 -9.63942,1.82412 -9.63942,-4.48938z" fill="#4cff00" stroke="#000000" stroke-width="9"/><path d="M152.26206,345.09672c0,-56.71431 0,-267.68097 0,-328.15949c0,-6.99947 10.00038,-10.56899 13.46206,-7.10732c30.11719,30.11719 151.39264,150.52701 157.32916,157.4013c4.09058,4.73675 8.59538,12.60771 -1.16214,22.36523c-31.04336,31.04335 -159.9387,159.93869 -159.98966,159.98966c-3.78218,3.78219 -9.63942,1.82412 -9.63942,-4.48938z" fill="#4dff00" stroke="none" stroke-width="0"/></g></g></svg>