<svg version="1.1" xmlns="http://www.w3.org/2000/svg" xmlns:xlink="http://www.w3.org/1999/xlink" width="28.31612" height="15.19112" viewBox="0,0,28.31612,15.19112"><g transform="translate(-219.77944,-172.40444)"><g data-paper-data="{&quot;isPaintingLayer&quot;:true}" fill-rule="nonzero" stroke-linecap="butt" stroke-linejoin="miter" stroke-miterlimit="10" stroke-dasharray="" stroke-dashoffset="0" style="mix-blend-mode: normal"><path d="M233.9375,173.40444c7.267,0 13.15806,2.95293 13.15806,6.59556c0,3.64263 -5.89106,6.59556 -13.15806,6.59556c-7.267,0 -13.15806,-2.95293 -13.15806,-6.59556c0,-3.64263 5.89106,-6.59556 13.15806,-6.59556z" data-paper-data="{&quot;index&quot;:null}" fill="#106900" stroke="#000000" stroke-width="2"/><path d="M233.9375,173.40445c7.267,0 13.15804,2.95293 13.15804,6.59555c0,3.64263 -5.89106,6.59555 -13.15804,6.59555c-7.267,0 -13.15804,-2.95293 -13.15804,-6.59555c0,-3.64263 5.89106,-6.59555 13.15804,-6.59555z" data-paper-data="{&quot;index&quot;:null}" fill="#ae8741" stroke="#000000" stroke-width="0"/><path d="M237.79972,176.16807l7.64465,3.83193l-7.64465,3.83193z" data-paper-data="{&quot;index&quot;:null}" fill="#ffffff" stroke="none" stroke-width="0"/><path d="M223.14602,179.33621h15.5872v1.32759h-15.5872z" data-paper-data="{&quot;index&quot;:null}" fill="#ffffff" stroke="none" stroke-width="0"/></g></g></svg>