<svg version="1.1" xmlns="http://www.w3.org/2000/svg" xmlns:xlink="http://www.w3.org/1999/xlink" width="43.6783" height="43.6783" viewBox="0,0,43.6783,43.6783"><g transform="translate(-215.35505,-184.14844)"><g data-paper-data="{&quot;isPaintingLayer&quot;:true}" fill-rule="nonzero" stroke-width="0" stroke-linecap="butt" stroke-linejoin="miter" stroke-miterlimit="10" stroke-dasharray="" stroke-dashoffset="0" style="mix-blend-mode: normal"><path d="" fill="#000000" stroke="#000000"/><path d="" fill="#ffffff" stroke="#000000"/><path d="M215.35505,205.98759c0,-12.06143 9.77772,-21.83915 21.83915,-21.83915c12.06143,0 21.83915,9.77772 21.83915,21.83915c0,12.06143 -9.77772,21.83915 -21.83915,21.83915c-12.06143,0 -21.83915,-9.77772 -21.83915,-21.83915z" fill="#585858" stroke="none"/><path d="M216.77042,205.98759c0,-11.27974 9.14404,-20.42379 20.42378,-20.42379c11.27974,0 20.42378,9.14404 20.42378,20.42379c0,11.27974 -9.14404,20.42378 -20.42378,20.42378c-11.27974,0 -20.42378,-9.14404 -20.42378,-20.42378z" fill="#808080" stroke="none"/><path d="M232.40537,220.79583v-30.37853l15.18927,15.18926z" fill="#585858" stroke="none"/></g></g></svg>