<svg version="1.1" xmlns="http://www.w3.org/2000/svg" xmlns:xlink="http://www.w3.org/1999/xlink" width="31.5439" height="22.31887" viewBox="0,0,31.5439,22.31887"><g transform="translate(-233.8274,-166.23601)"><g data-paper-data="{&quot;isPaintingLayer&quot;:true}" fill-rule="nonzero" stroke-linecap="butt" stroke-linejoin="miter" stroke-miterlimit="10" stroke-dasharray="" stroke-dashoffset="0" style="mix-blend-mode: normal"><text transform="translate(254.42505,183.92376) scale(0.3475,0.3475)" font-size="40" xml:space="preserve" fill="#000000" fill-rule="nonzero" stroke="none" stroke-width="1" stroke-linecap="butt" stroke-linejoin="miter" stroke-miterlimit="10" stroke-dasharray="" stroke-dashoffset="0" font-family="Pixel" font-weight="normal" text-anchor="start" style="mix-blend-mode: normal"><tspan x="0" dy="0">x</tspan></text><path d="M235.0774,179.26361c0,-4.06699 3.29695,-7.36394 7.36394,-7.36394c4.06699,0 7.36394,3.29695 7.36394,7.36394c0,4.06699 -3.29695,7.36394 -7.36394,7.36394c-4.06699,0 -7.36394,-3.29695 -7.36394,-7.36394z" fill="#9966ff" stroke="#000000" stroke-width="2.5"/><path d="M235.0774,179.26361c0,-4.06699 3.29695,-7.36394 7.36394,-7.36394c4.06699,0 7.36394,3.29695 7.36394,7.36394c0,4.06699 -3.29695,7.36394 -7.36394,7.36394c-4.06699,0 -7.36394,-3.29695 -7.36394,-7.36394z" fill="#26ff00" stroke="none" stroke-width="0"/><text transform="translate(238.52317,184.56164) scale(0.39537,0.39537)" font-size="40" xml:space="preserve" fill="#106900" fill-rule="nonzero" stroke="none" stroke-width="1" stroke-linecap="butt" stroke-linejoin="miter" stroke-miterlimit="10" stroke-dasharray="" stroke-dashoffset="0" font-family="&quot;Title Card-Numbers&quot;, Sans Serif" font-weight="normal" text-anchor="start" style="mix-blend-mode: normal"><tspan x="0" dy="0">F</tspan></text></g></g></svg>