<svg version="1.1" xmlns="http://www.w3.org/2000/svg" xmlns:xlink="http://www.w3.org/1999/xlink" width="10.93511" height="45.42003" viewBox="0,0,10.93511,45.42003"><g transform="translate(-234.24662,-142.64894)"><g data-paper-data="{&quot;isPaintingLayer&quot;:true}" fill-rule="nonzero" stroke="none" stroke-linecap="butt" stroke-linejoin="miter" stroke-miterlimit="10" stroke-dasharray="" stroke-dashoffset="0" style="mix-blend-mode: normal"><path d="M244.42035,165.26055v22.80842h-8.65808v-22.80842z" data-paper-data="{&quot;index&quot;:null}" fill="#000000" stroke-width="0"/><path d="M244.08152,165.53589v22.25775h-7.95504v-22.25775z" data-paper-data="{&quot;index&quot;:null}" fill="#ffffff" stroke-width="0"/><path d="M243.41141,166.05604v21.89378h-6.62688v-21.89378z" data-paper-data="{&quot;index&quot;:null}" fill="#a0a0a0" stroke-width="0"/><path d="M242.53555,166.78965v20.91844h-4.7537v-20.91844z" data-paper-data="{&quot;index&quot;:null}" fill="#000000" stroke-width="0"/><path d="M242.29525,167.01362v21.02386h-4.1818v-21.02386z" data-paper-data="{&quot;index&quot;:null}" fill="#ffffff" stroke-width="0"/><path d="M234.24662,164.10826c0,-1.92809 0.46035,-3.4911 1.02822,-3.4911c0.56787,0 1.02822,1.56301 1.02822,3.4911c0,1.92809 -0.46035,3.49111 -1.02822,3.49111c-0.56787,0 -1.02822,-1.56302 -1.02822,-3.49111z" fill="#000000" stroke-width="0"/><path d="M243.12529,164.10826c0,-1.92809 0.46035,-3.4911 1.02822,-3.4911c0.56787,0 1.02822,1.56301 1.02822,3.4911c0,1.92809 -0.46035,3.49111 -1.02822,3.49111c-0.56787,0 -1.02822,-1.56302 -1.02822,-3.49111z" fill="#000000" stroke-width="0"/><path d="M235.31227,167.59937v-24.0876h8.85995v24.0876z" fill="#000000" stroke-width="0"/><path d="M235.28082,143.51176c0.56787,0 1.02822,1.56302 1.02822,3.49111c0,1.92809 -0.46035,3.4911 -1.02822,3.4911c-0.56787,0 -1.02822,-1.56301 -1.02822,-3.4911c0,-1.92809 0.46035,-3.49111 1.02822,-3.49111z" data-paper-data="{&quot;index&quot;:null}" fill="#000000" stroke-width="0"/><path d="M244.14078,143.51176c0.56787,0 1.02822,1.56302 1.02822,3.49111c0,1.92809 -0.46035,3.4911 -1.02822,3.4911c-0.56787,0 -1.02822,-1.56301 -1.02822,-3.4911c0,-1.92809 0.46035,-3.49111 1.02822,-3.49111z" data-paper-data="{&quot;index&quot;:null}" fill="#000000" stroke-width="0"/><path d="M245.16899,147.10266v16.90581h-10.91639v-16.90581z" data-paper-data="{&quot;index&quot;:null}" fill="#000000" stroke-width="0"/><path d="M234.43102,163.82968c0,-1.86528 0.44535,-3.37738 0.99472,-3.37738c0.54937,0 0.99473,1.5121 0.99473,3.37738c0,1.86528 -0.44535,3.37739 -0.99473,3.37739c-0.54937,0 -0.99472,-1.5121 -0.99472,-3.37739z" fill="#ffffff" stroke-width="0"/><path d="M243.02049,163.82968c0,-1.86528 0.44535,-3.37738 0.99473,-3.37738c0.54937,0 0.99473,1.5121 0.99473,3.37738c0,1.86528 -0.44535,3.37739 -0.99473,3.37739c-0.54937,0 -0.99473,-1.5121 -0.99473,-3.37739z" fill="#ffffff" stroke-width="0"/><path d="M235.46196,167.20707v-23.303h8.57136v23.303z" fill="#ffffff" stroke-width="0"/><path d="M235.43154,143.90407c0.54937,0 0.99473,1.5121 0.99473,3.37739c0,1.86528 -0.44535,3.37739 -0.99473,3.37739c-0.54937,0 -0.99473,-1.5121 -0.99473,-3.37739c0,-1.86528 0.44535,-3.37739 0.99473,-3.37739z" data-paper-data="{&quot;index&quot;:null}" fill="#ffffff" stroke-width="0"/><path d="M244.0029,143.90407c0.54937,0 0.99473,1.5121 0.99473,3.37739c0,1.86528 -0.44535,3.37739 -0.99473,3.37739c-0.54937,0 -0.99473,-1.5121 -0.99473,-3.37739c0,-1.86528 0.44535,-3.37739 0.99473,-3.37739z" data-paper-data="{&quot;index&quot;:null}" fill="#ffffff" stroke-width="0"/><path d="M244.99762,147.378v16.35514h-10.56081v-16.35514z" data-paper-data="{&quot;index&quot;:null}" fill="#ffffff" stroke-width="0"/><path d="M234.76421,163.30337c0,-1.74663 0.41702,-3.16255 0.93145,-3.16255c0.51443,0 0.93145,1.41592 0.93145,3.16255c0,1.74663 -0.41702,3.16256 -0.93145,3.16256c-0.51443,0 -0.93145,-1.41593 -0.93145,-3.16256z" fill="#a0a0a0" stroke-width="0"/><path d="M242.80732,163.30337c0,-1.74663 0.41702,-3.16255 0.93145,-3.16255c0.51443,0 0.93145,1.41592 0.93145,3.16255c0,1.74663 -0.41702,3.16256 -0.93145,3.16256c-0.51443,0 -0.93145,-1.41593 -0.93145,-3.16256z" fill="#a0a0a0" stroke-width="0"/><path d="M235.72958,166.46594v-21.82075h8.02615v21.82075z" fill="#a0a0a0" stroke-width="0"/><path d="M235.70109,144.64519c0.51443,0 0.93145,1.41592 0.93145,3.16256c0,1.74663 -0.41702,3.16255 -0.93145,3.16255c-0.51443,0 -0.93145,-1.41592 -0.93145,-3.16255c0,-1.74663 0.41703,-3.16256 0.93145,-3.16256z" data-paper-data="{&quot;index&quot;:null}" fill="#a0a0a0" stroke-width="0"/><path d="M243.72724,144.64519c0.51443,0 0.93145,1.41592 0.93145,3.16256c0,1.74663 -0.41702,3.16255 -0.93145,3.16255c-0.51443,0 -0.93145,-1.41592 -0.93145,-3.16255c0,-1.74663 0.41702,-3.16256 0.93145,-3.16256z" data-paper-data="{&quot;index&quot;:null}" fill="#a0a0a0" stroke-width="0"/><path d="M244.6587,147.89815v15.31483h-9.88906v-15.31483z" data-paper-data="{&quot;index&quot;:null}" fill="#a0a0a0" stroke-width="0"/><path d="M235.26915,162.56111c0,-1.5793 0.37707,-2.85957 0.84221,-2.85957c0.46514,0 0.84221,1.28027 0.84221,2.85957c0,1.5793 -0.37707,2.85958 -0.84221,2.85958c-0.46514,0 -0.84221,-1.28028 -0.84221,-2.85958z" fill="#000000" stroke-width="0"/><path d="M242.5417,162.56111c0,-1.5793 0.37707,-2.85957 0.84221,-2.85957c0.46514,0 0.84221,1.28027 0.84221,2.85957c0,1.5793 -0.37707,2.85958 -0.84221,2.85958c-0.46514,0 -0.84221,-1.28028 -0.84221,-2.85958z" fill="#000000" stroke-width="0"/><path d="M236.14203,165.42069v-19.73024h7.25722v19.73024z" fill="#000000" stroke-width="0"/><path d="M236.11628,145.69045c0.46514,0 0.84221,1.28028 0.84221,2.85958c0,1.5793 -0.37707,2.85957 -0.84221,2.85957c-0.46514,0 -0.84222,-1.28027 -0.84222,-2.85957c0,-1.5793 0.37707,-2.85958 0.84222,-2.85958z" data-paper-data="{&quot;index&quot;:null}" fill="#000000" stroke-width="0"/><path d="M243.37349,145.69045c0.46514,0 0.84222,1.28028 0.84222,2.85958c0,1.5793 -0.37707,2.85957 -0.84222,2.85957c-0.46514,0 -0.84221,-1.28027 -0.84221,-2.85957c0,-1.5793 0.37707,-2.85958 0.84221,-2.85958z" data-paper-data="{&quot;index&quot;:null}" fill="#000000" stroke-width="0"/><path d="M244.21571,148.63176v13.84761h-8.94165v-13.84761z" data-paper-data="{&quot;index&quot;:null}" fill="#000000" stroke-width="0"/><path d="M235.43702,162.33449c0,-1.52821 0.36488,-2.76707 0.81497,-2.76707c0.4501,0 0.81497,1.23886 0.81497,2.76707c0,1.52821 -0.36488,2.76707 -0.81497,2.76707c-0.4501,0 -0.81497,-1.23886 -0.81497,-2.76707z" fill="#ff0000" stroke-width="0"/><path d="M242.47432,162.33449c0,-1.52821 0.36488,-2.76707 0.81497,-2.76707c0.4501,0 0.81497,1.23886 0.81497,2.76707c0,1.52821 -0.36488,2.76707 -0.81497,2.76707c-0.4501,0 -0.81497,-1.23886 -0.81497,-2.76707z" fill="#ff0000" stroke-width="0"/><path d="M236.28167,165.10157v-19.092h7.02246v19.092z" fill="#ff0000" stroke-width="0"/><path d="M236.25674,146.00957c0.4501,0 0.81497,1.23887 0.81497,2.76708c0,1.52821 -0.36488,2.76707 -0.81497,2.76707c-0.4501,0 -0.81497,-1.23886 -0.81497,-2.76707c0,-1.52821 0.36488,-2.76708 0.81497,-2.76708z" data-paper-data="{&quot;index&quot;:null}" fill="#ff0000" stroke-width="0"/><path d="M243.2792,146.00957c0.4501,0 0.81497,1.23887 0.81497,2.76708c0,1.52821 -0.36488,2.76707 -0.81497,2.76707c-0.4501,0 -0.81497,-1.23886 -0.81497,-2.76707c0,-1.52821 0.36488,-2.76708 0.81497,-2.76708z" data-paper-data="{&quot;index&quot;:null}" fill="#ff0000" stroke-width="0"/><path d="M244.09417,148.85574v13.39966h-8.6524v-13.39966z" data-paper-data="{&quot;index&quot;:null}" fill="#ff0000" stroke-width="0"/><text transform="translate(238.5903,162.69894) scale(0.14726,0.5)" font-size="40" xml:space="preserve" fill="#ecff00" fill-rule="nonzero" stroke="none" stroke-width="1" stroke-linecap="butt" stroke-linejoin="miter" stroke-miterlimit="10" stroke-dasharray="" stroke-dashoffset="0" font-family="&quot;Title Card-Numbers&quot;, Sans Serif" font-weight="normal" text-anchor="start" style="mix-blend-mode: normal"><tspan x="0" dy="0">?</tspan></text></g></g></svg>