<svg version="1.1" xmlns="http://www.w3.org/2000/svg" xmlns:xlink="http://www.w3.org/1999/xlink" width="175.6559" height="154.07481" viewBox="0,0,175.6559,154.07481"><g transform="translate(-152.17205,-102.96259)"><g data-paper-data="{&quot;isPaintingLayer&quot;:true}" fill-rule="nonzero" stroke-linecap="butt" stroke-linejoin="miter" stroke-miterlimit="10" stroke-dasharray="" stroke-dashoffset="0" style="mix-blend-mode: normal"><path d="M153.17205,251.62378c0,-22.55253 0,-124.47479 0,-140.27122c0,-4.01847 2.60718,-7.38997 5.86448,-7.38997c14.22133,0 136.94134,0 162.12393,0c3.6174,0 5.66748,2.58569 5.66748,4.74086c0,12.86518 0,112.83364 0,140.34584c0,4.43582 -2.6875,6.98811 -6.02716,6.98811c-14.61523,0 -140.25487,0 -163.17163,0c-2.86079,0 -4.4571,-1.58057 -4.4571,-4.41363z" fill="#ffffff" stroke="#000000" stroke-width="2"/><path d="" fill="#000000" stroke="#000000" stroke-width="0"/><path d="" fill="#ffffff" stroke="#000000" stroke-width="0"/><path d="M270.79528,206.77762c0,-12.06143 9.77772,-21.83915 21.83915,-21.83915c12.06143,0 21.83915,9.77772 21.83915,21.83915c0,12.06143 -9.77772,21.83915 -21.83915,21.83915c-12.06143,0 -21.83915,-9.77772 -21.83915,-21.83915z" fill="#585858" stroke="none" stroke-width="0"/><text transform="translate(193.05542,133.98239) scale(0.76914,0.76914)" font-size="40" xml:space="preserve" fill="#808080" fill-rule="nonzero" stroke="none" stroke-width="1" stroke-linecap="butt" stroke-linejoin="miter" stroke-miterlimit="10" stroke-dasharray="" stroke-dashoffset="0" font-family="&quot;New Title Cards&quot;, Sans Serif" font-weight="normal" text-anchor="start" style="mix-blend-mode: normal"><tspan x="0" dy="0">Pause</tspan></text><path d="M162.24318,205.98759c0,-12.06143 9.77772,-21.83915 21.83915,-21.83915c12.06143,0 21.83915,9.77772 21.83915,21.83915c0,12.06143 -9.77772,21.83915 -21.83915,21.83915c-12.06143,0 -21.83915,-9.77772 -21.83915,-21.83915z" fill="#585858" stroke="none" stroke-width="0"/><path d="M162.24318,205.98759c0,-12.06143 9.77772,-21.83915 21.83915,-21.83915c12.06143,0 21.83915,9.77772 21.83915,21.83915c0,12.06143 -9.77772,21.83915 -21.83915,21.83915c-12.06143,0 -21.83915,-9.77772 -21.83915,-21.83915z" fill="#585858" stroke="none" stroke-width="0"/><path d="M215.35505,205.98759c0,-12.06143 9.77772,-21.83915 21.83915,-21.83915c12.06143,0 21.83915,9.77772 21.83915,21.83915c0,12.06143 -9.77772,21.83915 -21.83915,21.83915c-12.06143,0 -21.83915,-9.77772 -21.83915,-21.83915z" fill="#585858" stroke="none" stroke-width="0"/><path d="M163.65855,205.98759c0,-11.27975 9.14404,-20.42379 20.42379,-20.42379c11.27975,0 20.42379,9.14404 20.42379,20.42379c0,11.27975 -9.14404,20.42379 -20.42379,20.42379c-11.27975,0 -20.42379,-9.14404 -20.42379,-20.42379z" fill="#808080" stroke="none" stroke-width="0"/><path d="M163.65855,205.98759c0,-11.27975 9.14404,-20.42379 20.42379,-20.42379c11.27975,0 20.42379,9.14404 20.42379,20.42379c0,11.27975 -9.14404,20.42379 -20.42379,20.42379c-11.27975,0 -20.42379,-9.14404 -20.42379,-20.42379z" fill="#808080" stroke="none" stroke-width="0"/><path d="M216.77042,205.98759c0,-11.27974 9.14404,-20.42379 20.42378,-20.42379c11.27975,0 20.42379,9.14404 20.42379,20.42379c0,11.27974 -9.14404,20.42378 -20.42379,20.42378c-11.27975,0 -20.42378,-9.14404 -20.42378,-20.42378z" fill="#808080" stroke="none" stroke-width="0"/><path d="M272.21064,206.77762c0,-11.27974 9.14404,-20.42379 20.42379,-20.42379c11.27974,0 20.42379,9.14404 20.42379,20.42379c0,11.27974 -9.14404,20.42378 -20.42379,20.42378c-11.27974,0 -20.42379,-9.14404 -20.42379,-20.42378z" fill="#808080" stroke="none" stroke-width="0"/><path d="M232.40537,220.79582v-30.37854l15.18927,15.18927z" fill="#585858" stroke="none" stroke-width="0"/><path d="M168.89307,205.98759c0,-8.3888 6.80047,-15.18927 15.18927,-15.18927c8.3888,0 15.18927,6.80047 15.18927,15.18927c0,8.3888 -6.80047,15.18927 -15.18927,15.18927c-8.3888,0 -15.18927,-6.80047 -15.18927,-15.18927z" fill="#585858" stroke="none" stroke-width="0"/><path d="M170.48156,205.98759c0,-7.5115 6.08927,-13.60077 13.60077,-13.60077c7.5115,0 13.60077,6.08927 13.60077,13.60077c0,7.5115 -6.08927,13.60078 -13.60077,13.60078c-7.5115,0 -13.60077,-6.08928 -13.60077,-13.60078z" fill="#808080" stroke="none" stroke-width="0"/><path d="M182.65648,209.15356v-21.71772l13.90464,6.75368l7.15096,14.96404z" fill="#808080" stroke="none" stroke-width="0"/><path d="M182.517,198.15072v-11.52779l5.7639,5.7639z" fill="#585858" stroke="none" stroke-width="0"/><path d="M277.44516,206.77762c0,-8.3888 6.80046,-15.18927 15.18926,-15.18927c8.3888,0 15.18926,6.80047 15.18926,15.18927c0,8.3888 -6.80046,15.18927 -15.18926,15.18927c-8.3888,0 -15.18926,-6.80047 -15.18926,-15.18927z" fill="#585858" stroke="none" stroke-width="0"/><path d="M279.03366,206.77762c0,-7.5115 6.08927,-13.60077 13.60077,-13.60077c7.5115,0 13.60077,6.08927 13.60077,13.60077c0,7.5115 -6.08927,13.60077 -13.60077,13.60077c-7.5115,0 -13.60077,-6.08927 -13.60077,-13.60077z" fill="#808080" stroke="none" stroke-width="0"/><path d="M286.63116,201.10421v-13.59565h11.96241v13.59565z" fill="#808080" stroke="none" stroke-width="0"/><path d="M291.37639,205.60656v-17.89936h2.47194v17.89936z" fill="#585858" stroke="none" stroke-width="0"/></g></g></svg>