<svg version="1.1" xmlns="http://www.w3.org/2000/svg" xmlns:xlink="http://www.w3.org/1999/xlink" width="169.62503" height="57.12219" viewBox="0,0,169.62503,57.12219"><g transform="translate(-180.21903,-133.96491)"><g data-paper-data="{&quot;isPaintingLayer&quot;:true}" fill-rule="nonzero" stroke-linecap="butt" stroke-linejoin="miter" stroke-miterlimit="10" stroke-dasharray="" stroke-dashoffset="0" style="mix-blend-mode: normal"><path d="M200.01865,160.02413c0.21818,1.67502 -1.10392,3.03257 -1.2553,4.48893c-0.1602,1.54125 1.46211,2.06985 0.06001,3.93932c-0.50389,0.67185 -1.48112,0.88123 -2.3125,1c-3.97484,0.56783 -2.68745,-6.48126 -1.43153,-9.60857c0.08695,-0.40403 0.27154,-0.77177 0.52787,-1.07731c0.4586,-0.54666 1.1468,-0.8942 1.91617,-0.8942c1.15503,0 2.12712,0.78329 2.41404,1.84766c0.03937,0.09477 0.06713,0.19579 0.08124,0.30416z" fill="#000000" stroke="none" stroke-width="0.5"/><text transform="translate(183.70209,177.57282) scale(0.99516,0.99516)" font-size="40" xml:space="preserve" fill="#ffffff" fill-rule="nonzero" stroke="#000000" stroke-width="7" stroke-linecap="butt" stroke-linejoin="miter" stroke-miterlimit="10" stroke-dasharray="" stroke-dashoffset="0" font-family="&quot;Title Card-Numbers&quot;, Sans Serif" font-weight="normal" text-anchor="start" style="mix-blend-mode: normal"><tspan x="0" dy="0">ClockWork</tspan></text><text transform="translate(183.70209,177.57282) scale(0.99516,0.99516)" font-size="40" xml:space="preserve" fill="#ffffff" fill-rule="nonzero" stroke="none" stroke-width="1" stroke-linecap="butt" stroke-linejoin="miter" stroke-miterlimit="10" stroke-dasharray="" stroke-dashoffset="0" font-family="&quot;Title Card-Numbers&quot;, Sans Serif" font-weight="normal" text-anchor="start" style="mix-blend-mode: normal"><tspan x="0" dy="0">ClockWork</tspan></text></g></g></svg>