<svg version="1.1" xmlns="http://www.w3.org/2000/svg" xmlns:xlink="http://www.w3.org/1999/xlink" width="179.97588" height="348.77593" viewBox="0,0,179.97588,348.77593"><g transform="translate(-147.76206,-3.99215)"><g data-paper-data="{&quot;isPaintingLayer&quot;:true}" fill-rule="nonzero" stroke-linecap="butt" stroke-linejoin="miter" stroke-miterlimit="10" stroke-dasharray="" stroke-dashoffset="0" style="mix-blend-mode: normal"><path d="M152.26206,345.09672c0,-56.71431 0,-267.68097 0,-328.15949c0,-6.99947 10.00038,-10.56899 13.46206,-7.10732c30.11719,30.11719 151.39264,150.52701 157.32916,157.4013c4.09058,4.73675 8.59538,12.60771 -1.16214,22.36523c-31.04336,31.04335 -159.9387,159.93869 -159.98966,159.98966c-3.78218,3.78219 -9.63942,1.82412 -9.63942,-4.48938z" fill="#4cff00" stroke="#000000" stroke-width="9"/><path d="M152.26206,345.09672c0,-56.71431 0,-267.68097 0,-328.15949c0,-6.99947 10.00038,-10.56899 13.46206,-7.10732c30.11719,30.11719 151.39264,150.52701 157.32916,157.4013c4.09058,4.73675 8.59538,12.60771 -1.16214,22.36523c-31.04336,31.04335 -159.9387,159.93869 -159.98966,159.98966c-3.78218,3.78219 -9.63942,1.82412 -9.63942,-4.48938z" fill="#257b00" stroke="none" stroke-width="0"/><path d="M311.47911,192.62492c0,-2.24043 0,-22.85865 0,-25.0943c0,-0.53525 0.76472,-0.80821 1.02944,-0.5435c2.30305,2.30306 11.57697,11.51078 12.03094,12.03645c0.31281,0.36222 0.65729,0.96411 -0.08887,1.71026c-2.37388,2.37388 -12.23048,12.23049 -12.23438,12.23438c-0.28922,0.28922 -0.73713,0.1395 -0.73713,-0.3433z" fill="#4dff00" stroke="none" stroke-width="0"/><g data-paper-data="{&quot;index&quot;:null}" fill="#4dff00" stroke="none" stroke-width="0"><path d="M154.75101,309.72257c0,-1.28299 1.21694,-2.85934 2.09964,-2.85934c0.91641,0 2.98128,0 4.45889,0c0.95216,0 1.66047,1.04619 1.66047,2.00609c0,2.44079 0,12.97075 0,12.97075h-8.219c0,0 0,-9.47633 0,-12.11751z"/><path d="M162.97001,321.84006v8.219c0,0 -5.65893,0 -7.02585,0c-0.5633,0 -1.19315,-0.5708 -1.19315,-1.09534c0,-1.33769 0,-7.12366 0,-7.12366z"/><path d="M177.9438,323.94267c0,0.91641 0,2.98128 0,4.45889c0,0.95217 -1.0462,1.66048 -2.00609,1.66048c-2.44079,0 -12.97075,0 -12.97075,0v-8.219c0,0 9.47632,0 12.1175,0c1.28299,0 2.85934,1.21692 2.85934,2.09963z"/><path d="M162.97001,318.98596v3.90725h-8.219v-3.90725z"/><path d="M164.45016,321.84006v8.219h-1.99219v-8.219z"/><path d="M162.91326,316.91338c0,0 0.4216,1.77694 1.6367,3.11495c1.60302,1.76517 3.37292,1.89467 3.37292,1.89467c0,0 0.82552,4.27537 -0.36638,4.60407c-1.33321,0.36767 -7.25653,-2.50182 -7.25653,-2.50182c0,0 -1.19631,-3.80072 -1.19631,-4.70488c0,-0.72656 3.8096,-2.40698 3.8096,-2.40698z"/></g><g fill="#4dff00" stroke="none" stroke-width="0"><path d="M155.81569,45.4338c0,-2.64118 0,-12.11751 0,-12.11751h8.219c0,0 0,10.52996 0,12.97075c0,0.9599 -0.70831,2.00609 -1.66047,2.00609c-1.47761,0 -3.54248,0 -4.45889,0c-0.8827,0 -2.09964,-1.57635 -2.09964,-2.85934z"/><path d="M155.81569,33.3163c0,0 0,-5.78597 0,-7.12366c0,-0.52454 0.62985,-1.09534 1.19315,-1.09534c1.36692,0 7.02585,0 7.02585,0v8.219z"/><path d="M176.14914,33.31332c-2.64118,0 -12.1175,0 -12.1175,0v-8.219c0,0 10.52996,0 12.97075,0c0.95989,0 2.00609,0.70831 2.00609,1.66048c0,1.47761 0,3.54248 0,4.45889c0,0.88271 -1.57635,2.09963 -2.85934,2.09963z"/><path d="M155.81569,36.1704v-3.90725h8.219v3.90725z"/><path d="M163.52265,33.3163v-8.219h1.99219v8.219z"/><path d="M163.97794,38.24297c0,0 -3.8096,-1.68042 -3.8096,-2.40698c0,-0.90416 1.19631,-4.70488 1.19631,-4.70488c0,0 5.92332,-2.86949 7.25653,-2.50182c1.1919,0.3287 0.36638,4.60407 0.36638,4.60407c0,0 -1.7699,0.1295 -3.37292,1.89467c-1.2151,1.33801 -1.6367,3.11495 -1.6367,3.11495z"/></g></g></g></svg>