<svg version="1.1" xmlns="http://www.w3.org/2000/svg" xmlns:xlink="http://www.w3.org/1999/xlink" width="15.19112" height="15.19112" viewBox="0,0,15.19112,15.19112"><g transform="translate(-232.90444,-172.40444)"><g data-paper-data="{&quot;isPaintingLayer&quot;:true}" fill-rule="nonzero" stroke-linecap="butt" stroke-linejoin="miter" stroke-miterlimit="10" stroke-dasharray="" stroke-dashoffset="0" style="mix-blend-mode: normal"><path d="M233.90444,180c0,-3.64263 2.95293,-6.59556 6.59556,-6.59556c3.64263,0 6.59556,2.95293 6.59556,6.59556c0,3.64263 -2.95293,6.59556 -6.59556,6.59556c-3.64263,0 -6.59556,-2.95293 -6.59556,-6.59556z" fill="#106900" stroke="#000000" stroke-width="2"/><path d="M233.90445,180c0,-3.64263 2.95293,-6.59555 6.59555,-6.59555c3.64263,0 6.59555,2.95293 6.59555,6.59555c0,3.64263 -2.95293,6.59555 -6.59555,6.59555c-3.64263,0 -6.59555,-2.95293 -6.59555,-6.59555z" fill="#ae8741" stroke="#000000" stroke-width="0"/><path d="M236.66807,178.06404l3.83193,-3.83193l3.83193,3.83193z" fill="#ffffff" stroke="none" stroke-width="0"/><path d="M239.83621,185.4093v-7.81318h1.32759v7.81318z" fill="#ffffff" stroke="none" stroke-width="0"/></g></g></svg>