<svg version="1.1" xmlns="http://www.w3.org/2000/svg" xmlns:xlink="http://www.w3.org/1999/xlink" width="26.19112" height="15.19112" viewBox="0,0,26.19112,15.19112"><g transform="translate(-221.90444,-172.40444)"><g data-paper-data="{&quot;isPaintingLayer&quot;:true}" fill-rule="nonzero" stroke-linecap="butt" stroke-linejoin="miter" stroke-miterlimit="10" stroke-dasharray="" stroke-dashoffset="0" style="mix-blend-mode: normal"><path d="M222.90444,180c0,-3.64263 5.41536,-6.59556 12.09556,-6.59556c6.6802,0 12.09556,2.95293 12.09556,6.59556c0,3.64263 -5.41536,6.59556 -12.09556,6.59556c-6.6802,0 -12.09556,-2.95293 -12.09556,-6.59556z" fill="#106900" stroke="#000000" stroke-width="2"/><path d="M222.90446,180c0,-3.64263 5.41536,-6.59555 12.09554,-6.59555c6.6802,0 12.09554,2.95293 12.09554,6.59555c0,3.64263 -5.41536,6.59555 -12.09554,6.59555c-6.6802,0 -12.09554,-2.95293 -12.09554,-6.59555z" fill="#ae8741" stroke="#000000" stroke-width="0"/><path d="M227.97265,178.06404l7.02735,-3.83193l7.02735,3.83193z" fill="#ffffff" stroke="none" stroke-width="0"/><path d="M233.78268,185.4093v-7.81318h2.43466v7.81318z" fill="#ffffff" stroke="none" stroke-width="0"/></g></g></svg>