<svg version="1.1" xmlns="http://www.w3.org/2000/svg" xmlns:xlink="http://www.w3.org/1999/xlink" width="528.313" height="399.81452" viewBox="0,0,528.313,399.81452"><g transform="translate(-83.00146,-8.42366)"><g data-paper-data="{&quot;isPaintingLayer&quot;:true}" fill-rule="nonzero" stroke-linecap="butt" stroke-linejoin="miter" stroke-miterlimit="10" stroke-dasharray="" stroke-dashoffset="0" style="mix-blend-mode: normal"><g data-paper-data="{&quot;isHelperItem&quot;:true}"><path d="M435.83858,401.82704c0,-56.71431 0,-267.68097 0,-328.15949c0,-6.99947 10.00038,-10.56899 13.46206,-7.10732c30.11719,30.11719 151.39263,150.52701 157.32916,157.4013c4.09058,4.73675 8.59538,12.60771 -1.16214,22.36523c-31.04336,31.04335 -159.9387,159.93869 -159.98966,159.98966c-3.78218,3.78219 -9.63942,1.82412 -9.63942,-4.48938z" fill="#4cff00" stroke="none" stroke-width="0"/><g data-paper-data="{&quot;isSelectionBound&quot;:true,&quot;isHelperItem&quot;:true}" fill="none" stroke="#009dec" stroke-width="0.13696"><path d="M232.26206,351.50786v-171.50786v-171.50786h87.73794h87.73794v171.50786v171.50786h-87.73794z"/><path d="M319.86304,180.68479v-0.54783h-0.54783c-0.07564,0 -0.13696,-0.06132 -0.13696,-0.13696c0,-0.07564 0.06132,-0.13696 0.13696,-0.13696h0.54783v-0.54783c0,-0.07564 0.06132,-0.13696 0.13696,-0.13696c0.07564,0 0.13696,0.06132 0.13696,0.13696v0.54783h0.54783c0.07564,0 0.13696,0.06132 0.13696,0.13696c0,0.07564 -0.06132,0.13696 -0.13696,0.13696h-0.54783v0.54783c0,0.07564 -0.06132,0.13696 -0.13696,0.13696c-0.07564,0 -0.13696,-0.06132 -0.13696,-0.13696z"/></g></g><text transform="translate(83.1388,355.24853) scale(0.27468,0.27468)" font-size="40" xml:space="preserve" fill="#ffffff" fill-rule="nonzero" stroke="none" stroke-width="1" stroke-linecap="butt" stroke-linejoin="miter" stroke-miterlimit="10" stroke-dasharray="" stroke-dashoffset="0" font-family="&quot;Title_Cards&quot;, Sans Serif" font-weight="normal" text-anchor="start" style="mix-blend-mode: normal"><tspan x="0" dy="0">(C)Benno111 2024</tspan></text><text transform="translate(535.31426,356.19961) scale(0.27468,0.27468)" font-size="40" xml:space="preserve" fill="#ffffff" fill-rule="nonzero" stroke="none" stroke-width="1" stroke-linecap="butt" stroke-linejoin="miter" stroke-miterlimit="10" stroke-dasharray="" stroke-dashoffset="0" font-family="&quot;Title_Cards&quot;, Sans Serif" font-weight="normal" text-anchor="start" style="mix-blend-mode: normal"><tspan x="0" dy="0">2.0.0</tspan></text><text transform="translate(117.21066,344.12079) scale(1.77186,1.77186)" font-size="40" xml:space="preserve" fill="#ffffff" fill-rule="nonzero" stroke="none" stroke-width="1" stroke-linecap="butt" stroke-linejoin="miter" stroke-miterlimit="10" stroke-dasharray="" stroke-dashoffset="0" font-family="&quot;Title_Cards&quot;, Sans Serif" font-weight="normal" text-anchor="start" style="mix-blend-mode: normal"><tspan x="0" dy="0">PRIVATE DEMO</tspan></text></g></g></svg>