<svg version="1.1" xmlns="http://www.w3.org/2000/svg" xmlns:xlink="http://www.w3.org/1999/xlink" width="481.6543" height="278.08786" viewBox="0,0,481.6543,278.08786"><g transform="translate(0.8312,68.78571)"><g data-paper-data="{&quot;isPaintingLayer&quot;:true}" fill-rule="nonzero" stroke="none" stroke-linecap="butt" stroke-linejoin="miter" stroke-miterlimit="10" stroke-dasharray="" stroke-dashoffset="0" style="mix-blend-mode: normal"><path d="M0,169.47197v-238.25768h480v238.25769z" fill="#ff00b0" stroke-width="0"/><path d="M-0.8312,100.47661l6.94851,-6.9485l57.49532,57.49532l-57.49532,57.49533l-5.79643,-5.79644z" fill="#ff00b0" stroke-width="0"/><path d="M11.99372,151.02343l57.49533,-57.49532l57.49532,57.49532l-57.49532,57.49532z" fill="#ff00b0" stroke-width="0"/><path d="M77.2779,151.02343l57.49533,-57.49532l57.49532,57.49532l-57.49532,57.49532z" fill="#ff00b0" stroke-width="0"/><path d="M140.64963,151.02343l57.49533,-57.49532l57.49532,57.49532l-57.49532,57.49532z" fill="#ff00b0" stroke-width="0"/><path d="M202.86161,151.02343l57.49533,-57.49532l57.49532,57.49532l-57.49532,57.49532z" fill="#ff00b0" stroke-width="0"/><path d="M266.23335,151.02343l57.49533,-57.49532l57.49532,57.49532l-57.49532,57.49532z" fill="#ff00b0" stroke-width="0"/><path d="M323.72867,151.80683l57.49532,-57.49533l57.49532,57.49533l-57.49532,57.49532z" fill="#ff00b0" stroke-width="0"/><path d="M389.12121,147.96659l57.49532,-57.49533l34.20657,34.20658l-0.36866,46.94617l-33.83791,33.83791z" fill="#ff00b0" stroke-width="0"/><text transform="translate(284.13596,156.23152) scale(0.38351,0.38351)" font-size="40" xml:space="preserve" fill="#ffffff" fill-rule="nonzero" stroke="none" stroke-width="1" stroke-linecap="butt" stroke-linejoin="miter" stroke-miterlimit="10" stroke-dasharray="" stroke-dashoffset="0" font-family="Sans Serif" font-weight="normal" text-anchor="start" style="mix-blend-mode: normal"><tspan x="0" dy="0">Dorfplatformer Timetravel</tspan></text></g></g></svg>