<svg version="1.1" xmlns="http://www.w3.org/2000/svg" xmlns:xlink="http://www.w3.org/1999/xlink" width="480" height="419.83986" viewBox="0,0,480,419.83986"><g transform="translate(0,32.3184)"><g data-paper-data="{&quot;isPaintingLayer&quot;:true}" fill-rule="nonzero" stroke-linejoin="miter" stroke-miterlimit="10" stroke-dasharray="" stroke-dashoffset="0" style="mix-blend-mode: normal"><path d="M0,387.52146v-419.83986h480v419.83986z" fill="#0d00bf" stroke="#268000" stroke-width="0" stroke-linecap="butt"/><path d="M107.32693,78.98798l-32.22027,19.52744" fill="none" stroke="#040040" stroke-width="6" stroke-linecap="round"/><path d="M58.50834,136.59392l24.89748,-2.44093" fill="none" stroke="#040040" stroke-width="6" stroke-linecap="round"/><path d="M122.4607,171.7433l41.98399,-6.34642" fill="none" stroke="#040040" stroke-width="6" stroke-linecap="round"/><path d="M194.22402,135.12936l48.81859,-14.15739" fill="none" stroke="#040040" stroke-width="6" stroke-linecap="round"/><path d="M230.34978,196.1526l54.18863,-1.95274" fill="none" stroke="#040040" stroke-width="6" stroke-linecap="round"/><path d="M300.64855,232.27835l34.17301,-2.44093" fill="none" stroke="#040040" stroke-width="6" stroke-linecap="round"/><path d="M363.62452,209.33362l33.68483,-5.37004" fill="none" stroke="#040040" stroke-width="6" stroke-linecap="round"/><path d="M335.79793,180.53065l26.36204,-21.48018" fill="none" stroke="#040040" stroke-width="6" stroke-linecap="round"/><path d="M295.76669,121.46016l60.53505,-11.71646" fill="none" stroke="#040040" stroke-width="6" stroke-linecap="round"/><path d="M258.66456,90.21626l37.10213,-7.81097" fill="none" stroke="#040040" stroke-width="6" stroke-linecap="round"/><path d="M140.52357,96.56268l49.79496,-19.03925" fill="none" stroke="#040040" stroke-width="6" stroke-linecap="round"/><path d="M115.13791,131.71206l37.59031,0.48819" fill="none" stroke="#040040" stroke-width="6" stroke-linecap="round"/><path d="M58.99653,105.35002l47.35403,-2.44093" fill="none" stroke="#040040" stroke-width="6" stroke-linecap="round"/><path d="M52.65011,61.90148l33.68483,-17.57469" fill="none" stroke="#040040" stroke-width="6" stroke-linecap="round"/><path d="M124.90163,38.95674l32.70845,-2.92912" fill="none" stroke="#040040" stroke-width="6" stroke-linecap="round"/><path d="M45.81551,180.04246l38.56669,10.74009" fill="none" stroke="#040040" stroke-width="6" stroke-linecap="round"/><path d="M60.46109,247.41211l59.07049,2.92912" fill="none" stroke="#040040" stroke-width="6" stroke-linecap="round"/><path d="M134.17716,219.58552l63.46417,-4.39367" fill="none" stroke="#040040" stroke-width="6" stroke-linecap="round"/><path d="M97.56322,212.26273l23.43292,-16.11013" fill="none" stroke="#040040" stroke-width="6" stroke-linecap="round"/><path d="M52.65011,301.11256l36.12576,3.90549" fill="none" stroke="#040040" stroke-width="6" stroke-linecap="round"/><path d="M125.878,301.60075l92.26713,-16.11013" fill="none" stroke="#040040" stroke-width="6" stroke-linecap="round"/><path d="M142.47632,265.96318l75.66881,-12.20465" fill="none" stroke="#040040" stroke-width="6" stroke-linecap="round"/><path d="M231.81433,319.17544l29.77934,-17.57469" fill="none" stroke="#040040" stroke-width="6" stroke-linecap="round"/><path d="M255.24726,274.75052l33.19664,-15.13376" fill="none" stroke="#040040" stroke-width="6" stroke-linecap="round"/><path d="M247.43628,237.16021l35.63757,-4.39367" fill="none" stroke="#040040" stroke-width="6" stroke-linecap="round"/><path d="M286.00297,333.82102l90.80258,-3.90549" fill="none" stroke="#040040" stroke-width="6" stroke-linecap="round"/><path d="M343.6089,302.57712l30.26753,-5.85823" fill="none" stroke="#040040" stroke-width="6" stroke-linecap="round"/><path d="M398.77391,272.3096l33.68483,-12.69283" fill="none" stroke="#040040" stroke-width="6" stroke-linecap="round"/><path d="M436.36422,229.83742l15.13376,-13.18102" fill="none" stroke="#040040" stroke-width="6" stroke-linecap="round"/><path d="M413.90767,174.18423l35.14938,-13.6692" fill="none" stroke="#040040" stroke-width="6" stroke-linecap="round"/><path d="M406.0967,141.96396l41.00761,-20.99199" fill="none" stroke="#040040" stroke-width="6" stroke-linecap="round"/><path d="M381.19922,119.50741l46.37766,-26.85022" fill="none" stroke="#040040" stroke-width="6" stroke-linecap="round"/><path d="M341.65616,86.31077l86.4089,-17.57469" fill="none" stroke="#040040" stroke-width="6" stroke-linecap="round"/><path d="M241.08987,58.97236l23.92111,-16.59832" fill="none" stroke="#040040" stroke-width="6" stroke-linecap="round"/><path d="M304.55403,57.5078l27.8266,-20.01562" fill="none" stroke="#040040" stroke-width="6" stroke-linecap="round"/><path d="M368.50638,46.27953l27.33841,-11.71646" fill="none" stroke="#040040" stroke-width="6" stroke-linecap="round"/><path d="M411.46674,53.60232l35.63757,-20.01562" fill="none" stroke="#040040" stroke-width="6" stroke-linecap="round"/><path d="M447.10431,71.66519l19.03925,-16.11013" fill="none" stroke="#040040" stroke-width="6" stroke-linecap="round"/><path d="M456.86803,98.02723l17.08651,-17.08651" fill="none" stroke="#040040" stroke-width="6" stroke-linecap="round"/><path d="M413.41949,336.75013l35.63757,-5.37004" fill="none" stroke="#040040" stroke-width="6" stroke-linecap="round"/><path d="M423.1832,307.45898l20.99199,-10.2519" fill="none" stroke="#040040" stroke-width="6" stroke-linecap="round"/><path d="M453.93891,276.21508l11.22828,-6.8346" fill="none" stroke="#040040" stroke-width="6" stroke-linecap="round"/><path d="M447.10431,310.87628l22.94474,4.88186" fill="none" stroke="#040040" stroke-width="6" stroke-linecap="round"/><path d="M151.26366,337.7265l43.93673,-23.43292" fill="none" stroke="#040040" stroke-width="6" stroke-linecap="round"/><path d="M183.97212,344.56111l61.99961,0.48819" fill="none" stroke="#040040" stroke-width="6" stroke-linecap="round"/><path d="M71.68936,351.39571l35.14938,-27.33841" fill="none" stroke="#040040" stroke-width="6" stroke-linecap="round"/><path d="M110.25605,367.01766l16.11013,-28.31478" fill="none" stroke="#040040" stroke-width="6" stroke-linecap="round"/><path d="M17.01254,326.98641l31.2439,-1.46456" fill="none" stroke="#040040" stroke-width="6" stroke-linecap="round"/><path d="M25.79989,272.3096l39.05487,3.90549" fill="none" stroke="#040040" stroke-width="6" stroke-linecap="round"/><path d="M28.72901,224.95556l42.96036,-6.8346" fill="none" stroke="#040040" stroke-width="6" stroke-linecap="round"/><path d="M20.91803,157.58591l40.03124,0.48819" fill="none" stroke="#040040" stroke-width="6" stroke-linecap="round"/><path d="M18.96529,117.55467l38.0785,1.95274" fill="none" stroke="#040040" stroke-width="6" stroke-linecap="round"/><path d="M9.20157,80.45254l47.84222,0.48819" fill="none" stroke="#040040" stroke-width="6" stroke-linecap="round"/><path d="M17.50073,45.79134l38.0785,-6.8346" fill="none" stroke="#040040" stroke-width="6" stroke-linecap="round"/><path d="M179.09026,18.45293l34.6612,11.22828" fill="none" stroke="#040040" stroke-width="6" stroke-linecap="round"/><path d="M186.90123,50.6732l32.22027,7.81097" fill="none" stroke="#040040" stroke-width="6" stroke-linecap="round"/><path d="M191.78309,106.81458l30.26753,-13.18102" fill="none" stroke="#040040" stroke-width="6" stroke-linecap="round"/><path d="M237.67257,167.34963l49.30677,-4.39367" fill="none" stroke="#040040" stroke-width="6" stroke-linecap="round"/><path d="M466.14356,190.78255l-29.77934,-0.97637" fill="none" stroke="#040040" stroke-width="6" stroke-linecap="round"/><path d="M469.07268,239.60114l-28.31478,6.34642" fill="none" stroke="#040040" stroke-width="6" stroke-linecap="round"/><path d="M398.77391,236.18384l-49.30677,14.15739" fill="none" stroke="#040040" stroke-width="6" stroke-linecap="round"/><path d="M359.23085,267.91592l-32.22027,4.88186" fill="none" stroke="#040040" stroke-width="6" stroke-linecap="round"/><path d="M325.54603,303.55349l-20.99199,-5.37004" fill="none" stroke="#040040" stroke-width="6" stroke-linecap="round"/></g></g></svg>