<svg version="1.1" xmlns="http://www.w3.org/2000/svg" xmlns:xlink="http://www.w3.org/1999/xlink" width="448.92726" height="240.56962" viewBox="0,0,448.92726,240.56962"><g transform="translate(-17.09707,-110.66163)"><g data-paper-data="{&quot;isPaintingLayer&quot;:true}" fill-rule="nonzero" stroke="#000000" stroke-width="5.5" stroke-linejoin="miter" stroke-miterlimit="10" stroke-dasharray="" stroke-dashoffset="0" style="mix-blend-mode: normal"><path d="M54.80115,348.48125c-19.30461,0 -34.95408,-15.64947 -34.95408,-34.95407c0,-19.3046 15.64947,-34.95407 34.95408,-34.95407c19.30461,0 34.95407,15.64947 34.95407,34.95407c0,19.3046 -15.64947,34.95407 -34.95407,34.95407z" data-paper-data="{&quot;index&quot;:null}" fill="#9966ff" stroke-linecap="butt"/><path d="M81.44547,313.52717h-30.98934" data-paper-data="{&quot;index&quot;:null}" fill="none" stroke-linecap="round"/><path d="M47.76828,333.50427l-19.9771,-19.9771l19.9771,-19.9771z" data-paper-data="{&quot;index&quot;:null}" fill="none" stroke-linecap="butt"/><path d="M106.89043,313.52717c0,-19.3046 15.64947,-34.95407 34.95407,-34.95407c19.30461,0 34.95408,15.64947 34.95408,34.95407c0,19.3046 -15.64947,34.95407 -34.95408,34.95407c-19.3046,0 -34.95407,-15.64947 -34.95407,-34.95407z" data-paper-data="{&quot;index&quot;:null}" fill="#9966ff" stroke-linecap="butt"/><path d="M115.20018,313.52717h30.98934" data-paper-data="{&quot;index&quot;:null}" fill="none" stroke-linecap="round"/><path d="M148.87738,293.55007l19.9771,19.9771l-19.9771,19.9771z" data-paper-data="{&quot;index&quot;:null}" fill="none" stroke-linecap="butt"/><path d="M427.54627,278.5731c19.3046,0 34.95407,15.64947 34.95407,34.95407c0,19.30461 -15.64947,34.95407 -34.95407,34.95407c-19.3046,0 -34.95407,-15.64947 -34.95407,-34.95407c0,-19.3046 15.64947,-34.95407 34.95407,-34.95407z" data-paper-data="{&quot;index&quot;:null}" fill="#9966ff" stroke-linecap="butt"/><path d="M427.54627,316.32421v-30.98934" data-paper-data="{&quot;index&quot;:null}" fill="none" stroke-linecap="round"/><path d="M448.29736,319.78605l-19.9771,19.9771l-19.9771,-19.9771z" data-paper-data="{&quot;index&quot;:null}" fill="none" stroke-linecap="butt"/><path d="M393.36619,233.90385c0,-19.3046 15.64947,-34.95407 34.95407,-34.95407c19.3046,0 34.95407,15.64947 34.95407,34.95407c0,19.3046 -15.64947,34.95407 -34.95407,34.95407c-19.3046,0 -34.95407,-15.64947 -34.95407,-34.95407z" data-paper-data="{&quot;index&quot;:null}" fill="#9966ff" stroke-linecap="butt"/><path d="M428.32026,231.10681v30.98934" data-paper-data="{&quot;index&quot;:null}" fill="none" stroke-linecap="round"/><path d="M409.11713,227.64497l19.9771,-19.9771l19.9771,19.9771z" data-paper-data="{&quot;index&quot;:null}" fill="none" stroke-linecap="butt"/><path d="M318.5266,338.24343c-13.65042,-13.65042 -13.65042,-35.78211 0,-49.43253c13.65042,-13.65042 35.78211,-13.65042 49.43253,0c13.65042,13.65042 13.65042,35.78211 0,49.43253c-13.65042,13.65042 -35.78211,13.65042 -49.43253,0z" data-paper-data="{&quot;index&quot;:null}" fill="#9966ff" stroke-linecap="butt"/><path d="M324.40249,332.36755l21.91277,-21.91277" data-paper-data="{&quot;index&quot;:null}" fill="none" stroke-linecap="round"/><path d="M334.08991,294.42823h28.25189v28.25189z" data-paper-data="{&quot;index&quot;:null}" fill="none" stroke-linecap="butt"/><path d="M367.95913,210.66829c13.65042,13.65042 13.65042,35.78211 0,49.43253c-13.65042,13.65042 -35.78211,13.65042 -49.43253,0c-13.65042,-13.65042 -13.65042,-35.78211 0,-49.43253c13.65042,-13.65042 35.78211,-13.65042 49.43253,0z" data-paper-data="{&quot;index&quot;:null}" fill="#9966ff" stroke-linecap="butt"/><path d="M324.40249,216.54417l21.91277,21.91277" data-paper-data="{&quot;index&quot;:null}" fill="none" stroke-linecap="round"/><path d="M362.3418,226.2316v28.25189h-28.25189z" data-paper-data="{&quot;index&quot;:null}" fill="none" stroke-linecap="butt"/><g><path d="M79.51742,204.94021c13.65042,13.65042 13.65042,35.78211 0,49.43253c-13.65042,13.65042 -35.78211,13.65042 -49.43253,0c-13.65042,-13.65042 -13.65042,-35.78211 0,-49.43253c13.65042,-13.65042 35.78211,-13.65042 49.43253,0z" data-paper-data="{&quot;index&quot;:null}" fill="#9966ff" stroke-linecap="butt"/><path d="M73.64152,210.81609l-21.91277,21.91277" data-paper-data="{&quot;index&quot;:null}" fill="none" stroke-linecap="round"/><path d="M63.9541,248.75541h-28.25189v-28.25189z" data-paper-data="{&quot;index&quot;:null}" fill="none" stroke-linecap="butt"/></g><g><path d="M166.56077,206.03472c13.65042,13.65042 13.65042,35.78211 0,49.43253c-13.65042,13.65042 -35.78211,13.65042 -49.43253,0c-13.65042,-13.65042 -13.65042,-35.78211 0,-49.43253c13.65042,-13.65042 35.78211,-13.65042 49.43253,0z" data-paper-data="{&quot;index&quot;:null}" fill="#9966ff" stroke-linecap="butt"/><path d="M130.69485,249.20767v-36.61394" fill="none" stroke-linecap="round"/><path d="M153.26954,249.20767v-36.61394" fill="none" stroke-linecap="round"/></g><g><path d="M79.51742,123.64945c13.65042,13.65042 13.65042,35.78211 0,49.43253c-13.65042,13.65042 -35.78211,13.65042 -49.43253,0c-13.65042,-13.65042 -13.65042,-35.78211 0,-49.43253c13.65042,-13.65042 35.78211,-13.65042 49.43253,0z" data-paper-data="{&quot;index&quot;:null}" fill="#9966ff" stroke-linecap="butt"/><path d="M43.6515,130.20845v36.61394h26.57331" fill="none" stroke-linecap="round"/></g></g></g></svg>