<svg version="1.1" xmlns="http://www.w3.org/2000/svg" xmlns:xlink="http://www.w3.org/1999/xlink" width="96.18496" height="282.0168" viewBox="0,0,96.18496,282.0168"><g transform="translate(-259.92619,-39.38697)"><g data-paper-data="{&quot;isPaintingLayer&quot;:true}" fill-rule="nonzero" stroke-miterlimit="10" stroke-dasharray="" stroke-dashoffset="0" style="mix-blend-mode: normal"><g stroke-width="1"><g><g><path d="M348.5,216.6c-2.1,-0.5 -2.6,-2 -2.4,-3.6c-0.2,3.1 -0.3,6 0,8.4c0,0.3 0,0.5 0,0.8c-0.1,1.2 -0.8,2.2 -2.1,2.4c-0.4,0.1 -0.8,-0.1 -1.1,-0.3c0,0.1 0,0.3 0,0.4c-0.1,1.2 -1.1,2.2 -2.3,2.2c-0.8,0 -1.4,-0.5 -1.6,-1.2c-0.2,-0.5 -0.4,-1.1 -0.5,-1.6v0c-1,1 -2.7,0.5 -3,-0.9c-0.6,-2.6 -1.6,-8 -1.5,-10.1c0.2,-4.3 3.5,-8.9 3.5,-8.9l-0.9,-5.8l9,0.8l-0.9,2.9c3.6,2.4 4.8,4.4 4.9,8.3c0,0 1.6,2.9 1.7,4.3c-0.1,1.9 -2.1,2.2 -2.8,1.9z" fill="#c38f4e" stroke="none" stroke-linecap="butt" stroke-linejoin="miter"/><path d="M344.6,200.1l-0.3,2.2c3.6,2.4 4.8,4.4 4.9,8.3c0,0 1.5,2.9 1.7,4.3c0.3,1.6 -1.8,2 -2.5,1.7c-3.3,-0.5 -3.3,-4.3 -3.6,-6.5v0.4" fill="none" stroke="#000000" stroke-linecap="round" stroke-linejoin="round"/><path d="M338.3,224.2v0c-1,1 -2.7,0.5 -3.1,-0.8c-0.6,-2.6 -1.6,-8 -1.5,-10.1c0.2,-4.3 3.5,-8.9 3.5,-8.9l-0.9,-5.8" fill="none" stroke="#000000" stroke-linecap="round" stroke-linejoin="round"/><path d="M342.8,224.3c0.2,1.4 -0.9,2.6 -2.3,2.7c-0.7,0.1 -1.3,-0.5 -1.6,-1.2c-1.4,-3.5 -1.9,-7.5 -1.3,-10.9" fill="none" stroke="#000000" stroke-linecap="round" stroke-linejoin="round"/><path d="M346,215c-0.2,2.3 -0.1,4.5 0.1,6.4c0.2,1.5 -0.6,3 -2.1,3.2c-0.9,0.2 -1.8,-0.5 -2,-1.4c-0.6,-2.5 -0.8,-5.4 -0.8,-8.5" fill="none" stroke="#000000" stroke-linecap="round" stroke-linejoin="round"/></g><g><path d="M340.3,165.3c3.3,5 2.5,14 3.3,19.3c0.8,5.3 1.2,15.4 1.2,15.4c0,0 -4.3,4.3 -8.1,0.6c0,0 -4.4,-19.5 -5.6,-24c-1.3,-4.4 -1.2,-7.3 0.2,-10.2c1.5,-2.9 5.2,-6.9 9,-1.1z" fill="#c38f4e" stroke="none" stroke-linecap="butt" stroke-linejoin="miter"/><path d="M341.9,169.1c1.4,5 1,11.3 1.6,15.5c0.8,5.3 1.1,15.8 1.1,15.8" fill="none" stroke="#000000" stroke-linecap="round" stroke-linejoin="round"/><path d="M336.9,201.1c-1.4,-2.6 -4.8,-20.1 -5.9,-24.5c-0.6,-2.3 -0.9,-4.2 -0.9,-5.8" fill="none" stroke="#000000" stroke-linecap="round" stroke-linejoin="round"/></g><g><path d="M328.1,133.6c3,-7.7 8.1,-12.3 11,-6.2c2.4,5.4 5,22 3.6,37c-0.1,0.9 0,2.1 -0.1,2.9c-0.3,2.4 1,7.7 -3.4,7.9c-1.3,0 -7.6,0.1 -8.8,-2c-0.9,-1.6 -1.2,-7.7 -1,-9.2c1.1,-13.7 -3.5,-25.1 -1.3,-30.4z" fill="#c38f4e" stroke="none" stroke-linecap="butt" stroke-linejoin="miter"/><path d="M335.9,124.5c1.2,0 2.3,0.9 3.2,2.8c2.4,5.4 5,22 3.6,37c-0.1,0.9 0,2.1 -0.1,2.9c-0.1,1.5 0.3,4 -0.4,5.8" fill="none" stroke="#000000" stroke-linecap="round" stroke-linejoin="round"/><path d="M330.1,172.9c-0.2,-4.2 -0.7,-10.9 -0.5,-12.4c-0.1,-14.3 -3.7,-21.6 -1.5,-27.1c2,-5.1 4.9,-8.8 7.5,-9" fill="none" stroke="#000000" stroke-linecap="round" stroke-linejoin="round"/></g></g><path d="M344,202l-10,1c-3.4,-18.6 -8,-60.7 -7.7,-60.7c-0.4,-10.4 0.1,-20.8 0.9,-21.6c1.8,-1.7 5.1,-1 8.1,1c2.6,1.8 5.1,4.7 6.1,7.8c0.4,1.4 0.8,2.7 1.3,4.1c1,2.9 4,19.2 4.1,24.3c0.2,14.4 -0.8,29.1 -2.8,44.1z" fill="#5ebf9a" stroke="#000000" stroke-linecap="round" stroke-linejoin="round"/></g><path d="M322.2,119.3l0.9,3.4l-6.3,0.8l-1,0.1l-1,-0.1l-6.3,-0.8l0.9,-3.4c1.4,-5.3 0.8,-11 -1.5,-15.9l8,0.6l8,-0.6c-2.6,5.3 -3.8,11.2 -1.7,15.9z" fill="#c38f4e" stroke="#000000" stroke-width="1" stroke-linecap="round" stroke-linejoin="round"/><path d="M292.7,210.6c-12.4,-21.9 0.2,-86.7 4.9,-90.1c3.3,-2.3 7.2,-2.7 9.3,-2.7c0.8,0 1.6,0.3 2.2,0.8c2.9,2.4 12.2,3.8 14.4,0.9c0,0 0.2,-0.1 0.4,-0.1c3.1,-0.8 6.4,0.3 8.4,2.8c0,0.1 0.1,0.1 0.1,0.1c4.9,6.9 8.1,16.1 7.4,23c-2.1,20.1 3.2,37.2 -0.1,62.1c-1.5,4.5 -44.4,8.3 -47,3.2z" fill="#c38f4e" stroke="#000000" stroke-width="1" stroke-linecap="round" stroke-linejoin="round"/><g stroke-width="1"><g><g><path d="M322.7,203.4c2.8,-3.8 7.8,-6.1 11.7,-2c11.7,12.3 7.7,48.7 -0.7,58c-0.9,1 -5.9,3.8 -8.3,1.3c-7.7,-8 -7.7,-50.4 -2.7,-57.3z" fill="#c38f4e" stroke="none" stroke-linecap="butt" stroke-linejoin="miter"/><path d="M321.8,252c-3.9,-16.9 -3.1,-43 1,-48.6c2.8,-3.8 7.8,-6.1 11.7,-2c10.1,10.7 8.5,37.6 2.4,52.6" fill="none" stroke="#000000" stroke-linecap="round" stroke-linejoin="round"/></g><g><path d="M336.7,253.1l-0.1,1.3l-3.7,33.3c-0.2,1.8 -0.1,3.7 0.3,5.5c0.6,2.6 -0.7,5.4 -3.2,6.4h-0.1c-3.9,1.5 -7.9,-1.8 -7.5,-5.9l0.4,-4c0.1,-1.3 0.1,-2.5 0,-3.8l-2.4,-25.1c-0.1,-2.9 0.3,-5.7 1.2,-8.4c0,-0.1 0.1,-0.2 0.1,-0.3c0.7,-1.8 1.6,-3.6 2.7,-5.2c1,-1.5 2.6,-2.5 4.4,-2.7c3.6,-0.5 6.9,2 7.4,5.6z" fill="#c38f4e" stroke="none" stroke-linecap="butt" stroke-linejoin="miter"/><path d="M333.2,293.1c-0.4,-1.8 -0.5,-3.7 -0.3,-5.5l3.7,-33.5" fill="none" stroke="#000000" stroke-linecap="round" stroke-linejoin="round"/><path d="M322.4,294.6c0,-0.3 0,-0.6 0,-0.9l0.4,-4c0.1,-1.3 0.1,-2.5 0,-3.8l-2.4,-25.1c-0.2,-3 0.3,-6 1.3,-8.8" fill="none" stroke="#000000" stroke-linecap="round" stroke-linejoin="round"/></g><g><path d="M324.3,294.9l9,-1.8c5.9,2.6 11.3,6.1 16,10.7c1.6,1.6 2.1,4.2 0.8,6.1c-1.3,1.9 -3.7,2.4 -6.7,2.1c-11.6,-1.8 -17.6,-7.2 -20.6,-14.5c-0.4,-1.1 0.3,-2.3 1.5,-2.6z" fill="#c38f4e" stroke="none" stroke-linecap="butt" stroke-linejoin="miter"/><path d="M333.3,293.2c5.9,2.6 11.3,6.1 16,10.7c1.6,1.6 2.1,4.2 0.8,6.1c-1.3,1.9 -3.7,2.4 -6.7,2.1c-11.6,-1.9 -19.5,-8.7 -21,-17.2" fill="none" stroke="#000000" stroke-linecap="round" stroke-linejoin="round"/></g></g><path d="M317.8,194.7l23.7,-1.3l1,29.3c-8.2,2.2 -16,2.2 -23.3,0c0.2,-2.8 -0.7,-10.6 -1.7,-10.6" fill="#ccd8ff" stroke="#000000" stroke-linecap="round" stroke-linejoin="round"/><path d="M342.3,193c1.9,24 -3.3,58.3 -3.3,58.3c-7.1,1.1 -13.4,0.4 -19.2,-1.8c-1.6,-1.2 -4,-32.4 -0.7,-54.8z" fill="#333333" stroke="#000000" stroke-linecap="round" stroke-linejoin="miter"/><g><path d="M341.5,310.2c-7.9,-2.7 -14.5,-7.3 -20.1,-13.2l-1,-5.8c-0.1,-0.7 0.6,-1.3 1.3,-1l2.1,1c1.7,-2.3 5.2,-4.5 8.7,-4.1c4.7,0.4 1,3.7 1,3.7l15.9,9.9l-0.8,5.8l-6.7,4.2" fill="#45896d" stroke="#000000" stroke-linecap="round" stroke-linejoin="round"/><path d="M349.4,300.7l-1.5,1.6l-10.9,-8.3l-3.5,-3.2l15.9,9.9" fill="#45896d" stroke="#000000" stroke-linecap="round" stroke-linejoin="round"/><path d="M345.4,305.3l-3.4,4.4c-7.3,-2.7 -15.3,-7.1 -20.6,-12.6l-1,-5.8c-0.1,-0.7 0.6,-1.3 1.3,-1l2.1,1l1.9,4c4.6,4.5 12.8,7.2 19.7,10z" fill="#45896d" stroke="#000000" stroke-linecap="round" stroke-linejoin="round"/><path d="M340,312.4c0.1,-0.6 0.4,-1.6 0.7,-2.2c0.2,-0.4 0.8,0.2 1,-0.2c1.5,-3.1 4.2,-7.7 7.7,-9.3c0,0 8.1,3.7 5.8,9.8c-1,2.6 -3.6,4.5 -6.9,4.4c-3.6,0 -8.1,-2 -8.3,-2.5z" fill="#ffffff" stroke="#000000" stroke-linecap="round" stroke-linejoin="round"/><path d="M342,309.7c0.5,-3.7 2.7,-6.8 7.4,-9c0,0 8.6,3.9 4.2,9c-4.4,5.1 -11.6,0 -11.6,0z" fill="#ffffff" stroke="#000000" stroke-linecap="round" stroke-linejoin="round"/><path d="M321.4,296.9c4.2,5.1 13.2,9.7 20.5,12.8c0.3,0.2 -1,3.1 -1,3.1c-7.3,-3 -16,-7.7 -20.1,-12.7z" fill="#ffffff" stroke="#000000" stroke-linecap="round" stroke-linejoin="round"/><g stroke-linecap="butt" stroke-linejoin="miter"><g fill="#000000" stroke="none"><path d="M329.1,297.7c0.276,0 0.526,0.112 0.707,0.293c0.181,0.181 0.293,0.431 0.293,0.707c0,0.276 -0.112,0.526 -0.293,0.707c-0.181,0.181 -0.431,0.293 -0.707,0.293c-0.276,0 -0.526,-0.112 -0.707,-0.293c-0.181,-0.181 -0.293,-0.431 -0.293,-0.707c0,-0.276 0.112,-0.526 0.293,-0.707c0.181,-0.181 0.431,-0.293 0.707,-0.293z"/><path d="M337.2,292.9c0.276,0 0.526,0.112 0.707,0.293c0.181,0.181 0.293,0.431 0.293,0.707c0,0.276 -0.112,0.526 -0.293,0.707c-0.181,0.181 -0.431,0.293 -0.707,0.293c-0.276,0 -0.526,-0.112 -0.707,-0.293c-0.181,-0.181 -0.293,-0.431 -0.293,-0.707c0,-0.276 0.112,-0.526 0.293,-0.707c0.181,-0.181 0.431,-0.293 0.707,-0.293z"/><path d="M344.6,297.5c0.276,0 0.526,0.112 0.707,0.293c0.181,0.181 0.293,0.431 0.293,0.707c0,0.276 -0.112,0.526 -0.293,0.707c-0.181,0.181 -0.431,0.293 -0.707,0.293c-0.276,0 -0.526,-0.112 -0.707,-0.293c-0.181,-0.181 -0.293,-0.431 -0.293,-0.707c0,-0.276 0.112,-0.526 0.293,-0.707c0.181,-0.181 0.431,-0.293 0.707,-0.293z"/><path d="M340.6,295.2c0.276,0 0.526,0.112 0.707,0.293c0.181,0.181 0.293,0.431 0.293,0.707c0,0.276 -0.112,0.526 -0.293,0.707c-0.181,0.181 -0.431,0.293 -0.707,0.293c-0.276,0 -0.526,-0.112 -0.707,-0.293c-0.181,-0.181 -0.293,-0.431 -0.293,-0.707c0,-0.276 0.112,-0.526 0.293,-0.707c0.181,-0.181 0.431,-0.293 0.707,-0.293z"/><path d="M337.7,302.2c0.276,0 0.526,0.112 0.707,0.293c0.181,0.181 0.293,0.431 0.293,0.707c0,0.276 -0.112,0.526 -0.293,0.707c-0.181,0.181 -0.431,0.293 -0.707,0.293c-0.276,0 -0.526,-0.112 -0.707,-0.293c-0.181,-0.181 -0.293,-0.431 -0.293,-0.707c0,-0.276 0.112,-0.526 0.293,-0.707c0.181,-0.181 0.431,-0.293 0.707,-0.293z"/><path d="M333.2,299.9c0.276,0 0.526,0.112 0.707,0.293c0.181,0.181 0.293,0.431 0.293,0.707c0,0.276 -0.112,0.526 -0.293,0.707c-0.181,0.181 -0.431,0.293 -0.707,0.293c-0.276,0 -0.526,-0.112 -0.707,-0.293c-0.181,-0.181 -0.293,-0.431 -0.293,-0.707c0,-0.276 0.112,-0.526 0.293,-0.707c0.181,-0.181 0.431,-0.293 0.707,-0.293z"/></g><g fill="none" stroke="#ffffff"><path d="M337,294c-1,1.4 -3.7,3 -7.8,4.7"/><path d="M344.4,298.7c-1,1.9 -3.6,3.3 -6.7,4.5"/><path d="M340.4,296.3c-0.5,1.1 -3.6,2.7 -7.2,4.5"/></g></g></g></g><g stroke-width="1"><g><g><path d="M297.7,202.4c2.8,-3.8 7.8,-6.1 11.7,-2c11.7,12.3 7.7,55.7 -0.7,65c-0.9,1 -5.9,3.8 -8.3,1.3c-7.7,-8 -7.7,-57.4 -2.7,-64.3z" fill="#c38f4e" stroke="none" stroke-linecap="butt" stroke-linejoin="miter"/><path d="M296.7,258c-3.9,-16.9 -3.1,-50 1,-55.6c2.8,-3.8 7.8,-6.1 11.7,-2c10.1,10.7 8.5,44.7 2.4,59.6" fill="none" stroke="#000000" stroke-linecap="round" stroke-linejoin="round"/></g><g><path d="M311.7,259.1l-0.1,1.3l-3.7,33.3c-0.2,1.8 -0.1,3.7 0.3,5.5c0.6,2.6 -0.7,5.4 -3.2,6.4h-0.1c-3.9,1.5 -7.9,-1.8 -7.5,-5.9l0.4,-4c0.1,-1.3 0.1,-2.5 0,-3.8l-2.4,-25.1c-0.1,-2.9 0.3,-5.7 1.2,-8.4c0,-0.1 0.1,-0.2 0.1,-0.3c0.7,-1.8 1.6,-3.6 2.7,-5.2c1,-1.5 2.6,-2.5 4.4,-2.7c3.6,-0.5 6.9,2 7.4,5.6z" fill="#c38f4e" stroke="none" stroke-linecap="butt" stroke-linejoin="miter"/><path d="M308.2,299.1c-0.4,-1.8 -0.5,-3.7 -0.3,-5.5l3.7,-33.5" fill="none" stroke="#000000" stroke-linecap="round" stroke-linejoin="round"/><path d="M297.4,300.6c0,-0.3 0,-0.6 0,-0.9l0.4,-4c0.1,-1.3 0.1,-2.5 0,-3.8l-2.4,-25.1c-0.2,-3 0.3,-6 1.3,-8.8" fill="none" stroke="#000000" stroke-linecap="round" stroke-linejoin="round"/></g><g><path d="M299.3,300.9l9,-1.8c5.9,2.6 11.3,6.1 16,10.7c1.6,1.6 2.1,4.2 0.8,6.1c-1.3,1.9 -3.7,2.4 -6.7,2.1c-11.6,-1.8 -17.6,-7.2 -20.6,-14.5c-0.4,-1.1 0.2,-2.3 1.5,-2.6z" fill="#c38f4e" stroke="none" stroke-linecap="butt" stroke-linejoin="miter"/><path d="M308.3,299.2c5.9,2.6 11.3,6.1 16,10.7c1.6,1.6 2.1,4.2 0.8,6.1c-1.3,1.9 -3.7,2.4 -6.7,2.1c-11.6,-1.9 -19.5,-8.7 -21,-17.2" fill="none" stroke="#000000" stroke-linecap="round" stroke-linejoin="round"/></g></g><path d="M317.6,212.1c-1,0.1 -1.3,8.2 -0.7,11c-8.2,2.4 -16,2.2 -23.7,-0.3l1,-27l23.6,-1.1" fill="#ccd8ff" stroke="#000000" stroke-linecap="round" stroke-linejoin="round"/><path d="M317.3,194c1.9,24 -3.3,63.3 -3.3,63.3c-7.1,1.1 -13.4,0.4 -19.2,-1.8c-1.6,-1.2 -4,-37.4 -0.7,-59.8z" fill="#333333" stroke="#000000" stroke-linecap="round" stroke-linejoin="miter"/><g><path d="M316.5,316.2c-7.9,-2.7 -14.5,-7.3 -20.1,-13.2l-1,-5.8c-0.1,-0.7 0.6,-1.3 1.3,-1l2.1,1c1.7,-2.3 5.2,-4.5 8.7,-4.1c4.7,0.4 1,3.7 1,3.7l15.9,9.9l-0.8,5.8l-6.7,4.2" fill="#45896d" stroke="#000000" stroke-linecap="round" stroke-linejoin="round"/><path d="M324.4,306.7l-1.6,1.6l-10.8,-8.3l-3.5,-3.2l15.9,9.9" fill="#45896d" stroke="#000000" stroke-linecap="round" stroke-linejoin="round"/><path d="M320.3,311.3l-3.4,4.4c-7.3,-2.7 -15.3,-7.1 -20.6,-12.6l-1,-5.8c-0.1,-0.7 0.6,-1.3 1.3,-1l2.1,1l1.9,4c4.7,4.5 12.9,7.2 19.7,10z" fill="#45896d" stroke="#000000" stroke-linecap="round" stroke-linejoin="round"/><path d="M315,318.4c0.1,-0.6 0.4,-1.6 0.7,-2.2c0.2,-0.4 0.8,0.2 1,-0.2c1.5,-3.1 4.2,-7.7 7.7,-9.3c0,0 8.1,3.7 5.8,9.8c-1,2.6 -3.6,4.5 -6.9,4.4c-3.6,0 -8.1,-2 -8.3,-2.5z" fill="#ffffff" stroke="#000000" stroke-linecap="round" stroke-linejoin="round"/><path d="M317,315.7c0.5,-3.7 2.7,-6.8 7.4,-9c0,0 8.6,3.9 4.2,9c-4.4,5.1 -11.6,0 -11.6,0z" fill="#ffffff" stroke="#000000" stroke-linecap="round" stroke-linejoin="round"/><path d="M296.3,303c4.2,5.1 13.2,9.7 20.5,12.8c0.3,0.2 -1,3.1 -1,3.1c-7.3,-3 -16,-7.7 -20.1,-12.7z" fill="#ffffff" stroke="#000000" stroke-linecap="round" stroke-linejoin="round"/><g stroke-linecap="butt" stroke-linejoin="miter"><g fill="#000000" stroke="none"><path d="M304.1,303.7c0.276,0 0.526,0.112 0.707,0.293c0.181,0.181 0.293,0.431 0.293,0.707c0,0.276 -0.112,0.526 -0.293,0.707c-0.181,0.181 -0.431,0.293 -0.707,0.293c-0.276,0 -0.526,-0.112 -0.707,-0.293c-0.181,-0.181 -0.293,-0.431 -0.293,-0.707c0,-0.276 0.112,-0.526 0.293,-0.707c0.181,-0.181 0.431,-0.293 0.707,-0.293z"/><path d="M312.2,298.9c0.276,0 0.526,0.112 0.707,0.293c0.181,0.181 0.293,0.431 0.293,0.707c0,0.276 -0.112,0.526 -0.293,0.707c-0.181,0.181 -0.431,0.293 -0.707,0.293c-0.276,0 -0.526,-0.112 -0.707,-0.293c-0.181,-0.181 -0.293,-0.431 -0.293,-0.707c0,-0.276 0.112,-0.526 0.293,-0.707c0.181,-0.181 0.431,-0.293 0.707,-0.293z"/><path d="M319.6,303.5c0.276,0 0.526,0.112 0.707,0.293c0.181,0.181 0.293,0.431 0.293,0.707c0,0.276 -0.112,0.526 -0.293,0.707c-0.181,0.181 -0.431,0.293 -0.707,0.293c-0.276,0 -0.526,-0.112 -0.707,-0.293c-0.181,-0.181 -0.293,-0.431 -0.293,-0.707c0,-0.276 0.112,-0.526 0.293,-0.707c0.181,-0.181 0.431,-0.293 0.707,-0.293z"/><path d="M315.6,301.2c0.276,0 0.526,0.112 0.707,0.293c0.181,0.181 0.293,0.431 0.293,0.707c0,0.276 -0.112,0.526 -0.293,0.707c-0.181,0.181 -0.431,0.293 -0.707,0.293c-0.276,0 -0.526,-0.112 -0.707,-0.293c-0.181,-0.181 -0.293,-0.431 -0.293,-0.707c0,-0.276 0.112,-0.526 0.293,-0.707c0.181,-0.181 0.431,-0.293 0.707,-0.293z"/><path d="M312.6,308.2c0.276,0 0.526,0.112 0.707,0.293c0.181,0.181 0.293,0.431 0.293,0.707c0,0.276 -0.112,0.526 -0.293,0.707c-0.181,0.181 -0.431,0.293 -0.707,0.293c-0.276,0 -0.526,-0.112 -0.707,-0.293c-0.181,-0.181 -0.293,-0.431 -0.293,-0.707c0,-0.276 0.112,-0.526 0.293,-0.707c0.181,-0.181 0.431,-0.293 0.707,-0.293z"/><path d="M308.1,305.9c0.276,0 0.526,0.112 0.707,0.293c0.181,0.181 0.293,0.431 0.293,0.707c0,0.276 -0.112,0.526 -0.293,0.707c-0.181,0.181 -0.431,0.293 -0.707,0.293c-0.276,0 -0.526,-0.112 -0.707,-0.293c-0.181,-0.181 -0.293,-0.431 -0.293,-0.707c0,-0.276 0.112,-0.526 0.293,-0.707c0.181,-0.181 0.431,-0.293 0.707,-0.293z"/></g><g fill="none" stroke="#ffffff"><path d="M312,300c-1,1.4 -3.7,3 -7.8,4.7"/><path d="M319.4,304.7c-1,1.9 -3.6,3.3 -6.7,4.5"/><path d="M315.4,302.3c-0.5,1.1 -3.6,2.7 -7.2,4.5"/></g></g></g></g><path d="M292.7,210.6c-12.4,-21.9 0.2,-86.7 4.9,-90.1c3.3,-2.3 7.2,-2.7 9.3,-2.7c0.8,0 1.6,0.3 2.2,0.8c2.9,2.4 12.2,3.8 14.4,0.9c0,0 0.2,-0.1 0.4,-0.1c3.1,-0.8 6.4,0.3 8.4,2.8c0,0.1 0.1,0.1 0.1,0.1c4.9,6.9 8.1,16.1 7.4,23c-2.1,20.1 7.2,37.2 3.9,62.1c-1.5,4.5 -48.4,8.3 -51,3.2z" fill="#5ebf9a" stroke="#000000" stroke-width="1" stroke-linecap="round" stroke-linejoin="round"/><g stroke-width="1"><g stroke-linecap="butt" stroke-linejoin="miter"><path d="M302.3,224c-2.2,-0.1 -3.2,-3.3 -4.8,-5l-0.4,0.4c-0.1,3.7 0,7.1 0.5,10c0,0.2 0.1,0.4 0.1,0.6c0,1.3 -0.6,2.4 -1.9,2.7c-0.4,0.1 -0.8,0 -1.1,-0.2c0,0.1 0,0.2 0,0.3c0,1.2 -0.9,2.3 -2.2,2.5c-0.8,0.1 -1.4,-0.4 -1.7,-1.1c-0.2,-0.5 -0.5,-1 -0.7,-1.6v0c-0.9,1.1 -2.7,0.7 -3.1,-0.7c-0.8,-2.5 -2.1,-7.9 -2.1,-10c0,-3.6 2.1,-7.6 2.7,-8.8l0.1,0.5l0.1,-0.8l-1.3,-5.7c2.6,-2.7 5.3,-3.4 8.1,0.8l0.1,3.2l1.8,0.4l0.3,0.5c2.6,1.3 3.8,2.9 4.7,6c0,0 2.2,2.4 2.8,3.7c0.7,1.6 -1.2,2.4 -2,2.3z" fill="#c38f4e" stroke="none"/><g fill="none" stroke="#000000"><path d="M294.7,208.1l0.1,3.2c4,1.4 5.7,3 6.8,6.8c0,0 2.3,2.4 2.8,3.7c0.6,1.5 -1.2,2.4 -2,2.3c-2.4,-0.1 -3.4,-3.8 -5.2,-5.4l0.1,0.4"/><path d="M290.2,232.6c-0.1,0 -0.1,0 0,0c-1,1.1 -2.7,0.7 -3.1,-0.6c-0.8,-2.5 -2.1,-7.9 -2.1,-10c0,-4.3 2.9,-9.1 2.9,-9.1l-1.3,-5.7"/><path d="M294.6,232.4c0.3,1.4 -0.7,2.8 -2.1,2.9c-0.7,0.1 -1.4,-0.4 -1.7,-1.1c-1.6,-3.4 -2.4,-7.4 -2,-10.8"/><path d="M297.2,218.7c-0.1,3.9 -0.1,7.7 0.5,10.7c0.3,1.5 -0.4,3 -1.9,3.3c-0.9,0.2 -1.8,-0.4 -2.1,-1.3c-0.8,-2.4 -1.1,-5.3 -1.3,-8.4"/></g></g><g><path d="M296.1,173c2.4,5.4 0.1,14.2 0,19.6c-0.1,5.4 -1.4,15.3 -1.4,15.3c0,0 -5,3.5 -8.1,-0.8c0,0 -1,-20 -1.5,-24.6c-0.5,-4.6 0,-7.4 1.9,-10.1c2,-2.4 6.3,-5.7 9.1,0.6z" fill="#c38f4e" stroke="none" stroke-linecap="butt" stroke-linejoin="miter"/><path d="M297.1,177.1c0.5,5.1 -0.9,11.4 -1,15.6c-0.1,5.4 -1.4,15.6 -1.4,15.6" fill="none" stroke="#000000" stroke-linecap="round" stroke-linejoin="round"/><path d="M286.7,207.7c-0.9,-2.8 -1.3,-20.6 -1.7,-25.1c-0.2,-2.4 -0.2,-4.2 0.1,-5.9" fill="none" stroke="#000000" stroke-linecap="round" stroke-linejoin="round"/></g><g><path d="M298.7,168.9c0,1.5 -0.7,7.5 -1.8,9c-1.4,2 -7.7,1.4 -9,1.2c-4.3,-0.6 -2.6,-5.7 -2.7,-8.1c0,-0.8 0.1,-2 0.1,-2.9c-0.2,-15.1 4.2,-37.4 7.1,-42.6c3.4,-5.9 8.1,-0.8 10.5,7c1.8,5.7 -4.2,22.6 -4.2,36.4z" fill="#c38f4e" stroke="none" stroke-linecap="butt" stroke-linejoin="miter"/><path d="M285.1,176.8c-0.5,-1.8 0.1,-4.3 0.1,-5.8c0,-0.8 0.1,-2 0.1,-2.9c-0.2,-15.1 4.2,-37.4 7.1,-42.6c1.1,-1.9 2.3,-2.7 3.5,-2.6" fill="none" stroke="#000000" stroke-linecap="round" stroke-linejoin="round"/><path d="M296.1,122.9c2.6,0.4 5.2,4.4 6.8,9.6c1.8,5.6 -2.9,18.6 -4.2,32.8c0,1.5 -1,8.2 -1.6,12.4" fill="none" stroke="#000000" stroke-linecap="round" stroke-linejoin="round"/></g><path d="M303.6,152.3v0c-2.1,20 -4.8,39.4 -8.1,58l-10,1.8c-2.9,-21.5 -3.7,-42.4 -1.6,-62.7c0.1,-6.6 2.1,-13.1 4.2,-19.2c1.6,-4.5 4.6,-9.4 8.5,-9.8c3.4,-0.3 6.9,4.6 7.4,8.6c1,7.6 1.1,15.7 -0.4,23.3z" fill="#5ebf9a" stroke="#000000" stroke-linecap="round" stroke-linejoin="round"/></g><path d="M310.96671,69.06101l-0.876,11.46135c0,0 -6.40975,-1.79864 -8.12596,2.49374c-2.88716,6.95301 10.25421,38.75601 11.10101,46.96898c0.682,6.62359 1.23861,26.65352 -2.87833,33.82594c-9.99151,17.40695 -19.96641,11.72077 -30.8129,15.69817c7.32624,-4.75879 20.57154,-8.09279 20.86135,-12.26124c-10.85126,9.29247 -27.5068,11.05795 -35.22561,9.76564c4.88216,-0.45224 9.1548,-1.86806 12.78859,-4.34305c-6.32474,2.56859 -11.83159,2.68952 -16.54988,0.26719c1.14719,-0.35206 2.36065,-0.82906 3.64036,-1.43099c9.32244,-4.40887 18.25367,-11.37493 24.15586,-19.76086c5.66428,-8.0479 4.00465,-17.61726 2.22662,-35.48482c-1.67835,-16.86578 -2.23276,-32.41633 -2.38303,-38.01878c-0.30054,-11.2049 12.94529,-17.46652 21.21093,-9.96124c0.55843,0.45624 0.86698,0.77997 0.86698,0.77997z" fill="#000000" stroke="#000000" stroke-width="1" stroke-linecap="butt" stroke-linejoin="miter"/><g><path d="M339.4,54c0.9,0.4 2,1.4 3.1,2.7c2.9,3.3 4.3,7.6 4.2,12c-0.1,11.7 -0.7,22.7 -6.4,33.2c-3.5,6.2 -13.3,7.3 -20.5,6.7c-6.1,-0.5 -11.8,-4.7 -15.7,-9.6c-4.4,-5.4 -7.7,-12.1 -7.7,-19.7c0,-7.6 1,-14.7 5.7,-19.7c4.7,-5 13.7,-7.7 20.4,-8.1c6.3,-0.5 11.3,-0.1 16.9,2.5z" fill="#c38f4e" stroke="#000000" stroke-width="1" stroke-linecap="round" stroke-linejoin="round"/><g stroke-width="1"><path d="M325.4,80.2c0.1,2.4 -0.8,3.8 -2.4,4.5c-1.1,0.5 -2.4,0.7 -4,0.8c-2.1,0.1 -3.8,0 -5,-0.5c-1.3,-0.5 -2.1,-1.3 -2.6,-2.6v-0.1c-0.2,-0.6 -0.4,-1.3 -0.5,-2.2c-0.4,-4.1 3.2,-5.9 7.1,-5.9c0.5,0 1.1,0 1.6,0h0.1c3.1,0.4 5.5,1.3 5.7,6z" fill="#ffffff" stroke="#000000" stroke-linecap="round" stroke-linejoin="round"/><path d="M322,78.7c0.1,3.3 -2.3,4.2 -5.8,4.4c-2.1,0.1 -3.6,0 -4.7,-0.5v-0.1c-0.2,-0.6 -0.4,-1.3 -0.5,-2.2c-0.4,-4.1 3.2,-5.9 7.1,-5.9c0.5,0 1.1,0 1.6,0c1.3,0.6 2.2,1.8 2.3,4.3z" fill="#000000" stroke="none" stroke-linecap="butt" stroke-linejoin="miter"/><path d="M314,76.4c0.359,0 0.684,0.179 0.919,0.469c0.235,0.29 0.381,0.69 0.381,1.131c0,0.441 -0.146,0.841 -0.381,1.131c-0.235,0.29 -0.56,0.469 -0.919,0.469c-0.359,0 -0.684,-0.179 -0.919,-0.469c-0.235,-0.29 -0.381,-0.69 -0.381,-1.131c0,-0.441 0.146,-0.841 0.381,-1.131c0.235,-0.29 0.56,-0.469 0.919,-0.469z" fill="#ffffff" stroke="none" stroke-linecap="butt" stroke-linejoin="miter"/></g><g stroke-width="1"><path d="M344.6,80.1c0.1,4 -1.7,5 -4.4,5.2c-3.1,0.3 -4.6,-0.6 -5.3,-3v-0.1c-0.2,-0.6 -0.3,-1.3 -0.3,-2.1c-0.3,-4.1 2.2,-5.8 4.9,-5.8c0.4,0 0.8,0 1.1,0h0.1c2.1,0.3 3.8,1.2 3.9,5.8z" fill="#ffffff" stroke="#000000" stroke-linecap="round" stroke-linejoin="round"/><path d="M342.3,78.6c0.1,3.3 -1.6,4.1 -4,4.3c-1.4,0.1 -2.5,0 -3.3,-0.4v-0.1c-0.2,-0.6 -0.3,-1.3 -0.3,-2.1c-0.3,-4.1 2.2,-5.8 4.9,-5.8c0.4,0 0.8,0 1.1,0c0.9,0.5 1.5,1.7 1.6,4.1z" fill="#000000" stroke="none" stroke-linecap="butt" stroke-linejoin="miter"/><path d="M336.9,76.4c0.331,0 0.631,0.179 0.848,0.469c0.218,0.29 0.352,0.69 0.352,1.131c0,0.441 -0.134,0.841 -0.352,1.131c-0.217,0.29 -0.517,0.469 -0.848,0.469c-0.331,0 -0.631,-0.179 -0.848,-0.469c-0.218,-0.29 -0.352,-0.69 -0.352,-1.131c0,-0.441 0.134,-0.841 0.352,-1.131c0.217,-0.29 0.517,-0.469 0.848,-0.469z" fill="#ffffff" stroke="none" stroke-linecap="butt" stroke-linejoin="miter"/></g><path d="M329.3,100.4c-3.6,-0.2 -8.2,-1.9 -10.9,-4.3" fill="none" stroke="#000000" stroke-width="0.8715" stroke-linecap="round" stroke-linejoin="round"/><path d="M324.1,71.8c-5.9,-0.6 -11.2,0.2 -15.9,2.6c-1.5,-2 9.3,-6 13.8,-5.2c3.8,0.6 2.4,2.4 2.1,2.6z" fill="#000000" stroke="none" stroke-width="1" stroke-linecap="butt" stroke-linejoin="miter"/><path d="M335.4,69.7c3.7,-0.8 10.2,0.4 10.3,3.4c-4.4,-2.1 -7.2,-1.4 -12.1,-0.8c-0.2,-0.2 -1.3,-2 1.8,-2.6z" fill="#000000" stroke="none" stroke-width="1" stroke-linecap="butt" stroke-linejoin="miter"/><g fill="none" stroke="#000000" stroke-linecap="butt" stroke-linejoin="miter"><path d="M330.8,80.3l0.7,5.9" stroke-width="1"/><path d="M330.5,86c1.8,-0.1 3.4,1.4 3.4,3.2c0.1,1.9 -1.4,3.3 -3.2,3.5c-0.8,0.1 -1.5,-0.1 -2.2,-0.4" stroke-width="0.9916"/></g><path d="M299.7,89.9c0,0 0.4,1.2 -3.2,0.4c-3.6,-0.8 -2.9,-4.3 -2.9,-4.3c0,0 -4,-9 1,-10.9c1.8,-0.7 3.2,-0.4 4.2,0.2" fill="#c38f4e" stroke="#000000" stroke-width="1" stroke-linecap="round" stroke-linejoin="round"/></g><path d="M351.1,83.1c0.1,-4 -1.9,-5.8 -3,-8c0.6,3.1 -1.1,13.9 -1.1,13.9c-0.6,-0.1 -1.1,-0.7 -1.6,-1.8c1.1,-5.9 1.3,-12 1.4,-18.3c0.9,0.4 1.8,0.9 2.5,1.3c0.5,0.3 1.1,0.6 1.8,0.8c0.8,3.3 1.2,7.2 0,12.1z" fill="#000000" stroke="#000000" stroke-width="1" stroke-linecap="butt" stroke-linejoin="miter"/><g fill="#000000" stroke="#000000" stroke-width="1" stroke-linecap="butt" stroke-linejoin="miter"><path d="M300.3,100c0.1,0.5 -11.4,-13.9 -11.4,-26.4c0,-3.2 0.4,-6.3 1.1,-9.5c2.4,-8.4 3.5,-12.5 10.7,-13.7l2.9,10.2c0.1,9.8 -0.3,20.9 -1.9,26.8c-0.4,-1.1 -0.9,-1.8 -1.5,-2.3c0,0 -0.1,4.9 -0.6,7.4c-0.5,2.8 0.3,5.8 0.7,7.5z"/><path d="M297.5,54c-0.3,-1 -1.1,-2.2 -2,-3.4c-0.1,-0.2 0.1,-0.4 0.3,-0.3c1.3,0.5 2.5,1.2 3.4,2c-1,-1.4 -1.4,-3 -1.5,-4.6c0,-0.2 0.3,-0.3 0.4,-0.1c0.6,0.8 1.3,1.5 2.1,2c1.7,-3.6 5,-7.5 11.4,-9c11,-2.7 42.1,1.5 40.9,26c-0.1,1.9 0.4,3.7 1.6,5.1v0.1c-1.4,-0.2 -3.6,-0.8 -4.8,-1.5c-6,-3.7 -16,-5.4 -23.1,-5.5c-9.5,-0.1 -18.5,-1.1 -27.1,-4.1"/></g></g></g></svg>