<svg version="1.1" xmlns="http://www.w3.org/2000/svg" xmlns:xlink="http://www.w3.org/1999/xlink" width="588.23529" height="407.56303" viewBox="0,0,588.23529,407.56303"><g transform="translate(59.42666,22.74422)"><g data-paper-data="{&quot;isPaintingLayer&quot;:true}" fill-rule="nonzero" stroke="none" stroke-width="0" stroke-linecap="butt" stroke-linejoin="miter" stroke-miterlimit="10" stroke-dasharray="" stroke-dashoffset="0" style="mix-blend-mode: normal"><path d="M213.65827,153.65827c22.79766,-22.79766 53.0724,-29.48521 67.62054,-14.93707c14.54814,14.54814 7.86058,44.82288 -14.93707,67.62054c-22.79766,22.79766 -53.0724,29.48521 -67.62054,14.93707c-14.54814,-14.54814 -7.86058,-44.82288 14.93707,-67.62054z" fill="#000000"/><path d="M216.96768,156.96768c20.43787,-20.43787 47.31795,-26.69411 60.03835,-13.97371c12.7204,12.7204 6.46416,39.60049 -13.97371,60.03835c-20.43787,20.43787 -47.31795,26.69411 -60.03835,13.97371c-12.7204,-12.7204 -6.46416,-39.60049 13.97371,-60.03835z" fill="#0050de"/><path d="M-59.42666,384.8188v-407.56303h588.23529v407.56303z" fill="#000000"/></g></g></svg>