<svg version="1.1" xmlns="http://www.w3.org/2000/svg" xmlns:xlink="http://www.w3.org/1999/xlink" width="15.97912" height="19.70123" viewBox="0,0,15.97912,19.70123"><g transform="translate(-344.01044,-170.41834)"><g stroke="none" stroke-miterlimit="10"><path d="M344.01044,180c0,-4.41251 3.57705,-7.98956 7.98956,-7.98956c4.41251,0 7.98956,3.57705 7.98956,7.98956c0,4.41251 -3.57705,7.98956 -7.98956,7.98956c-4.41251,0 -7.98956,-3.57705 -7.98956,-7.98956z" fill="#000000" stroke-width="0"/><path d="M344.81951,180c0,-3.96568 3.21481,-7.18049 7.18049,-7.18049c3.96568,0 7.18049,3.21481 7.18049,7.18049c0,3.96568 -3.21481,7.18049 -7.18049,7.18049c-3.96568,0 -7.18049,-3.21481 -7.18049,-7.18049z" fill="#747474" stroke-width="0"/><path d="M344.81951,180c0,-3.96568 3.21481,-7.18049 7.18049,-7.18049c3.96568,0 7.18049,3.21481 7.18049,7.18049c0,3.96568 -3.21481,7.18049 -7.18049,7.18049c-3.96568,0 -7.18049,-3.21481 -7.18049,-7.18049z" fill="#747474" stroke-width="0"/><path d="M346.07357,180c0,-3.27308 2.65336,-5.92643 5.92643,-5.92643c3.27308,0 5.92643,2.65336 5.92643,5.92643c0,3.27308 -2.65336,5.92643 -5.92643,5.92643c-3.27308,0 -5.92643,-2.65336 -5.92643,-5.92643z" fill="#bebebe" stroke-width="0"/><text transform="translate(349.27326,185.47992) scale(0.5,0.34624)" font-size="40" xml:space="preserve" fill="#ff0000" stroke-width="1" font-family="Sans Serif" font-weight="normal" text-anchor="start"><tspan x="0" dy="0">l</tspan></text></g></g></svg>