<svg version="1.1" xmlns="http://www.w3.org/2000/svg" xmlns:xlink="http://www.w3.org/1999/xlink" width="256.10887" height="196.56722" viewBox="0,0,256.10887,196.56722"><defs><linearGradient x1="329.47798" y1="142.44044" x2="484.11332" y2="142.44044" gradientUnits="userSpaceOnUse" id="color-1"><stop offset="0" stop-color="#ff0000"/><stop offset="1" stop-color="#550000"/></linearGradient><linearGradient x1="466.87786" y1="142.41103" x2="569.70955" y2="142.41103" gradientUnits="userSpaceOnUse" id="color-2"><stop offset="0" stop-color="#660000"/><stop offset="1" stop-color="#250000"/></linearGradient></defs><g transform="translate(-322.1231,-121.75421)"><g data-paper-data="{&quot;isPaintingLayer&quot;:true}" fill-rule="nonzero" stroke-linecap="butt" stroke-linejoin="miter" stroke-miterlimit="10" stroke-dasharray="" stroke-dashoffset="0" style="mix-blend-mode: normal"><path d="M356.97126,163.12667l-34.84816,-41.37246h162.8886c-0.04709,0.62692 -0.07106,1.26028 -0.07106,1.89925c0,0.00492 0,0.00985 0,0.01477c-1.65266,1.4719 -1.69861,4.08914 -2.44824,6.17141c-0.33204,0.92233 -1.22361,1.5999 -1.46491,2.55002c-0.9822,3.86741 1.65069,9.85685 1.81442,13.35508c0.24077,5.14428 -3.22165,11.39691 -1.81442,16.60368c0.07283,0.26947 0.17155,0.52781 0.28887,0.77825z" fill="#000000" stroke="#000000" stroke-width="0"/><path d="" fill="#000000" stroke="#000000" stroke-width="0"/><path d="M361.79833,160.18846l-32.32035,-35.49604h154.63534c-0.87301,1.4885 -1.0235,3.48775 -1.62091,5.14722c-0.33204,0.92233 -1.22361,1.5999 -1.46491,2.55002c-0.9822,3.86741 1.65069,9.85685 1.81442,13.35508c0.20827,4.45001 -2.35453,9.7294 -2.13916,14.44372z" fill="url(#color-1)" stroke="#000000" stroke-width="0"/><path d="" fill="#ffffff" stroke="#000000" stroke-width="0"/><text transform="translate(363.58874,151.31445) scale(0.76914,0.76914)" font-size="40" xml:space="preserve" fill="#ffffff" fill-rule="nonzero" stroke="none" stroke-width="1" stroke-linecap="butt" stroke-linejoin="miter" stroke-miterlimit="10" stroke-dasharray="" stroke-dashoffset="0" font-family="&quot;New Title Cards&quot;, Sans Serif" font-weight="normal" text-anchor="start" style="mix-blend-mode: normal"><tspan x="0" dy="0">Pause</tspan></text><path d="M468.14667,163.12667v-41.37246h101.56288v41.37246z" fill="#000000" stroke="none" stroke-width="0"/><path d="M506.99124,318.30878v-24.8554h71.24073v24.8554z" fill="#000000" stroke="none" stroke-width="0"/><path d="M489.79289,252.07563v-28.97025h79.91665v28.97025z" fill="#000000" stroke="none" stroke-width="0"/><path d="M371.9194,252.07563l-24.40173,-28.97025h163.73999v28.97025z" fill="#000000" stroke="#000000" stroke-width="0"/><path d="M375.29946,250.0182l-22.63169,-24.8554h155.20983v24.8554z" fill="#41ff00" stroke="#000000" stroke-width="0"/><text transform="translate(376.55315,243.80435) scale(0.53858,0.53858)" font-size="40" xml:space="preserve" fill="#ffffff" fill-rule="nonzero" stroke="none" stroke-width="1" stroke-linecap="butt" stroke-linejoin="miter" stroke-miterlimit="10" stroke-dasharray="" stroke-dashoffset="0" font-family="&quot;New Title Cards&quot;, Sans Serif" font-weight="normal" text-anchor="start" style="mix-blend-mode: normal"><tspan x="0" dy="0">Conitue</tspan></text><path d="M395.49162,284.46692l-20.95708,-24.88068h140.62574v24.88068z" fill="#000000" stroke="#000000" stroke-width="0"/><path d="M398.39454,282.69993l-19.4369,-21.3467h133.29974v21.3467z" fill="#d4ff00" stroke="#000000" stroke-width="0"/><text transform="translate(399.47126,277.36325) scale(0.46255,0.46255)" font-size="40" xml:space="preserve" fill="#808080" fill-rule="nonzero" stroke="none" stroke-width="1" stroke-linecap="butt" stroke-linejoin="miter" stroke-miterlimit="10" stroke-dasharray="" stroke-dashoffset="0" font-family="&quot;New Title Cards&quot;, Sans Serif" font-weight="normal" text-anchor="start" style="mix-blend-mode: normal"><tspan x="0" dy="0">Restart</tspan></text><path d="M427.73257,318.32143l-20.95708,-24.88068h140.62574v24.88068z" fill="#000000" stroke="#000000" stroke-width="0"/><path d="M430.63549,316.55444l-19.4369,-21.3467h133.29974v21.3467z" fill="#ff0000" stroke="#000000" stroke-width="0"/><text transform="translate(431.71221,311.21776) scale(0.46255,0.46255)" font-size="40" xml:space="preserve" fill="#ffffff" fill-rule="nonzero" stroke="none" stroke-width="1" stroke-linecap="butt" stroke-linejoin="miter" stroke-miterlimit="10" stroke-dasharray="" stroke-dashoffset="0" font-family="&quot;New Title Cards&quot;, Sans Serif" font-weight="normal" text-anchor="start" style="mix-blend-mode: normal"><tspan x="0" dy="0">Exit</tspan></text><path d="M489.79289,250.0182c0,0 0,-12.87476 0,-17.46369c0,-2.98549 0,-7.39171 0,-7.39171h79.91665v24.8554z" fill="#41ff00" stroke="none" stroke-width="0"/><path d="M498.46882,284.46692v-24.8554h71.24072v24.8554z" fill="#000000" stroke="none" stroke-width="0"/><path d="M493.49219,282.69994v-21.34676h76.21735v21.34676z" fill="#d4ff00" stroke="none" stroke-width="0"/><path d="M502.01462,316.54181v-21.34677h76.21735v21.34677z" fill="#ff0000" stroke="none" stroke-width="0"/><path d="M466.87786,160.13226v-35.44246h102.83169v35.44246z" fill="url(#color-2)" stroke="none" stroke-width="0"/></g></g></svg>