<svg version="1.1" xmlns="http://www.w3.org/2000/svg" xmlns:xlink="http://www.w3.org/1999/xlink" width="30.32775" height="27.05453" viewBox="0,0,30.32775,27.05453"><defs><linearGradient x1="240.0779" y1="172.03829" x2="240.0779" y2="188.37285" gradientUnits="userSpaceOnUse" id="color-1"><stop offset="0" stop-color="#890000"/><stop offset="1" stop-color="#ff0000"/></linearGradient></defs><g transform="translate(-224.83612,-166.47273)"><g data-paper-data="{&quot;isPaintingLayer&quot;:true}" fill-rule="nonzero" stroke-linejoin="miter" stroke-miterlimit="10" stroke-dasharray="" stroke-dashoffset="0" style="mix-blend-mode: normal"><path d="M252.82771,180.20556c0,4.51066 -5.70829,8.16728 -12.74982,8.16728c-7.04153,0 -12.74982,-3.65662 -12.74982,-8.16728c0,-4.51066 5.70829,-8.16728 12.74982,-8.16728c7.04153,0 12.74982,3.65661 12.74982,8.16728z" fill="#ff0000" stroke="#000000" stroke-width="1" stroke-linecap="butt"/><path d="M234.23754,188.33919c1.14243,0 2.06855,0.47668 2.06855,1.0647c0,0.58802 -0.92612,1.0647 -2.06855,1.0647c-1.14243,0 -2.06856,-0.47668 -2.06856,-1.0647c0,-0.58802 0.92613,-1.0647 2.06856,-1.0647z" fill="#ff0000" stroke="#000000" stroke-width="1" stroke-linecap="butt"/><path d="M236.55619,188.2527c0,1.14243 -0.47668,2.06855 -1.0647,2.06855c-0.58802,0 -1.0647,-0.92612 -1.0647,-2.06855c0,-1.14243 0.47668,-2.06856 1.0647,-2.06856c0.58802,0 1.0647,0.92613 1.0647,2.06856z" fill="#ff0000" stroke="#000000" stroke-width="1" stroke-linecap="butt"/><path d="M236.55619,188.25269c0,1.14243 -0.47668,2.06855 -1.0647,2.06855c-0.58802,0 -1.0647,-0.92612 -1.0647,-2.06855c0,-1.14243 0.47668,-2.06855 1.0647,-2.06855c0.58802,0 1.0647,0.92612 1.0647,2.06855z" fill="#ff0000" stroke="none" stroke-width="0" stroke-linecap="butt"/><path d="M233.93771,190.8867c0,1.14243 -0.47668,2.06855 -1.0647,2.06855c-0.58802,0 -1.0647,-0.92612 -1.0647,-2.06855c0,-1.14243 0.47669,-2.06856 1.0647,-2.06856c0.58802,0 1.0647,0.92613 1.0647,2.06856z" fill="#ff0000" stroke="#000000" stroke-width="1" stroke-linecap="butt"/><path d="M233.93771,190.88669c0,1.14243 -0.47668,2.06855 -1.0647,2.06855c-0.58802,0 -1.0647,-0.92612 -1.0647,-2.06855c0,-1.14243 0.47668,-2.06855 1.0647,-2.06855c0.58802,0 1.0647,0.92612 1.0647,2.06855z" fill="#ff0000" stroke="none" stroke-width="0" stroke-linecap="butt"/><path d="M234.23753,188.33919c1.14243,0 2.06855,0.47668 2.06855,1.0647c0,0.58802 -0.92612,1.06469 -2.06855,1.06469c-1.14243,0 -2.06855,-0.47668 -2.06855,-1.06469c0,-0.58802 0.92612,-1.0647 2.06855,-1.0647z" fill="#ff0000" stroke="none" stroke-width="0" stroke-linecap="butt"/><path d="M232.42111,189.31788l-0.19522,0.53686" fill="none" stroke="#ff0000" stroke-width="0.5" stroke-linecap="round"/><path d="M234.65395,190.19637l0.9151,-0.12201" fill="none" stroke="#ff0000" stroke-width="0.5" stroke-linecap="round"/><path d="M234.67835,187.89032c0,0 0.04646,0.28787 -0.1519,0.49258c-0.25608,0.26427 -0.49477,0.2029 -0.49477,0.2029" fill="none" stroke="#ff0000" stroke-width="0.5" stroke-linecap="round"/><path d="M230.06232,186.27173c1.14243,0 2.06855,0.47668 2.06855,1.0647c0,0.58802 -0.92612,1.0647 -2.06855,1.0647c-1.14243,0 -2.06856,-0.47668 -2.06856,-1.0647c0,-0.58802 0.92613,-1.0647 2.06856,-1.0647z" fill="#ff0000" stroke="#000000" stroke-width="1" stroke-linecap="butt"/><path d="M232.38098,186.18524c0,1.14243 -0.47668,2.06855 -1.0647,2.06855c-0.58802,0 -1.0647,-0.92612 -1.0647,-2.06855c0,-1.14243 0.47668,-2.06856 1.0647,-2.06856c0.58802,0 1.0647,0.92613 1.0647,2.06856z" fill="#ff0000" stroke="#000000" stroke-width="1" stroke-linecap="butt"/><path d="M232.38098,186.18523c0,1.14243 -0.47668,2.06855 -1.0647,2.06855c-0.58802,0 -1.0647,-0.92612 -1.0647,-2.06855c0,-1.14243 0.47668,-2.06855 1.0647,-2.06855c0.58802,0 1.0647,0.92612 1.0647,2.06855z" fill="#ff0000" stroke="none" stroke-width="0" stroke-linecap="butt"/><path d="M229.76248,188.81926c0,1.14243 -0.47668,2.06855 -1.0647,2.06855c-0.58802,0 -1.0647,-0.92612 -1.0647,-2.06855c0,-1.14243 0.47669,-2.06856 1.0647,-2.06856c0.58802,0 1.0647,0.92613 1.0647,2.06856z" fill="#ff0000" stroke="#000000" stroke-width="1" stroke-linecap="butt"/><path d="M229.76248,188.81925c0,1.14243 -0.47668,2.06855 -1.0647,2.06855c-0.58802,0 -1.0647,-0.92612 -1.0647,-2.06855c0,-1.14243 0.47668,-2.06855 1.0647,-2.06855c0.58802,0 1.0647,0.92612 1.0647,2.06855z" fill="#ff0000" stroke="none" stroke-width="0" stroke-linecap="butt"/><path d="M230.06231,186.27173c1.14243,0 2.06855,0.47668 2.06855,1.0647c0,0.58802 -0.92612,1.0647 -2.06855,1.0647c-1.14243,0 -2.06855,-0.47668 -2.06855,-1.0647c0,-0.58802 0.92612,-1.0647 2.06855,-1.0647z" fill="#ff0000" stroke="none" stroke-width="0" stroke-linecap="butt"/><path d="M228.24589,187.25042l-0.19522,0.53686" fill="none" stroke="#ff0000" stroke-width="0.5" stroke-linecap="round"/><path d="M231.39383,188.00691l-0.9151,0.12201" fill="none" stroke="#ff0000" stroke-width="0.5" stroke-linecap="round"/><path d="M230.50313,185.82288c0,0 0.04646,0.28786 -0.1519,0.49257c-0.25608,0.26427 -0.49477,0.2029 -0.49477,0.2029" fill="none" stroke="#ff0000" stroke-width="0.5" stroke-linecap="round"/><path d="M248.57462,189.47588c0,0.58802 -0.92613,1.0647 -2.06856,1.0647c-1.14243,0 -2.06855,-0.47668 -2.06855,-1.0647c0,-0.58802 0.92612,-1.0647 2.06855,-1.0647c1.14243,0 2.06856,0.47668 2.06856,1.0647z" data-paper-data="{&quot;index&quot;:null}" fill="#ff0000" stroke="#000000" stroke-width="1" stroke-linecap="butt"/><path d="M245.25209,186.25614c0.58802,0 1.0647,0.92613 1.0647,2.06856c0,1.14243 -0.47668,2.06855 -1.0647,2.06855c-0.58802,0 -1.0647,-0.92612 -1.0647,-2.06855c0,-1.14243 0.47668,-2.06856 1.0647,-2.06856z" data-paper-data="{&quot;index&quot;:null}" fill="#ff0000" stroke="#000000" stroke-width="1" stroke-linecap="butt"/><path d="M245.25209,186.25614c0.58802,0 1.0647,0.92612 1.0647,2.06855c0,1.14243 -0.47668,2.06855 -1.0647,2.06855c-0.58802,0 -1.0647,-0.92612 -1.0647,-2.06855c0,-1.14243 0.47668,-2.06855 1.0647,-2.06855z" data-paper-data="{&quot;index&quot;:null}" fill="#ff0000" stroke="none" stroke-width="0" stroke-linecap="butt"/><path d="M247.87059,188.89016c0.58802,0 1.0647,0.92613 1.0647,2.06856c0,1.14243 -0.47669,2.06855 -1.0647,2.06855c-0.58802,0 -1.0647,-0.92612 -1.0647,-2.06855c0,-1.14243 0.47668,-2.06856 1.0647,-2.06856z" data-paper-data="{&quot;index&quot;:null}" fill="#ff0000" stroke="#000000" stroke-width="1" stroke-linecap="butt"/><path d="M247.87059,188.89016c0.58802,0 1.0647,0.92612 1.0647,2.06855c0,1.14243 -0.47668,2.06855 -1.0647,2.06855c-0.58802,0 -1.0647,-0.92612 -1.0647,-2.06855c0,-1.14243 0.47668,-2.06855 1.0647,-2.06855z" data-paper-data="{&quot;index&quot;:null}" fill="#ff0000" stroke="none" stroke-width="0" stroke-linecap="butt"/><path d="M248.57462,189.47588c0,0.58802 -0.92612,1.0647 -2.06855,1.0647c-1.14243,0 -2.06855,-0.47668 -2.06855,-1.0647c0,-0.58802 0.92612,-1.0647 2.06855,-1.0647c1.14243,0 2.06855,0.47668 2.06855,1.0647z" data-paper-data="{&quot;index&quot;:null}" fill="#ff0000" stroke="none" stroke-width="0" stroke-linecap="butt"/><path d="M248.3225,189.38988l0.19522,0.53686" data-paper-data="{&quot;index&quot;:null}" fill="none" stroke="#ff0000" stroke-width="0.5" stroke-linecap="round"/><path d="M246.08965,190.26837l-0.9151,-0.12201" data-paper-data="{&quot;index&quot;:null}" fill="none" stroke="#ff0000" stroke-width="0.5" stroke-linecap="round"/><path d="M246.71193,188.6578c0,0 -0.23869,0.06137 -0.49477,-0.2029c-0.19836,-0.20471 -0.1519,-0.49257 -0.1519,-0.49257" data-paper-data="{&quot;index&quot;:null}" fill="none" stroke="#ff0000" stroke-width="0.5" stroke-linecap="round"/><path d="M252.74985,187.40844c0,0.58802 -0.92613,1.0647 -2.06856,1.0647c-1.14243,0 -2.06855,-0.47669 -2.06855,-1.0647c0,-0.58802 0.92612,-1.0647 2.06855,-1.0647c1.14243,0 2.06856,0.47668 2.06856,1.0647z" data-paper-data="{&quot;index&quot;:null}" fill="#ff0000" stroke="#000000" stroke-width="1" stroke-linecap="butt"/><path d="M249.42732,184.1887c0.58802,0 1.0647,0.92613 1.0647,2.06856c0,1.14243 -0.47668,2.06855 -1.0647,2.06855c-0.58802,0 -1.0647,-0.92612 -1.0647,-2.06855c0,-1.14243 0.47668,-2.06856 1.0647,-2.06856z" data-paper-data="{&quot;index&quot;:null}" fill="#ff0000" stroke="#000000" stroke-width="1" stroke-linecap="butt"/><path d="M249.42732,184.1887c0.58802,0 1.0647,0.92612 1.0647,2.06855c0,1.14243 -0.47668,2.06855 -1.0647,2.06855c-0.58802,0 -1.0647,-0.92612 -1.0647,-2.06855c0,-1.14243 0.47668,-2.06855 1.0647,-2.06855z" data-paper-data="{&quot;index&quot;:null}" fill="#ff0000" stroke="none" stroke-width="0" stroke-linecap="butt"/><path d="M252.04579,186.82271c0.58802,0 1.0647,0.92613 1.0647,2.06856c0,1.14243 -0.47669,2.06855 -1.0647,2.06855c-0.58802,0 -1.0647,-0.92612 -1.0647,-2.06855c0,-1.14243 0.47668,-2.06856 1.0647,-2.06856z" data-paper-data="{&quot;index&quot;:null}" fill="#ff0000" stroke="#000000" stroke-width="1" stroke-linecap="butt"/><path d="M252.04579,186.82271c0.58802,0 1.0647,0.92612 1.0647,2.06855c0,1.14243 -0.47668,2.06855 -1.0647,2.06855c-0.58802,0 -1.0647,-0.92612 -1.0647,-2.06855c0,-1.14243 0.47668,-2.06855 1.0647,-2.06855z" data-paper-data="{&quot;index&quot;:null}" fill="#ff0000" stroke="none" stroke-width="0" stroke-linecap="butt"/><path d="M252.74985,187.40844c0,0.58802 -0.92612,1.0647 -2.06855,1.0647c-1.14243,0 -2.06855,-0.47668 -2.06855,-1.0647c0,-0.58802 0.92612,-1.0647 2.06855,-1.0647c1.14243,0 2.06855,0.47668 2.06855,1.0647z" data-paper-data="{&quot;index&quot;:null}" fill="#ff0000" stroke="none" stroke-width="0" stroke-linecap="butt"/><path d="M252.69293,187.85929l-0.19522,-0.53686" data-paper-data="{&quot;index&quot;:null}" fill="none" stroke="#ff0000" stroke-width="0.5" stroke-linecap="round"/><path d="M250.26488,188.20091l-0.9151,-0.12201" data-paper-data="{&quot;index&quot;:null}" fill="none" stroke="#ff0000" stroke-width="0.5" stroke-linecap="round"/><path d="M247.94057,173.22093c0,-0.82111 0.66564,-1.48676 1.48676,-1.48676c0.82111,0 1.48676,0.66564 1.48676,1.48676c0,0.82111 -0.66565,1.48676 -1.48676,1.48676c-0.82111,0 -1.48676,-0.66565 -1.48676,-1.48676z" fill="#ff0000" stroke="#000000" stroke-width="1" stroke-linecap="butt"/><path d="M247.94056,173.22093c0,-0.82111 0.66565,-1.48676 1.48676,-1.48676c0.82111,0 1.48676,0.66565 1.48676,1.48676c0,0.82111 -0.66565,1.48676 -1.48676,1.48676c-0.82111,0 -1.48676,-0.66565 -1.48676,-1.48676z" fill="#ffffff" stroke="#000000" stroke-width="0" stroke-linecap="butt"/><path d="M250.18601,171.73417c0,-0.40211 0.32596,-0.72807 0.72807,-0.72807c0.40211,0 0.72807,0.32596 0.72807,0.72807c0,0.40211 -0.32597,0.72807 -0.72807,0.72807c-0.40211,0 -0.72807,-0.32596 -0.72807,-0.72807z" fill="#ff0000" stroke="#000000" stroke-width="0.5" stroke-linecap="butt"/><path d="M250.18601,171.73417c0,-0.40211 0.32596,-0.72807 0.72807,-0.72807c0.40211,0 0.72807,0.32597 0.72807,0.72807c0,0.40211 -0.32597,0.72807 -0.72807,0.72807c-0.40211,0 -0.72807,-0.32596 -0.72807,-0.72807z" fill="#ffffff" stroke="#000000" stroke-width="0" stroke-linecap="butt"/><path d="M250.52678,169.04129c0,-1.14243 0.92612,-2.06855 2.06855,-2.06855c1.14243,0 2.06855,0.92612 2.06855,2.06855c0,1.14243 -0.92612,2.06855 -2.06855,2.06855c-1.14243,0 -2.06855,-0.92612 -2.06855,-2.06855z" fill="#ff0000" stroke="#000000" stroke-width="1" stroke-linecap="butt"/><path d="M250.52678,169.04129c0,-1.14243 0.92612,-2.06855 2.06855,-2.06855c1.14243,0 2.06855,0.92612 2.06855,2.06855c0,1.14243 -0.92612,2.06855 -2.06855,2.06855c-1.14243,0 -2.06855,-0.92612 -2.06855,-2.06855z" fill="#ffffff" stroke="#000000" stroke-width="0" stroke-linecap="butt"/><path d="M251.85434,169.04129c0,-0.40923 0.33176,-0.74099 0.74099,-0.74099c0.40923,0 0.74099,0.33176 0.74099,0.74099c0,0.40923 -0.33176,0.74099 -0.74099,0.74099c-0.40923,0 -0.74099,-0.33176 -0.74099,-0.74099z" fill="#000000" stroke="none" stroke-width="0" stroke-linecap="butt"/><path d="M250.52678,169.04129c0,-1.14243 0.92612,-2.06855 2.06855,-2.06855c0.42703,0 0.82386,0.1294 1.15337,0.35113c0.09622,0.06474 -2.65738,3.14035 -2.71558,3.07335c-0.31542,-0.36309 -0.50634,-0.83721 -0.50634,-1.35593z" fill="#ff0000" stroke="#000000" stroke-width="0" stroke-linecap="butt"/><path d="M230.5727,174.81425c-0.82111,0 -1.48676,-0.66564 -1.48676,-1.48676c0,-0.82111 0.66565,-1.48676 1.48676,-1.48676c0.82111,0 1.48675,0.66564 1.48675,1.48676c0,0.82111 -0.66564,1.48676 -1.48675,1.48676z" data-paper-data="{&quot;index&quot;:null}" fill="#ff0000" stroke="#000000" stroke-width="1" stroke-linecap="butt"/><path d="M230.5727,174.81425c-0.82111,0 -1.48676,-0.66564 -1.48676,-1.48676c0,-0.82111 0.66565,-1.48676 1.48676,-1.48676c0.82111,0 1.48676,0.66565 1.48676,1.48676c0,0.82111 -0.66565,1.48676 -1.48676,1.48676z" data-paper-data="{&quot;index&quot;:null}" fill="#ffffff" stroke="#000000" stroke-width="0" stroke-linecap="butt"/><path d="M229.08594,172.56881c-0.40211,0 -0.72808,-0.32596 -0.72808,-0.72807c0,-0.40211 0.32597,-0.72807 0.72808,-0.72807c0.40211,0 0.72807,0.32596 0.72807,0.72807c0,0.40211 -0.32596,0.72807 -0.72807,0.72807z" data-paper-data="{&quot;index&quot;:null}" fill="#ff0000" stroke="#000000" stroke-width="0.5" stroke-linecap="butt"/><path d="M229.08594,172.56881c-0.40211,0 -0.72808,-0.32596 -0.72808,-0.72807c0,-0.40211 0.32597,-0.72807 0.72808,-0.72807c0.40211,0 0.72807,0.32597 0.72807,0.72807c0,0.40211 -0.32596,0.72807 -0.72807,0.72807z" data-paper-data="{&quot;index&quot;:null}" fill="#ffffff" stroke="#000000" stroke-width="0" stroke-linecap="butt"/><path d="M227.40468,171.2164c-1.14243,0 -2.06855,-0.92612 -2.06855,-2.06855c0,-1.14243 0.92612,-2.06855 2.06855,-2.06855c1.14243,0 2.06855,0.92612 2.06855,2.06855c0,1.14243 -0.92612,2.06855 -2.06855,2.06855z" data-paper-data="{&quot;index&quot;:null}" fill="#ff0000" stroke="#000000" stroke-width="1" stroke-linecap="butt"/><path d="M227.40468,171.2164c-1.14243,0 -2.06855,-0.92612 -2.06855,-2.06855c0,-1.14243 0.92612,-2.06855 2.06855,-2.06855c1.14243,0 2.06855,0.92612 2.06855,2.06855c0,1.14243 -0.92612,2.06855 -2.06855,2.06855z" data-paper-data="{&quot;index&quot;:null}" fill="#ffffff" stroke="#000000" stroke-width="0" stroke-linecap="butt"/><path d="M227.40468,169.88884c-0.40923,0 -0.74099,-0.33175 -0.74099,-0.74099c0,-0.40923 0.33175,-0.74099 0.74099,-0.74099c0.40923,0 0.74099,0.33176 0.74099,0.74099c0,0.40923 -0.33176,0.74099 -0.74099,0.74099z" data-paper-data="{&quot;index&quot;:null}" fill="#000000" stroke="none" stroke-width="0" stroke-linecap="butt"/><path d="M228.9669,170.50377c-0.0582,0.067 -2.8118,-3.0086 -2.71559,-3.07334c0.32951,-0.22173 0.72634,-0.35113 1.15337,-0.35113c1.14243,0 2.06856,0.92612 2.06856,2.06855c0,0.51871 -0.19092,0.99284 -0.50634,1.35592z" data-paper-data="{&quot;index&quot;:null}" fill="#ff0000" stroke="#000000" stroke-width="0" stroke-linecap="butt"/><path d="M252.82771,180.20556c0,4.51066 -5.70829,8.16728 -12.74982,8.16728c-7.04153,0 -12.74982,-3.65662 -12.74982,-8.16728c0,-4.51066 5.70829,-8.16728 12.74982,-8.16728c7.04153,0 12.74982,3.65661 12.74982,8.16728z" fill="url(#color-1)" stroke="none" stroke-width="0" stroke-linecap="butt"/><path d="M246.06053,183.84165c0,1.14243 -2.67852,2.06855 -5.98263,2.06855c-3.30411,0 -5.98263,-0.92612 -5.98263,-2.06855c0,-1.14243 2.67852,-2.06855 5.98263,-2.06855c3.30411,0 5.98263,0.92612 5.98263,2.06855z" fill="#ffffff" stroke="#000000" stroke-width="0.5" stroke-linecap="butt"/><path d="M246.06053,183.84165c0,1.14243 -2.67852,2.06855 -5.98263,2.06855c-3.30411,0 -5.98263,-0.92612 -5.98263,-2.06855c0,-1.14243 2.67852,-2.06855 5.98263,-2.06855c3.30411,0 5.98263,0.92612 5.98263,2.06855z" fill="#ffffff" stroke="#000000" stroke-width="0" stroke-linecap="butt"/><path d="M245.86418,183.84165c0,1.06062 -2.59061,1.92042 -5.78628,1.92042c-3.19567,0 -5.78628,-0.8598 -5.78628,-1.92042c0,-1.06062 2.59061,-1.92041 5.78628,-1.92041c3.19567,0 5.78628,0.85979 5.78628,1.92041z" fill="#000000" stroke="#000000" stroke-width="0" stroke-linecap="butt"/></g></g></svg>