<svg version="1.1" xmlns="http://www.w3.org/2000/svg" xmlns:xlink="http://www.w3.org/1999/xlink" width="43.6783" height="43.6783" viewBox="0,0,43.6783,43.6783"><g transform="translate(-162.24319,-184.14844)"><g data-paper-data="{&quot;isPaintingLayer&quot;:true}" fill-rule="nonzero" stroke-width="0" stroke-linecap="butt" stroke-linejoin="miter" stroke-miterlimit="10" stroke-dasharray="" stroke-dashoffset="0" style="mix-blend-mode: normal"><path d="" fill="#000000" stroke="#000000"/><path d="" fill="#ffffff" stroke="#000000"/><path d="M162.24319,205.98759c0,-12.06143 9.77772,-21.83915 21.83915,-21.83915c12.06143,0 21.83915,9.77772 21.83915,21.83915c0,12.06143 -9.77772,21.83915 -21.83915,21.83915c-12.06143,0 -21.83915,-9.77772 -21.83915,-21.83915z" fill="#585858" stroke="none"/><path d="M162.24319,205.98759c0,-12.06143 9.77772,-21.83915 21.83915,-21.83915c12.06143,0 21.83915,9.77772 21.83915,21.83915c0,12.06143 -9.77772,21.83915 -21.83915,21.83915c-12.06143,0 -21.83915,-9.77772 -21.83915,-21.83915z" fill="#585858" stroke="none"/><path d="M163.65855,205.98759c0,-11.27974 9.14404,-20.42379 20.42379,-20.42379c11.27974,0 20.42379,9.14404 20.42379,20.42379c0,11.27974 -9.14404,20.42379 -20.42379,20.42379c-11.27974,0 -20.42379,-9.14405 -20.42379,-20.42379z" fill="#808080" stroke="none"/><path d="M163.65855,205.98759c0,-11.27974 9.14404,-20.42379 20.42379,-20.42379c11.27974,0 20.42379,9.14404 20.42379,20.42379c0,11.27974 -9.14404,20.42379 -20.42379,20.42379c-11.27974,0 -20.42379,-9.14405 -20.42379,-20.42379z" fill="#808080" stroke="none"/><path d="M168.89307,205.98759c0,-8.3888 6.80047,-15.18927 15.18927,-15.18927c8.3888,0 15.18927,6.80047 15.18927,15.18927c0,8.3888 -6.80047,15.18927 -15.18927,15.18927c-8.3888,0 -15.18927,-6.80047 -15.18927,-15.18927z" fill="#585858" stroke="none"/><path d="M170.48157,205.98759c0,-7.5115 6.08927,-13.60077 13.60077,-13.60077c7.5115,0 13.60077,6.08927 13.60077,13.60077c0,7.5115 -6.08927,13.60077 -13.60077,13.60077c-7.5115,0 -13.60077,-6.08927 -13.60077,-13.60077z" fill="#808080" stroke="none"/><path d="M182.65649,209.15356v-21.71772l13.90464,6.75368l7.15096,14.96404z" fill="#808080" stroke="none"/><path d="M182.517,198.15072v-11.52779l5.7639,5.7639z" fill="#585858" stroke="none"/></g></g></svg>