<svg version="1.1" xmlns="http://www.w3.org/2000/svg" xmlns:xlink="http://www.w3.org/1999/xlink" width="15.97912" height="15.97912" viewBox="0,0,15.97912,15.97912"><g transform="translate(-232.01044,-172.01044)"><g data-paper-data="{&quot;isPaintingLayer&quot;:true}" fill-rule="nonzero" stroke-width="0" stroke-linecap="butt" stroke-linejoin="miter" stroke-miterlimit="10" stroke-dasharray="" stroke-dashoffset="0" style="mix-blend-mode: normal"><path d="M232.01044,180c0,-4.41251 3.57705,-7.98956 7.98956,-7.98956c4.41251,0 7.98956,3.57705 7.98956,7.98956c0,4.41251 -3.57705,7.98956 -7.98956,7.98956c-4.41251,0 -7.98956,-3.57705 -7.98956,-7.98956z" fill="#000000" stroke="none"/><path d="M232.81951,180c0,-3.96568 3.21481,-7.18049 7.18049,-7.18049c3.96568,0 7.18049,3.21481 7.18049,7.18049c0,3.96568 -3.21481,7.18049 -7.18049,7.18049c-3.96568,0 -7.18049,-3.21481 -7.18049,-7.18049z" fill="#747474" stroke="none"/><path d="M232.81951,180c0,-3.96568 3.21481,-7.18049 7.18049,-7.18049c3.96568,0 7.18049,3.21481 7.18049,7.18049c0,3.96568 -3.21481,7.18049 -7.18049,7.18049c-3.96568,0 -7.18049,-3.21481 -7.18049,-7.18049z" fill="#747474" stroke="none"/><path d="M234.07357,180c0,-3.27308 2.65336,-5.92643 5.92643,-5.92643c3.27308,0 5.92643,2.65336 5.92643,5.92643c0,3.27308 -2.65336,5.92643 -5.92643,5.92643c-3.27308,0 -5.92643,-2.65336 -5.92643,-5.92643z" fill="#bebebe" stroke="none"/><path d="M236.74881,184.30899l-1.0578,-1.0578l7.56018,-7.56018l1.0578,1.0578z" fill="#ff0000" stroke="#000000"/><path d="M244.30899,183.25119l-1.0578,1.0578l-7.56018,-7.56018l1.0578,-1.0578z" fill="#ff0000" stroke="#000000"/><path d="M239.25202,180.74798v-1.49596h1.49596v1.49596z" fill="#ff0000" stroke="#000000"/></g></g></svg>