<svg version="1.1" xmlns="http://www.w3.org/2000/svg" xmlns:xlink="http://www.w3.org/1999/xlink" width="64.8061" height="27.05453" viewBox="0,0,64.8061,27.05453"><defs><linearGradient x1="222.06465" y1="179.08791" x2="222.06465" y2="182.44369" gradientUnits="userSpaceOnUse" id="color-1"><stop offset="0" stop-color="#890000"/><stop offset="1" stop-color="#ff0000"/></linearGradient><linearGradient x1="240.07277" y1="171.89159" x2="240.07277" y2="188.22615" gradientUnits="userSpaceOnUse" id="color-2"><stop offset="0" stop-color="#890000"/><stop offset="1" stop-color="#ff0000"/></linearGradient></defs><g transform="translate(-190.35265,-166.32604)"><g data-paper-data="{&quot;isPaintingLayer&quot;:true}" fill-rule="nonzero" stroke-linejoin="miter" stroke-miterlimit="10" stroke-dasharray="" stroke-dashoffset="0" style="mix-blend-mode: normal"><path d="M202.04231,180.05887c0,0.55805 -3.89651,0.86104 -4.04861,1.36962c-0.34028,1.13783 4.6303,1.35665 3.71196,2.06358c-0.43096,0.33175 -2.7717,0.04424 -3.70774,0.46731c-0.59289,0.26798 4.37067,1.33924 3.81424,1.51019c-0.48926,0.15033 -5.03835,0.18412 -5.36469,0.18412c-3.08993,0 -5.59482,-2.50489 -5.59482,-5.59482c0,-3.08993 2.50489,-5.59483 5.59482,-5.59483c1.73159,0 4.71492,0.33437 5.74117,1.56979c0.41431,0.49875 -5.25391,1.36561 -5.03185,1.98841c0.20942,0.58737 4.8855,1.37733 4.8855,2.03662z" data-paper-data="{&quot;index&quot;:null}" fill="#ff0000" stroke="#000000" stroke-width="1" stroke-linecap="butt"/><path d="M197.32855,182.44369v-3.35578h49.47221v3.35578z" fill="url(#color-1)" stroke="#000000" stroke-width="1" stroke-linecap="butt"/><path d="M197.32855,182.44369v-3.35578h49.47221v3.35578z" fill="#ff0000" stroke="none" stroke-width="0" stroke-linecap="butt"/><path d="M252.82259,180.05887c0,4.51066 -5.70829,8.16728 -12.74982,8.16728c-7.04153,0 -12.74982,-3.65662 -12.74982,-8.16728c0,-4.51066 5.70829,-8.16728 12.74982,-8.16728c7.04153,0 12.74982,3.65661 12.74982,8.16728z" fill="#ff0000" stroke="#000000" stroke-width="1" stroke-linecap="butt"/><path d="M234.23241,188.19249c1.14243,0 2.06855,0.47668 2.06855,1.0647c0,0.58802 -0.92612,1.0647 -2.06855,1.0647c-1.14243,0 -2.06856,-0.47668 -2.06856,-1.0647c0,-0.58802 0.92613,-1.0647 2.06856,-1.0647z" fill="#ff0000" stroke="#000000" stroke-width="1" stroke-linecap="butt"/><path d="M236.55107,188.106c0,1.14243 -0.47668,2.06855 -1.0647,2.06855c-0.58802,0 -1.0647,-0.92612 -1.0647,-2.06855c0,-1.14243 0.47668,-2.06856 1.0647,-2.06856c0.58802,0 1.0647,0.92613 1.0647,2.06856z" fill="#ff0000" stroke="#000000" stroke-width="1" stroke-linecap="butt"/><path d="M236.55107,188.10599c0,1.14243 -0.47668,2.06855 -1.0647,2.06855c-0.58802,0 -1.0647,-0.92612 -1.0647,-2.06855c0,-1.14243 0.47668,-2.06855 1.0647,-2.06855c0.58802,0 1.0647,0.92612 1.0647,2.06855z" fill="#ff0000" stroke="none" stroke-width="0" stroke-linecap="butt"/><path d="M233.93258,190.74001c0,1.14243 -0.47668,2.06855 -1.0647,2.06855c-0.58802,0 -1.0647,-0.92612 -1.0647,-2.06855c0,-1.14243 0.47669,-2.06856 1.0647,-2.06856c0.58802,0 1.0647,0.92613 1.0647,2.06856z" fill="#ff0000" stroke="#000000" stroke-width="1" stroke-linecap="butt"/><path d="M233.93258,190.74c0,1.14243 -0.47668,2.06855 -1.0647,2.06855c-0.58802,0 -1.0647,-0.92612 -1.0647,-2.06855c0,-1.14243 0.47668,-2.06855 1.0647,-2.06855c0.58802,0 1.0647,0.92612 1.0647,2.06855z" fill="#ff0000" stroke="none" stroke-width="0" stroke-linecap="butt"/><path d="M234.2324,188.19249c1.14243,0 2.06855,0.47668 2.06855,1.0647c0,0.58802 -0.92612,1.06469 -2.06855,1.06469c-1.14243,0 -2.06855,-0.47668 -2.06855,-1.06469c0,-0.58802 0.92612,-1.0647 2.06855,-1.0647z" fill="#ff0000" stroke="none" stroke-width="0" stroke-linecap="butt"/><path d="M232.41598,189.17118l-0.19522,0.53686" fill="none" stroke="#ff0000" stroke-width="0.5" stroke-linecap="round"/><path d="M234.64882,190.04967l0.9151,-0.12201" fill="none" stroke="#ff0000" stroke-width="0.5" stroke-linecap="round"/><path d="M234.67322,187.74362c0,0 0.04646,0.28787 -0.1519,0.49258c-0.25608,0.26427 -0.49477,0.2029 -0.49477,0.2029" fill="none" stroke="#ff0000" stroke-width="0.5" stroke-linecap="round"/><path d="M230.05719,186.12504c1.14243,0 2.06855,0.47668 2.06855,1.0647c0,0.58802 -0.92612,1.0647 -2.06855,1.0647c-1.14243,0 -2.06856,-0.47668 -2.06856,-1.0647c0,-0.58802 0.92613,-1.0647 2.06856,-1.0647z" fill="#ff0000" stroke="#000000" stroke-width="1" stroke-linecap="butt"/><path d="M232.37585,186.03855c0,1.14243 -0.47668,2.06855 -1.0647,2.06855c-0.58802,0 -1.0647,-0.92612 -1.0647,-2.06855c0,-1.14243 0.47668,-2.06856 1.0647,-2.06856c0.58802,0 1.0647,0.92613 1.0647,2.06856z" fill="#ff0000" stroke="#000000" stroke-width="1" stroke-linecap="butt"/><path d="M232.37585,186.03854c0,1.14243 -0.47668,2.06855 -1.0647,2.06855c-0.58802,0 -1.0647,-0.92612 -1.0647,-2.06855c0,-1.14243 0.47668,-2.06855 1.0647,-2.06855c0.58802,0 1.0647,0.92612 1.0647,2.06855z" fill="#ff0000" stroke="none" stroke-width="0" stroke-linecap="butt"/><path d="M229.75736,188.67256c0,1.14243 -0.47668,2.06855 -1.0647,2.06855c-0.58802,0 -1.0647,-0.92612 -1.0647,-2.06855c0,-1.14243 0.47669,-2.06856 1.0647,-2.06856c0.58802,0 1.0647,0.92613 1.0647,2.06856z" fill="#ff0000" stroke="#000000" stroke-width="1" stroke-linecap="butt"/><path d="M229.75736,188.67255c0,1.14243 -0.47668,2.06855 -1.0647,2.06855c-0.58802,0 -1.0647,-0.92612 -1.0647,-2.06855c0,-1.14243 0.47668,-2.06855 1.0647,-2.06855c0.58802,0 1.0647,0.92612 1.0647,2.06855z" fill="#ff0000" stroke="none" stroke-width="0" stroke-linecap="butt"/><path d="M230.05718,186.12504c1.14243,0 2.06855,0.47668 2.06855,1.0647c0,0.58802 -0.92612,1.0647 -2.06855,1.0647c-1.14243,0 -2.06855,-0.47668 -2.06855,-1.0647c0,-0.58802 0.92612,-1.0647 2.06855,-1.0647z" fill="#ff0000" stroke="none" stroke-width="0" stroke-linecap="butt"/><path d="M228.24076,187.10373l-0.19522,0.53686" fill="none" stroke="#ff0000" stroke-width="0.5" stroke-linecap="round"/><path d="M230.4736,187.98222l0.9151,-0.12201" fill="none" stroke="#ff0000" stroke-width="0.5" stroke-linecap="round"/><path d="M230.498,185.67618c0,0 0.04646,0.28786 -0.1519,0.49257c-0.25608,0.26427 -0.49477,0.2029 -0.49477,0.2029" fill="none" stroke="#ff0000" stroke-width="0.5" stroke-linecap="round"/><path d="M248.5695,189.32919c0,0.58802 -0.92613,1.0647 -2.06856,1.0647c-1.14243,0 -2.06855,-0.47668 -2.06855,-1.0647c0,-0.58802 0.92612,-1.0647 2.06855,-1.0647c1.14243,0 2.06856,0.47668 2.06856,1.0647z" data-paper-data="{&quot;index&quot;:null}" fill="#ff0000" stroke="#000000" stroke-width="1" stroke-linecap="butt"/><path d="M245.24697,186.10945c0.58802,0 1.0647,0.92613 1.0647,2.06856c0,1.14243 -0.47668,2.06855 -1.0647,2.06855c-0.58802,0 -1.0647,-0.92612 -1.0647,-2.06855c0,-1.14243 0.47668,-2.06856 1.0647,-2.06856z" data-paper-data="{&quot;index&quot;:null}" fill="#ff0000" stroke="#000000" stroke-width="1" stroke-linecap="butt"/><path d="M245.24697,186.10945c0.58802,0 1.0647,0.92612 1.0647,2.06855c0,1.14243 -0.47668,2.06855 -1.0647,2.06855c-0.58802,0 -1.0647,-0.92612 -1.0647,-2.06855c0,-1.14243 0.47668,-2.06855 1.0647,-2.06855z" data-paper-data="{&quot;index&quot;:null}" fill="#ff0000" stroke="none" stroke-width="0" stroke-linecap="butt"/><path d="M247.86546,188.74346c0.58802,0 1.0647,0.92613 1.0647,2.06856c0,1.14243 -0.47669,2.06855 -1.0647,2.06855c-0.58802,0 -1.0647,-0.92612 -1.0647,-2.06855c0,-1.14243 0.47668,-2.06856 1.0647,-2.06856z" data-paper-data="{&quot;index&quot;:null}" fill="#ff0000" stroke="#000000" stroke-width="1" stroke-linecap="butt"/><path d="M247.86546,188.74346c0.58802,0 1.0647,0.92612 1.0647,2.06855c0,1.14243 -0.47668,2.06855 -1.0647,2.06855c-0.58802,0 -1.0647,-0.92612 -1.0647,-2.06855c0,-1.14243 0.47668,-2.06855 1.0647,-2.06855z" data-paper-data="{&quot;index&quot;:null}" fill="#ff0000" stroke="none" stroke-width="0" stroke-linecap="butt"/><path d="M248.5695,189.32919c0,0.58802 -0.92612,1.0647 -2.06855,1.0647c-1.14243,0 -2.06855,-0.47668 -2.06855,-1.0647c0,-0.58802 0.92612,-1.0647 2.06855,-1.0647c1.14243,0 2.06855,0.47668 2.06855,1.0647z" data-paper-data="{&quot;index&quot;:null}" fill="#ff0000" stroke="none" stroke-width="0" stroke-linecap="butt"/><path d="M248.51259,189.78004l-0.19522,-0.53686" data-paper-data="{&quot;index&quot;:null}" fill="none" stroke="#ff0000" stroke-width="0.5" stroke-linecap="round"/><path d="M246.08453,190.12167l-0.9151,-0.12201" data-paper-data="{&quot;index&quot;:null}" fill="none" stroke="#ff0000" stroke-width="0.5" stroke-linecap="round"/><path d="M246.7068,188.5111c0,0 -0.23869,0.06137 -0.49477,-0.2029c-0.19836,-0.20471 -0.1519,-0.49257 -0.1519,-0.49257" data-paper-data="{&quot;index&quot;:null}" fill="none" stroke="#ff0000" stroke-width="0.5" stroke-linecap="round"/><path d="M252.74472,187.26174c0,0.58802 -0.92613,1.0647 -2.06856,1.0647c-1.14243,0 -2.06855,-0.47669 -2.06855,-1.0647c0,-0.58802 0.92612,-1.0647 2.06855,-1.0647c1.14243,0 2.06856,0.47668 2.06856,1.0647z" data-paper-data="{&quot;index&quot;:null}" fill="#ff0000" stroke="#000000" stroke-width="1" stroke-linecap="butt"/><path d="M249.42219,184.042c0.58802,0 1.0647,0.92613 1.0647,2.06856c0,1.14243 -0.47668,2.06855 -1.0647,2.06855c-0.58802,0 -1.0647,-0.92612 -1.0647,-2.06855c0,-1.14243 0.47668,-2.06856 1.0647,-2.06856z" data-paper-data="{&quot;index&quot;:null}" fill="#ff0000" stroke="#000000" stroke-width="1" stroke-linecap="butt"/><path d="M249.42219,184.042c0.58802,0 1.0647,0.92612 1.0647,2.06855c0,1.14243 -0.47668,2.06855 -1.0647,2.06855c-0.58802,0 -1.0647,-0.92612 -1.0647,-2.06855c0,-1.14243 0.47668,-2.06855 1.0647,-2.06855z" data-paper-data="{&quot;index&quot;:null}" fill="#ff0000" stroke="none" stroke-width="0" stroke-linecap="butt"/><path d="M252.04068,186.67601c0.58802,0 1.0647,0.92613 1.0647,2.06856c0,1.14243 -0.47669,2.06855 -1.0647,2.06855c-0.58802,0 -1.0647,-0.92612 -1.0647,-2.06855c0,-1.14243 0.47668,-2.06856 1.0647,-2.06856z" data-paper-data="{&quot;index&quot;:null}" fill="#ff0000" stroke="#000000" stroke-width="1" stroke-linecap="butt"/><path d="M252.04068,186.67601c0.58802,0 1.0647,0.92612 1.0647,2.06855c0,1.14243 -0.47668,2.06855 -1.0647,2.06855c-0.58802,0 -1.0647,-0.92612 -1.0647,-2.06855c0,-1.14243 0.47668,-2.06855 1.0647,-2.06855z" data-paper-data="{&quot;index&quot;:null}" fill="#ff0000" stroke="none" stroke-width="0" stroke-linecap="butt"/><path d="M252.74472,187.26174c0,0.58802 -0.92612,1.0647 -2.06855,1.0647c-1.14243,0 -2.06855,-0.47668 -2.06855,-1.0647c0,-0.58802 0.92612,-1.0647 2.06855,-1.0647c1.14243,0 2.06855,0.47668 2.06855,1.0647z" data-paper-data="{&quot;index&quot;:null}" fill="#ff0000" stroke="none" stroke-width="0" stroke-linecap="butt"/><path d="M252.49259,187.17573l0.19522,0.53686" data-paper-data="{&quot;index&quot;:null}" fill="none" stroke="#ff0000" stroke-width="0.5" stroke-linecap="round"/><path d="M249.34465,187.93221l0.9151,0.12201" data-paper-data="{&quot;index&quot;:null}" fill="none" stroke="#ff0000" stroke-width="0.5" stroke-linecap="round"/><path d="M247.93544,173.07423c0,-0.82111 0.66564,-1.48676 1.48676,-1.48676c0.82111,0 1.48676,0.66564 1.48676,1.48676c0,0.82111 -0.66565,1.48676 -1.48676,1.48676c-0.82111,0 -1.48676,-0.66565 -1.48676,-1.48676z" fill="#ff0000" stroke="#000000" stroke-width="1" stroke-linecap="butt"/><path d="M247.93543,173.07423c0,-0.82111 0.66565,-1.48676 1.48676,-1.48676c0.82111,0 1.48676,0.66565 1.48676,1.48676c0,0.82111 -0.66565,1.48676 -1.48676,1.48676c-0.82111,0 -1.48676,-0.66565 -1.48676,-1.48676z" fill="#ffffff" stroke="#000000" stroke-width="0" stroke-linecap="butt"/><path d="M250.18088,171.58747c0,-0.40211 0.32596,-0.72807 0.72807,-0.72807c0.40211,0 0.72807,0.32596 0.72807,0.72807c0,0.40211 -0.32597,0.72807 -0.72807,0.72807c-0.40211,0 -0.72807,-0.32596 -0.72807,-0.72807z" fill="#ff0000" stroke="#000000" stroke-width="0.5" stroke-linecap="butt"/><path d="M250.18088,171.58747c0,-0.40211 0.32596,-0.72807 0.72807,-0.72807c0.40211,0 0.72807,0.32597 0.72807,0.72807c0,0.40211 -0.32597,0.72807 -0.72807,0.72807c-0.40211,0 -0.72807,-0.32596 -0.72807,-0.72807z" fill="#ffffff" stroke="#000000" stroke-width="0" stroke-linecap="butt"/><path d="M250.52165,168.89459c0,-1.14243 0.92612,-2.06855 2.06855,-2.06855c1.14243,0 2.06855,0.92612 2.06855,2.06855c0,1.14243 -0.92612,2.06855 -2.06855,2.06855c-1.14243,0 -2.06855,-0.92612 -2.06855,-2.06855z" fill="#ff0000" stroke="#000000" stroke-width="1" stroke-linecap="butt"/><path d="M250.52165,168.89459c0,-1.14243 0.92612,-2.06855 2.06855,-2.06855c1.14243,0 2.06855,0.92612 2.06855,2.06855c0,1.14243 -0.92612,2.06855 -2.06855,2.06855c-1.14243,0 -2.06855,-0.92612 -2.06855,-2.06855z" fill="#ffffff" stroke="#000000" stroke-width="0" stroke-linecap="butt"/><path d="M251.84921,168.89459c0,-0.40923 0.33176,-0.74099 0.74099,-0.74099c0.40923,0 0.74099,0.33176 0.74099,0.74099c0,0.40923 -0.33176,0.74099 -0.74099,0.74099c-0.40923,0 -0.74099,-0.33176 -0.74099,-0.74099z" fill="#000000" stroke="none" stroke-width="0" stroke-linecap="butt"/><path d="M250.52165,168.89459c0,-1.14243 0.92612,-2.06855 2.06855,-2.06855c0.42703,0 0.82386,0.1294 1.15337,0.35113c0.09622,0.06474 -2.65738,3.14035 -2.71558,3.07335c-0.31542,-0.36309 -0.50634,-0.83721 -0.50634,-1.35593z" fill="#ff0000" stroke="#000000" stroke-width="0" stroke-linecap="butt"/><path d="M230.56757,174.66756c-0.82111,0 -1.48676,-0.66564 -1.48676,-1.48676c0,-0.82111 0.66565,-1.48676 1.48676,-1.48676c0.82111,0 1.48675,0.66564 1.48675,1.48676c0,0.82111 -0.66564,1.48676 -1.48675,1.48676z" data-paper-data="{&quot;index&quot;:null}" fill="#ff0000" stroke="#000000" stroke-width="1" stroke-linecap="butt"/><path d="M230.56757,174.66756c-0.82111,0 -1.48676,-0.66564 -1.48676,-1.48676c0,-0.82111 0.66565,-1.48676 1.48676,-1.48676c0.82111,0 1.48676,0.66565 1.48676,1.48676c0,0.82111 -0.66565,1.48676 -1.48676,1.48676z" data-paper-data="{&quot;index&quot;:null}" fill="#ffffff" stroke="#000000" stroke-width="0" stroke-linecap="butt"/><path d="M229.08081,172.42211c-0.40211,0 -0.72808,-0.32596 -0.72808,-0.72807c0,-0.40211 0.32597,-0.72807 0.72808,-0.72807c0.40211,0 0.72807,0.32596 0.72807,0.72807c0,0.40211 -0.32596,0.72807 -0.72807,0.72807z" data-paper-data="{&quot;index&quot;:null}" fill="#ff0000" stroke="#000000" stroke-width="0.5" stroke-linecap="butt"/><path d="M229.08081,172.42211c-0.40211,0 -0.72808,-0.32596 -0.72808,-0.72807c0,-0.40211 0.32597,-0.72807 0.72808,-0.72807c0.40211,0 0.72807,0.32597 0.72807,0.72807c0,0.40211 -0.32596,0.72807 -0.72807,0.72807z" data-paper-data="{&quot;index&quot;:null}" fill="#ffffff" stroke="#000000" stroke-width="0" stroke-linecap="butt"/><path d="M227.39956,171.06971c-1.14243,0 -2.06855,-0.92612 -2.06855,-2.06855c0,-1.14243 0.92612,-2.06855 2.06855,-2.06855c1.14243,0 2.06855,0.92612 2.06855,2.06855c0,1.14243 -0.92612,2.06855 -2.06855,2.06855z" data-paper-data="{&quot;index&quot;:null}" fill="#ff0000" stroke="#000000" stroke-width="1" stroke-linecap="butt"/><path d="M227.39956,171.06971c-1.14243,0 -2.06855,-0.92612 -2.06855,-2.06855c0,-1.14243 0.92612,-2.06855 2.06855,-2.06855c1.14243,0 2.06855,0.92612 2.06855,2.06855c0,1.14243 -0.92612,2.06855 -2.06855,2.06855z" data-paper-data="{&quot;index&quot;:null}" fill="#ffffff" stroke="#000000" stroke-width="0" stroke-linecap="butt"/><path d="M227.39956,169.74214c-0.40923,0 -0.74099,-0.33175 -0.74099,-0.74099c0,-0.40923 0.33175,-0.74099 0.74099,-0.74099c0.40923,0 0.74099,0.33176 0.74099,0.74099c0,0.40923 -0.33176,0.74099 -0.74099,0.74099z" data-paper-data="{&quot;index&quot;:null}" fill="#000000" stroke="none" stroke-width="0" stroke-linecap="butt"/><path d="M228.96177,170.35708c-0.0582,0.067 -2.8118,-3.0086 -2.71559,-3.07334c0.32951,-0.22173 0.72634,-0.35113 1.15337,-0.35113c1.14243,0 2.06856,0.92612 2.06856,2.06855c0,0.51871 -0.19092,0.99284 -0.50634,1.35592z" data-paper-data="{&quot;index&quot;:null}" fill="#ff0000" stroke="#000000" stroke-width="0" stroke-linecap="butt"/><path d="M252.82259,180.05887c0,4.51066 -5.70829,8.16728 -12.74982,8.16728c-7.04153,0 -12.74982,-3.65662 -12.74982,-8.16728c0,-4.51066 5.70829,-8.16728 12.74982,-8.16728c7.04153,0 12.74982,3.65661 12.74982,8.16728z" fill="url(#color-2)" stroke="none" stroke-width="0" stroke-linecap="butt"/><path d="M246.0554,183.69496c0,1.14243 -2.67852,2.06855 -5.98263,2.06855c-3.30411,0 -5.98263,-0.92612 -5.98263,-2.06855c0,-1.14243 2.67852,-2.06855 5.98263,-2.06855c3.30411,0 5.98263,0.92612 5.98263,2.06855z" fill="#ffffff" stroke="#000000" stroke-width="0.5" stroke-linecap="butt"/><path d="M246.0554,183.69496c0,1.14243 -2.67852,2.06855 -5.98263,2.06855c-3.30411,0 -5.98263,-0.92612 -5.98263,-2.06855c0,-1.14243 2.67852,-2.06855 5.98263,-2.06855c3.30411,0 5.98263,0.92612 5.98263,2.06855z" fill="#ffffff" stroke="#000000" stroke-width="0" stroke-linecap="butt"/><path d="M245.85905,183.69496c0,1.06062 -2.59061,1.92042 -5.78628,1.92042c-3.19567,0 -5.78628,-0.8598 -5.78628,-1.92042c0,-1.06062 2.59061,-1.92041 5.78628,-1.92041c3.19567,0 5.78628,0.85979 5.78628,1.92041z" fill="#000000" stroke="#000000" stroke-width="0" stroke-linecap="butt"/><path d="M202.04231,180.05887c0,0.55805 -3.89651,0.86104 -4.04861,1.36962c-0.34028,1.13783 4.6303,1.35665 3.71196,2.06358c-0.43096,0.33175 -2.77169,0.04424 -3.70773,0.46731c-0.59289,0.26798 4.37066,1.33924 3.81424,1.5102c-0.48926,0.15033 -5.03836,0.18411 -5.36469,0.18411c-3.08993,0 -5.59482,-2.50489 -5.59482,-5.59482c0,-3.08993 2.50489,-5.59483 5.59482,-5.59483c1.73159,0 4.71492,0.33437 5.74118,1.56979c0.41431,0.49875 -5.25391,1.36561 -5.03185,1.98841c0.20942,0.58737 4.8855,1.37733 4.8855,2.03662z" data-paper-data="{&quot;index&quot;:null}" fill="#ff0000" stroke="none" stroke-width="0" stroke-linecap="butt"/></g></g></svg>