<svg version="1.1" xmlns="http://www.w3.org/2000/svg" xmlns:xlink="http://www.w3.org/1999/xlink" width="24.33895" height="45.42003" viewBox="0,0,24.33895,45.42003"><g transform="translate(-227.5447,-142.64894)"><g data-paper-data="{&quot;isPaintingLayer&quot;:true}" fill-rule="nonzero" stroke="none" stroke-linecap="butt" stroke-linejoin="miter" stroke-miterlimit="10" stroke-dasharray="" stroke-dashoffset="0" style="mix-blend-mode: normal"><path d="M244.42035,165.26055v22.80842h-8.65808v-22.80842z" data-paper-data="{&quot;index&quot;:null}" fill="#000000" stroke-width="0"/><path d="M244.08152,165.53589v22.25775h-7.95504v-22.25775z" data-paper-data="{&quot;index&quot;:null}" fill="#ffffff" stroke-width="0"/><path d="M243.41141,166.05604v21.89378h-6.62688v-21.89378z" data-paper-data="{&quot;index&quot;:null}" fill="#a0a0a0" stroke-width="0"/><path d="M242.53555,166.78965v20.91844h-4.7537v-20.91844z" data-paper-data="{&quot;index&quot;:null}" fill="#000000" stroke-width="0"/><path d="M242.29525,167.01362v21.02386h-4.1818v-21.02386z" data-paper-data="{&quot;index&quot;:null}" fill="#ffffff" stroke-width="0"/><path d="M227.5447,164.10826c0,-1.92809 1.02462,-3.4911 2.28857,-3.4911c1.26395,0 2.28857,1.56301 2.28857,3.4911c0,1.92809 -1.02462,3.49111 -2.28857,3.49111c-1.26395,0 -2.28857,-1.56302 -2.28857,-3.49111z" fill="#000000" stroke-width="0"/><path d="M247.30651,164.10826c0,-1.92809 1.02462,-3.4911 2.28857,-3.4911c1.26394,0 2.28857,1.56301 2.28857,3.4911c0,1.92809 -1.02462,3.49111 -2.28857,3.49111c-1.26395,0 -2.28857,-1.56302 -2.28857,-3.49111z" fill="#000000" stroke-width="0"/><path d="M229.91659,167.59937v-24.0876h19.72015v24.0876z" fill="#000000" stroke-width="0"/><path d="M229.84659,143.51176c1.26395,0 2.28857,1.56302 2.28857,3.49111c0,1.92809 -1.02462,3.4911 -2.28857,3.4911c-1.26395,0 -2.28857,-1.56301 -2.28857,-3.4911c0,-1.92809 1.02463,-3.49111 2.28857,-3.49111z" data-paper-data="{&quot;index&quot;:null}" fill="#000000" stroke-width="0"/><path d="M249.56674,143.51176c1.26395,0 2.28857,1.56302 2.28857,3.49111c0,1.92809 -1.02463,3.4911 -2.28857,3.4911c-1.26395,0 -2.28857,-1.56301 -2.28857,-3.4911c0,-1.92809 1.02463,-3.49111 2.28857,-3.49111z" data-paper-data="{&quot;index&quot;:null}" fill="#000000" stroke-width="0"/><path d="M251.85531,147.10266v16.90581h-24.29729v-16.90581z" data-paper-data="{&quot;index&quot;:null}" fill="#000000" stroke-width="0"/><path d="M227.95514,163.82968c0,-1.86528 0.99125,-3.37738 2.21402,-3.37738c1.22277,0 2.21402,1.5121 2.21402,3.37738c0,1.86528 -0.99125,3.37739 -2.21402,3.37739c-1.22277,0 -2.21402,-1.5121 -2.21402,-3.37739z" fill="#ffffff" stroke-width="0"/><path d="M247.07325,163.82968c0,-1.86528 0.99125,-3.37738 2.21402,-3.37738c1.22277,0 2.21402,1.5121 2.21402,3.37738c0,1.86528 -0.99125,3.37739 -2.21402,3.37739c-1.22277,0 -2.21402,-1.5121 -2.21402,-3.37739z" fill="#ffffff" stroke-width="0"/><path d="M230.24977,167.20707v-23.303h19.07781v23.303z" fill="#ffffff" stroke-width="0"/><path d="M230.18205,143.90407c1.22277,0 2.21402,1.5121 2.21402,3.37739c0,1.86528 -0.99125,3.37739 -2.21402,3.37739c-1.22277,0 -2.21402,-1.5121 -2.21402,-3.37739c0,-1.86528 0.99125,-3.37739 2.21402,-3.37739z" data-paper-data="{&quot;index&quot;:null}" fill="#ffffff" stroke-width="0"/><path d="M249.25986,143.90407c1.22277,0 2.21402,1.5121 2.21402,3.37739c0,1.86528 -0.99125,3.37739 -2.21402,3.37739c-1.22277,0 -2.21402,-1.5121 -2.21402,-3.37739c0,-1.86528 0.99125,-3.37739 2.21402,-3.37739z" data-paper-data="{&quot;index&quot;:null}" fill="#ffffff" stroke-width="0"/><path d="M251.47389,147.378v16.35514h-23.50585v-16.35514z" data-paper-data="{&quot;index&quot;:null}" fill="#ffffff" stroke-width="0"/><path d="M228.69675,163.30337c0,-1.74663 0.9282,-3.16255 2.07319,-3.16255c1.14499,0 2.07319,1.41592 2.07319,3.16255c0,1.74663 -0.9282,3.16256 -2.07319,3.16256c-1.14499,0 -2.07319,-1.41593 -2.07319,-3.16256z" fill="#a0a0a0" stroke-width="0"/><path d="M246.5988,163.30337c0,-1.74663 0.9282,-3.16255 2.07319,-3.16255c1.14499,0 2.07319,1.41592 2.07319,3.16255c0,1.74663 -0.9282,3.16256 -2.07319,3.16256c-1.14499,0 -2.07319,-1.41593 -2.07319,-3.16256z" fill="#a0a0a0" stroke-width="0"/><path d="M230.84542,166.46594v-21.82075h17.86431v21.82075z" fill="#a0a0a0" stroke-width="0"/><path d="M230.78201,144.64519c1.14499,0 2.07319,1.41592 2.07319,3.16256c0,1.74663 -0.9282,3.16255 -2.07319,3.16255c-1.14499,0 -2.07319,-1.41592 -2.07319,-3.16255c0,-1.74663 0.9282,-3.16256 2.07319,-3.16256z" data-paper-data="{&quot;index&quot;:null}" fill="#a0a0a0" stroke-width="0"/><path d="M248.64632,144.64519c1.14499,0 2.07319,1.41592 2.07319,3.16256c0,1.74663 -0.9282,3.16255 -2.07319,3.16255c-1.14499,0 -2.07319,-1.41592 -2.07319,-3.16255c0,-1.74663 0.9282,-3.16256 2.07319,-3.16256z" data-paper-data="{&quot;index&quot;:null}" fill="#a0a0a0" stroke-width="0"/><path d="M250.71951,147.89815v15.31483h-22.01069v-15.31483z" data-paper-data="{&quot;index&quot;:null}" fill="#a0a0a0" stroke-width="0"/><path d="M229.82062,162.56111c0,-1.5793 0.83927,-2.85957 1.87457,-2.85957c1.0353,0 1.87457,1.28027 1.87457,2.85957c0,1.5793 -0.83927,2.85958 -1.87457,2.85958c-1.0353,0 -1.87457,-1.28028 -1.87457,-2.85958z" fill="#000000" stroke-width="0"/><path d="M246.00759,162.56111c0,-1.5793 0.83927,-2.85957 1.87457,-2.85957c1.0353,0 1.87457,1.28027 1.87457,2.85957c0,1.5793 -0.83927,2.85958 -1.87457,2.85958c-1.0353,0 -1.87457,-1.28028 -1.87457,-2.85958z" fill="#000000" stroke-width="0"/><path d="M231.76344,165.42069v-19.73024h16.15285v19.73024z" fill="#000000" stroke-width="0"/><path d="M231.70611,145.69045c1.0353,0 1.87457,1.28028 1.87457,2.85958c0,1.5793 -0.83927,2.85957 -1.87457,2.85957c-1.0353,0 -1.87458,-1.28027 -1.87458,-2.85957c0,-1.5793 0.83928,-2.85958 1.87458,-2.85958z" data-paper-data="{&quot;index&quot;:null}" fill="#000000" stroke-width="0"/><path d="M247.85895,145.69045c1.0353,0 1.87458,1.28028 1.87458,2.85958c0,1.5793 -0.83928,2.85957 -1.87458,2.85957c-1.0353,0 -1.87457,-1.28027 -1.87457,-2.85957c0,-1.5793 0.83927,-2.85958 1.87457,-2.85958z" data-paper-data="{&quot;index&quot;:null}" fill="#000000" stroke-width="0"/><path d="M249.73352,148.63176v13.84761h-19.90199v-13.84761z" data-paper-data="{&quot;index&quot;:null}" fill="#000000" stroke-width="0"/><path d="M230.19426,162.33449c0,-1.52821 0.81213,-2.76707 1.81393,-2.76707c1.00181,0 1.81393,1.23886 1.81393,2.76707c0,1.52821 -0.81213,2.76707 -1.81393,2.76707c-1.00181,0 -1.81393,-1.23886 -1.81393,-2.76707z" fill="#ff0000" stroke-width="0"/><path d="M245.85761,162.33449c0,-1.52821 0.81213,-2.76707 1.81393,-2.76707c1.00181,0 1.81393,1.23886 1.81393,2.76707c0,1.52821 -0.81213,2.76707 -1.81393,2.76707c-1.00181,0 -1.81393,-1.23886 -1.81393,-2.76707z" fill="#ff0000" stroke-width="0"/><path d="M232.07423,165.10157v-19.092h15.63033v19.092z" fill="#ff0000" stroke-width="0"/><path d="M232.01876,146.00957c1.00181,0 1.81393,1.23887 1.81393,2.76708c0,1.52821 -0.81213,2.76707 -1.81393,2.76707c-1.00181,0 -1.81393,-1.23886 -1.81393,-2.76707c0,-1.52821 0.81213,-2.76708 1.81393,-2.76708z" data-paper-data="{&quot;index&quot;:null}" fill="#ff0000" stroke-width="0"/><path d="M247.64908,146.00957c1.00181,0 1.81394,1.23887 1.81394,2.76708c0,1.52821 -0.81213,2.76707 -1.81394,2.76707c-1.00181,0 -1.81393,-1.23886 -1.81393,-2.76707c0,-1.52821 0.81213,-2.76708 1.81393,-2.76708z" data-paper-data="{&quot;index&quot;:null}" fill="#ff0000" stroke-width="0"/><path d="M249.46301,148.85574v13.39966h-19.25819v-13.39966z" data-paper-data="{&quot;index&quot;:null}" fill="#ff0000" stroke-width="0"/><text transform="translate(237.2127,162.69894) scale(0.32777,0.5)" font-size="40" xml:space="preserve" fill="#ecff00" fill-rule="nonzero" stroke="none" stroke-width="1" stroke-linecap="butt" stroke-linejoin="miter" stroke-miterlimit="10" stroke-dasharray="" stroke-dashoffset="0" font-family="&quot;Title Card-Numbers&quot;, Sans Serif" font-weight="normal" text-anchor="start" style="mix-blend-mode: normal"><tspan x="0" dy="0">?</tspan></text></g></g></svg>