<svg version="1.1" xmlns="http://www.w3.org/2000/svg" xmlns:xlink="http://www.w3.org/1999/xlink" width="32.1205" height="27.05453" viewBox="0,0,32.1205,27.05453"><defs><linearGradient x1="240.00869" y1="172.03829" x2="240.00869" y2="188.37286" gradientUnits="userSpaceOnUse" id="color-1"><stop offset="0" stop-color="#890000"/><stop offset="1" stop-color="#ff0000"/></linearGradient></defs><g transform="translate(-222.97417,-166.47274)"><g data-paper-data="{&quot;isPaintingLayer&quot;:true}" fill-rule="nonzero" stroke-linejoin="miter" stroke-miterlimit="10" stroke-dasharray="" stroke-dashoffset="0" style="mix-blend-mode: normal"><path d="M234.66383,180.20556c0,0.55805 -3.89651,0.86104 -4.04861,1.36962c-0.34028,1.13783 4.6303,1.35665 3.71196,2.06358c-0.43096,0.33175 -2.7717,0.04424 -3.70774,0.46731c-0.59289,0.26798 4.37067,1.33924 3.81424,1.51019c-0.48926,0.15033 -5.03835,0.18412 -5.36469,0.18412c-3.08993,0 -5.59482,-2.50489 -5.59482,-5.59482c0,-3.08993 2.50489,-5.59483 5.59482,-5.59483c1.73159,0 4.71492,0.33437 5.74117,1.56979c0.41431,0.49875 -5.25391,1.36561 -5.03185,1.98841c0.20942,0.58737 4.8855,1.37733 4.8855,2.03662z" data-paper-data="{&quot;index&quot;:null}" fill="#ff0000" stroke="#000000" stroke-width="1" stroke-linecap="butt"/><path d="M234.66383,180.20556c0,0.55805 -3.89651,0.86104 -4.04861,1.36962c-0.34028,1.13783 4.6303,1.35665 3.71196,2.06358c-0.43096,0.33175 -2.77169,0.04424 -3.70773,0.46731c-0.59289,0.26798 4.37066,1.33924 3.81424,1.5102c-0.48926,0.15033 -5.03836,0.18411 -5.36469,0.18411c-3.08993,0 -5.59482,-2.50489 -5.59482,-5.59482c0,-3.08993 2.50489,-5.59483 5.59482,-5.59483c1.73159,0 4.71492,0.33437 5.74118,1.56979c0.41431,0.49875 -5.25391,1.36561 -5.03185,1.98841c0.20942,0.58737 4.8855,1.37733 4.8855,2.03662z" data-paper-data="{&quot;index&quot;:null}" fill="#ff0000" stroke="none" stroke-width="0" stroke-linecap="butt"/><path d="M252.75851,180.20558c0,4.51066 -5.70829,8.16728 -12.74982,8.16728c-7.04153,0 -12.74982,-3.65662 -12.74982,-8.16728c0,-4.51066 5.70829,-8.16728 12.74982,-8.16728c7.04153,0 12.74982,3.65661 12.74982,8.16728z" fill="#ff0000" stroke="#000000" stroke-width="1" stroke-linecap="butt"/><path d="M234.16833,188.3392c1.14243,0 2.06855,0.47668 2.06855,1.0647c0,0.58802 -0.92612,1.0647 -2.06855,1.0647c-1.14243,0 -2.06856,-0.47668 -2.06856,-1.0647c0,-0.58802 0.92613,-1.0647 2.06856,-1.0647z" fill="#ff0000" stroke="#000000" stroke-width="1" stroke-linecap="butt"/><path d="M236.48699,188.2527c0,1.14243 -0.47668,2.06855 -1.0647,2.06855c-0.58802,0 -1.0647,-0.92612 -1.0647,-2.06855c0,-1.14243 0.47668,-2.06856 1.0647,-2.06856c0.58802,0 1.0647,0.92613 1.0647,2.06856z" fill="#ff0000" stroke="#000000" stroke-width="1" stroke-linecap="butt"/><path d="M236.48699,188.2527c0,1.14243 -0.47668,2.06855 -1.0647,2.06855c-0.58802,0 -1.0647,-0.92612 -1.0647,-2.06855c0,-1.14243 0.47668,-2.06855 1.0647,-2.06855c0.58802,0 1.0647,0.92612 1.0647,2.06855z" fill="#ff0000" stroke="none" stroke-width="0" stroke-linecap="butt"/><path d="M233.8685,190.88671c0,1.14243 -0.47668,2.06855 -1.0647,2.06855c-0.58802,0 -1.0647,-0.92612 -1.0647,-2.06855c0,-1.14243 0.47669,-2.06856 1.0647,-2.06856c0.58802,0 1.0647,0.92613 1.0647,2.06856z" fill="#ff0000" stroke="#000000" stroke-width="1" stroke-linecap="butt"/><path d="M233.8685,190.8867c0,1.14243 -0.47668,2.06855 -1.0647,2.06855c-0.58802,0 -1.0647,-0.92612 -1.0647,-2.06855c0,-1.14243 0.47668,-2.06855 1.0647,-2.06855c0.58802,0 1.0647,0.92612 1.0647,2.06855z" fill="#ff0000" stroke="none" stroke-width="0" stroke-linecap="butt"/><path d="M234.16832,188.3392c1.14243,0 2.06855,0.47668 2.06855,1.0647c0,0.58802 -0.92612,1.06469 -2.06855,1.06469c-1.14243,0 -2.06855,-0.47668 -2.06855,-1.06469c0,-0.58802 0.92612,-1.0647 2.06855,-1.0647z" fill="#ff0000" stroke="none" stroke-width="0" stroke-linecap="butt"/><path d="M232.3519,189.31789l-0.19522,0.53686" fill="none" stroke="#ff0000" stroke-width="0.5" stroke-linecap="round"/><path d="M235.49984,190.07437l-0.9151,0.12201" fill="none" stroke="#ff0000" stroke-width="0.5" stroke-linecap="round"/><path d="M234.60914,187.89033c0,0 0.04646,0.28787 -0.1519,0.49258c-0.25608,0.26427 -0.49477,0.2029 -0.49477,0.2029" fill="none" stroke="#ff0000" stroke-width="0.5" stroke-linecap="round"/><path d="M229.99311,186.27175c1.14243,0 2.06855,0.47668 2.06855,1.0647c0,0.58802 -0.92612,1.0647 -2.06855,1.0647c-1.14243,0 -2.06856,-0.47668 -2.06856,-1.0647c0,-0.58802 0.92613,-1.0647 2.06856,-1.0647z" fill="#ff0000" stroke="#000000" stroke-width="1" stroke-linecap="butt"/><path d="M232.31177,186.18526c0,1.14243 -0.47668,2.06855 -1.0647,2.06855c-0.58802,0 -1.0647,-0.92612 -1.0647,-2.06855c0,-1.14243 0.47668,-2.06856 1.0647,-2.06856c0.58802,0 1.0647,0.92613 1.0647,2.06856z" fill="#ff0000" stroke="#000000" stroke-width="1" stroke-linecap="butt"/><path d="M232.31177,186.18524c0,1.14243 -0.47668,2.06855 -1.0647,2.06855c-0.58802,0 -1.0647,-0.92612 -1.0647,-2.06855c0,-1.14243 0.47668,-2.06855 1.0647,-2.06855c0.58802,0 1.0647,0.92612 1.0647,2.06855z" fill="#ff0000" stroke="none" stroke-width="0" stroke-linecap="butt"/><path d="M229.69328,188.81927c0,1.14243 -0.47668,2.06855 -1.0647,2.06855c-0.58802,0 -1.0647,-0.92612 -1.0647,-2.06855c0,-1.14243 0.47669,-2.06856 1.0647,-2.06856c0.58802,0 1.0647,0.92613 1.0647,2.06856z" fill="#ff0000" stroke="#000000" stroke-width="1" stroke-linecap="butt"/><path d="M229.69328,188.81926c0,1.14243 -0.47668,2.06855 -1.0647,2.06855c-0.58802,0 -1.0647,-0.92612 -1.0647,-2.06855c0,-1.14243 0.47668,-2.06855 1.0647,-2.06855c0.58802,0 1.0647,0.92612 1.0647,2.06855z" fill="#ff0000" stroke="none" stroke-width="0" stroke-linecap="butt"/><path d="M229.9931,186.27175c1.14243,0 2.06855,0.47668 2.06855,1.0647c0,0.58802 -0.92612,1.0647 -2.06855,1.0647c-1.14243,0 -2.06855,-0.47668 -2.06855,-1.0647c0,-0.58802 0.92612,-1.0647 2.06855,-1.0647z" fill="#ff0000" stroke="none" stroke-width="0" stroke-linecap="butt"/><path d="M227.98146,187.78729l0.19522,-0.53686" fill="none" stroke="#ff0000" stroke-width="0.5" stroke-linecap="round"/><path d="M231.32462,188.00692l-0.9151,0.12201" fill="none" stroke="#ff0000" stroke-width="0.5" stroke-linecap="round"/><path d="M230.43392,185.82289c0,0 0.04646,0.28786 -0.1519,0.49257c-0.25608,0.26427 -0.49477,0.2029 -0.49477,0.2029" fill="none" stroke="#ff0000" stroke-width="0.5" stroke-linecap="round"/><path d="M248.50542,189.47589c0,0.58802 -0.92613,1.0647 -2.06856,1.0647c-1.14243,0 -2.06855,-0.47668 -2.06855,-1.0647c0,-0.58802 0.92612,-1.0647 2.06855,-1.0647c1.14243,0 2.06856,0.47668 2.06856,1.0647z" data-paper-data="{&quot;index&quot;:null}" fill="#ff0000" stroke="#000000" stroke-width="1" stroke-linecap="butt"/><path d="M245.18289,186.25615c0.58802,0 1.0647,0.92613 1.0647,2.06856c0,1.14243 -0.47668,2.06855 -1.0647,2.06855c-0.58802,0 -1.0647,-0.92612 -1.0647,-2.06855c0,-1.14243 0.47668,-2.06856 1.0647,-2.06856z" data-paper-data="{&quot;index&quot;:null}" fill="#ff0000" stroke="#000000" stroke-width="1" stroke-linecap="butt"/><path d="M245.18289,186.25615c0.58802,0 1.0647,0.92612 1.0647,2.06855c0,1.14243 -0.47668,2.06855 -1.0647,2.06855c-0.58802,0 -1.0647,-0.92612 -1.0647,-2.06855c0,-1.14243 0.47668,-2.06855 1.0647,-2.06855z" data-paper-data="{&quot;index&quot;:null}" fill="#ff0000" stroke="none" stroke-width="0" stroke-linecap="butt"/><path d="M247.80138,188.89017c0.58802,0 1.0647,0.92613 1.0647,2.06856c0,1.14243 -0.47669,2.06855 -1.0647,2.06855c-0.58802,0 -1.0647,-0.92612 -1.0647,-2.06855c0,-1.14243 0.47668,-2.06856 1.0647,-2.06856z" data-paper-data="{&quot;index&quot;:null}" fill="#ff0000" stroke="#000000" stroke-width="1" stroke-linecap="butt"/><path d="M247.80138,188.89017c0.58802,0 1.0647,0.92612 1.0647,2.06855c0,1.14243 -0.47668,2.06855 -1.0647,2.06855c-0.58802,0 -1.0647,-0.92612 -1.0647,-2.06855c0,-1.14243 0.47668,-2.06855 1.0647,-2.06855z" data-paper-data="{&quot;index&quot;:null}" fill="#ff0000" stroke="none" stroke-width="0" stroke-linecap="butt"/><path d="M248.50542,189.47589c0,0.58802 -0.92612,1.0647 -2.06855,1.0647c-1.14243,0 -2.06855,-0.47668 -2.06855,-1.0647c0,-0.58802 0.92612,-1.0647 2.06855,-1.0647c1.14243,0 2.06855,0.47668 2.06855,1.0647z" data-paper-data="{&quot;index&quot;:null}" fill="#ff0000" stroke="none" stroke-width="0" stroke-linecap="butt"/><path d="M248.25329,189.38989l0.19522,0.53686" data-paper-data="{&quot;index&quot;:null}" fill="none" stroke="#ff0000" stroke-width="0.5" stroke-linecap="round"/><path d="M245.10535,190.14637l0.9151,0.12201" data-paper-data="{&quot;index&quot;:null}" fill="none" stroke="#ff0000" stroke-width="0.5" stroke-linecap="round"/><path d="M246.64272,188.65781c0,0 -0.23869,0.06137 -0.49477,-0.2029c-0.19836,-0.20471 -0.1519,-0.49257 -0.1519,-0.49257" data-paper-data="{&quot;index&quot;:null}" fill="none" stroke="#ff0000" stroke-width="0.5" stroke-linecap="round"/><path d="M252.68064,187.40845c0,0.58802 -0.92613,1.0647 -2.06856,1.0647c-1.14243,0 -2.06855,-0.47669 -2.06855,-1.0647c0,-0.58802 0.92612,-1.0647 2.06855,-1.0647c1.14243,0 2.06856,0.47668 2.06856,1.0647z" data-paper-data="{&quot;index&quot;:null}" fill="#ff0000" stroke="#000000" stroke-width="1" stroke-linecap="butt"/><path d="M249.35811,184.18871c0.58802,0 1.0647,0.92613 1.0647,2.06856c0,1.14243 -0.47668,2.06855 -1.0647,2.06855c-0.58802,0 -1.0647,-0.92612 -1.0647,-2.06855c0,-1.14243 0.47668,-2.06856 1.0647,-2.06856z" data-paper-data="{&quot;index&quot;:null}" fill="#ff0000" stroke="#000000" stroke-width="1" stroke-linecap="butt"/><path d="M249.35811,184.18871c0.58802,0 1.0647,0.92612 1.0647,2.06855c0,1.14243 -0.47668,2.06855 -1.0647,2.06855c-0.58802,0 -1.0647,-0.92612 -1.0647,-2.06855c0,-1.14243 0.47668,-2.06855 1.0647,-2.06855z" data-paper-data="{&quot;index&quot;:null}" fill="#ff0000" stroke="none" stroke-width="0" stroke-linecap="butt"/><path d="M251.9766,186.82272c0.58802,0 1.0647,0.92613 1.0647,2.06856c0,1.14243 -0.47669,2.06855 -1.0647,2.06855c-0.58802,0 -1.0647,-0.92612 -1.0647,-2.06855c0,-1.14243 0.47668,-2.06856 1.0647,-2.06856z" data-paper-data="{&quot;index&quot;:null}" fill="#ff0000" stroke="#000000" stroke-width="1" stroke-linecap="butt"/><path d="M251.9766,186.82272c0.58802,0 1.0647,0.92612 1.0647,2.06855c0,1.14243 -0.47668,2.06855 -1.0647,2.06855c-0.58802,0 -1.0647,-0.92612 -1.0647,-2.06855c0,-1.14243 0.47668,-2.06855 1.0647,-2.06855z" data-paper-data="{&quot;index&quot;:null}" fill="#ff0000" stroke="none" stroke-width="0" stroke-linecap="butt"/><path d="M252.68064,187.40845c0,0.58802 -0.92612,1.0647 -2.06855,1.0647c-1.14243,0 -2.06855,-0.47668 -2.06855,-1.0647c0,-0.58802 0.92612,-1.0647 2.06855,-1.0647c1.14243,0 2.06855,0.47668 2.06855,1.0647z" data-paper-data="{&quot;index&quot;:null}" fill="#ff0000" stroke="none" stroke-width="0" stroke-linecap="butt"/><path d="M252.42851,187.32244l0.19522,0.53686" data-paper-data="{&quot;index&quot;:null}" fill="none" stroke="#ff0000" stroke-width="0.5" stroke-linecap="round"/><path d="M250.19567,188.20093l-0.9151,-0.12201" data-paper-data="{&quot;index&quot;:null}" fill="none" stroke="#ff0000" stroke-width="0.5" stroke-linecap="round"/><path d="M247.87136,173.22094c0,-0.82111 0.66564,-1.48676 1.48676,-1.48676c0.82111,0 1.48676,0.66564 1.48676,1.48676c0,0.82111 -0.66565,1.48676 -1.48676,1.48676c-0.82111,0 -1.48676,-0.66565 -1.48676,-1.48676z" fill="#ff0000" stroke="#000000" stroke-width="1" stroke-linecap="butt"/><path d="M247.87135,173.22094c0,-0.82111 0.66565,-1.48676 1.48676,-1.48676c0.82111,0 1.48676,0.66565 1.48676,1.48676c0,0.82111 -0.66565,1.48676 -1.48676,1.48676c-0.82111,0 -1.48676,-0.66565 -1.48676,-1.48676z" fill="#ffffff" stroke="#000000" stroke-width="0" stroke-linecap="butt"/><path d="M250.1168,171.73418c0,-0.40211 0.32596,-0.72807 0.72807,-0.72807c0.40211,0 0.72807,0.32596 0.72807,0.72807c0,0.40211 -0.32597,0.72807 -0.72807,0.72807c-0.40211,0 -0.72807,-0.32596 -0.72807,-0.72807z" fill="#ff0000" stroke="#000000" stroke-width="0.5" stroke-linecap="butt"/><path d="M250.1168,171.73418c0,-0.40211 0.32596,-0.72807 0.72807,-0.72807c0.40211,0 0.72807,0.32597 0.72807,0.72807c0,0.40211 -0.32597,0.72807 -0.72807,0.72807c-0.40211,0 -0.72807,-0.32596 -0.72807,-0.72807z" fill="#ffffff" stroke="#000000" stroke-width="0" stroke-linecap="butt"/><path d="M250.45757,169.0413c0,-1.14243 0.92612,-2.06855 2.06855,-2.06855c1.14243,0 2.06855,0.92612 2.06855,2.06855c0,1.14243 -0.92612,2.06855 -2.06855,2.06855c-1.14243,0 -2.06855,-0.92612 -2.06855,-2.06855z" fill="#ff0000" stroke="#000000" stroke-width="1" stroke-linecap="butt"/><path d="M250.45757,169.0413c0,-1.14243 0.92612,-2.06855 2.06855,-2.06855c1.14243,0 2.06855,0.92612 2.06855,2.06855c0,1.14243 -0.92612,2.06855 -2.06855,2.06855c-1.14243,0 -2.06855,-0.92612 -2.06855,-2.06855z" fill="#ffffff" stroke="#000000" stroke-width="0" stroke-linecap="butt"/><path d="M251.78513,169.0413c0,-0.40923 0.33176,-0.74099 0.74099,-0.74099c0.40923,0 0.74099,0.33176 0.74099,0.74099c0,0.40923 -0.33176,0.74099 -0.74099,0.74099c-0.40923,0 -0.74099,-0.33176 -0.74099,-0.74099z" fill="#000000" stroke="none" stroke-width="0" stroke-linecap="butt"/><path d="M250.45757,169.0413c0,-1.14243 0.92612,-2.06855 2.06855,-2.06855c0.42703,0 0.82386,0.1294 1.15337,0.35113c0.09622,0.06474 -2.65738,3.14035 -2.71558,3.07335c-0.31542,-0.36309 -0.50634,-0.83721 -0.50634,-1.35593z" fill="#ff0000" stroke="#000000" stroke-width="0" stroke-linecap="butt"/><path d="M230.50349,174.81426c-0.82111,0 -1.48676,-0.66564 -1.48676,-1.48676c0,-0.82111 0.66565,-1.48676 1.48676,-1.48676c0.82111,0 1.48675,0.66564 1.48675,1.48676c0,0.82111 -0.66564,1.48676 -1.48675,1.48676z" data-paper-data="{&quot;index&quot;:null}" fill="#ff0000" stroke="#000000" stroke-width="1" stroke-linecap="butt"/><path d="M230.50349,174.81426c-0.82111,0 -1.48676,-0.66564 -1.48676,-1.48676c0,-0.82111 0.66565,-1.48676 1.48676,-1.48676c0.82111,0 1.48676,0.66565 1.48676,1.48676c0,0.82111 -0.66565,1.48676 -1.48676,1.48676z" data-paper-data="{&quot;index&quot;:null}" fill="#ffffff" stroke="#000000" stroke-width="0" stroke-linecap="butt"/><path d="M229.01673,172.56882c-0.40211,0 -0.72808,-0.32596 -0.72808,-0.72807c0,-0.40211 0.32597,-0.72807 0.72808,-0.72807c0.40211,0 0.72807,0.32596 0.72807,0.72807c0,0.40211 -0.32596,0.72807 -0.72807,0.72807z" data-paper-data="{&quot;index&quot;:null}" fill="#ff0000" stroke="#000000" stroke-width="0.5" stroke-linecap="butt"/><path d="M229.01673,172.56882c-0.40211,0 -0.72808,-0.32596 -0.72808,-0.72807c0,-0.40211 0.32597,-0.72807 0.72808,-0.72807c0.40211,0 0.72807,0.32597 0.72807,0.72807c0,0.40211 -0.32596,0.72807 -0.72807,0.72807z" data-paper-data="{&quot;index&quot;:null}" fill="#ffffff" stroke="#000000" stroke-width="0" stroke-linecap="butt"/><path d="M227.33548,171.21642c-1.14243,0 -2.06855,-0.92612 -2.06855,-2.06855c0,-1.14243 0.92612,-2.06855 2.06855,-2.06855c1.14243,0 2.06855,0.92612 2.06855,2.06855c0,1.14243 -0.92612,2.06855 -2.06855,2.06855z" data-paper-data="{&quot;index&quot;:null}" fill="#ff0000" stroke="#000000" stroke-width="1" stroke-linecap="butt"/><path d="M227.33548,171.21642c-1.14243,0 -2.06855,-0.92612 -2.06855,-2.06855c0,-1.14243 0.92612,-2.06855 2.06855,-2.06855c1.14243,0 2.06855,0.92612 2.06855,2.06855c0,1.14243 -0.92612,2.06855 -2.06855,2.06855z" data-paper-data="{&quot;index&quot;:null}" fill="#ffffff" stroke="#000000" stroke-width="0" stroke-linecap="butt"/><path d="M227.33548,169.88884c-0.40923,0 -0.74099,-0.33175 -0.74099,-0.74099c0,-0.40923 0.33175,-0.74099 0.74099,-0.74099c0.40923,0 0.74099,0.33176 0.74099,0.74099c0,0.40923 -0.33176,0.74099 -0.74099,0.74099z" data-paper-data="{&quot;index&quot;:null}" fill="#000000" stroke="none" stroke-width="0" stroke-linecap="butt"/><path d="M228.89769,170.50378c-0.0582,0.067 -2.8118,-3.0086 -2.71559,-3.07334c0.32951,-0.22173 0.72634,-0.35113 1.15337,-0.35113c1.14243,0 2.06856,0.92612 2.06856,2.06855c0,0.51871 -0.19092,0.99284 -0.50634,1.35592z" data-paper-data="{&quot;index&quot;:null}" fill="#ff0000" stroke="#000000" stroke-width="0" stroke-linecap="butt"/><path d="M252.75851,180.20558c0,4.51066 -5.70829,8.16728 -12.74982,8.16728c-7.04153,0 -12.74982,-3.65662 -12.74982,-8.16728c0,-4.51066 5.70829,-8.16728 12.74982,-8.16728c7.04153,0 12.74982,3.65661 12.74982,8.16728z" fill="url(#color-1)" stroke="none" stroke-width="0" stroke-linecap="butt"/><path d="M245.99132,183.84166c0,1.14243 -2.67852,2.06855 -5.98263,2.06855c-3.30411,0 -5.98263,-0.92612 -5.98263,-2.06855c0,-1.14243 2.67852,-2.06855 5.98263,-2.06855c3.30411,0 5.98263,0.92612 5.98263,2.06855z" fill="#ffffff" stroke="#000000" stroke-width="0.5" stroke-linecap="butt"/><path d="M245.99132,183.84166c0,1.14243 -2.67852,2.06855 -5.98263,2.06855c-3.30411,0 -5.98263,-0.92612 -5.98263,-2.06855c0,-1.14243 2.67852,-2.06855 5.98263,-2.06855c3.30411,0 5.98263,0.92612 5.98263,2.06855z" fill="#ffffff" stroke="#000000" stroke-width="0" stroke-linecap="butt"/><path d="M245.79497,183.84165c0,1.06062 -2.59061,1.92042 -5.78628,1.92042c-3.19567,0 -5.78628,-0.8598 -5.78628,-1.92042c0,-1.06062 2.59061,-1.92041 5.78628,-1.92041c3.19567,0 5.78628,0.85979 5.78628,1.92041z" fill="#000000" stroke="#000000" stroke-width="0" stroke-linecap="butt"/></g></g></svg>