<svg version="1.1" xmlns="http://www.w3.org/2000/svg" xmlns:xlink="http://www.w3.org/1999/xlink" width="179.97588" height="329.77033" viewBox="0,0,179.97588,329.77033"><g transform="translate(-147.76206,-26.23753)"><g data-paper-data="{&quot;isPaintingLayer&quot;:true}" fill-rule="nonzero" stroke-linecap="butt" stroke-linejoin="miter" stroke-miterlimit="10" stroke-dasharray="" stroke-dashoffset="0" style="mix-blend-mode: normal"><path d="M152.26206,345.09672c0,-56.71431 164.8547,-184.7398 170.79122,-177.86551c4.09058,4.73675 8.59538,12.60771 -1.16214,22.36523c-31.04336,31.04335 -159.9387,159.93869 -159.98966,159.98966c-3.78218,3.78219 -9.63942,1.82412 -9.63942,-4.48938z" fill="#4cff00" stroke="#000000" stroke-width="9"/><path d="M152.26206,345.09672c0,-56.71431 164.8547,-184.7398 170.79122,-177.86551c4.09058,4.73675 8.59538,12.60771 -1.16214,22.36523c-31.04336,31.04335 -159.9387,159.93869 -159.98966,159.98966c-3.78218,3.78219 -9.63942,1.82412 -9.63942,-4.48938z" fill="#257b00" stroke="none" stroke-width="0"/><path d="M311.47911,192.62492c0,-2.24043 0,-22.85865 0,-25.0943c0,-0.53525 0.76472,-0.80821 1.02944,-0.5435c2.30305,2.30306 11.57697,11.51078 12.03094,12.03645c0.31281,0.36222 0.65729,0.96411 -0.08887,1.71026c-2.37388,2.37388 -12.23048,12.23049 -12.23438,12.23438c-0.28922,0.28922 -0.73713,0.1395 -0.73713,-0.3433z" fill="#4dff00" stroke="none" stroke-width="0"/><g fill="#4dff00" stroke="none" stroke-width="0"><path d="M153.65548,46.57701c0,-2.64118 0,-12.11751 0,-12.11751h8.219c0,0 0,10.52996 0,12.97075c0,0.9599 -0.70831,2.00609 -1.66047,2.00609c-1.47761,0 -3.54248,0 -4.45889,0c-0.8827,0 -2.09964,-1.57635 -2.09964,-2.85934z"/><path d="M153.65548,34.45951c0,0 0,-5.78597 0,-7.12366c0,-0.52454 0.62985,-1.09534 1.19315,-1.09534c1.36692,0 7.02585,0 7.02585,0v8.219z"/><path d="M173.98893,34.45653c-2.64118,0 -12.1175,0 -12.1175,0v-8.219c0,0 10.52996,0 12.97075,0c0.95989,0 2.00609,0.70831 2.00609,1.66048c0,1.47761 0,3.54248 0,4.45889c0,0.88271 -1.57635,2.09963 -2.85934,2.09963z"/><path d="M153.65548,37.31361v-3.90725h8.219v3.90725z"/><path d="M161.36244,34.45951v-8.219h1.99219v8.219z"/><path d="M161.81773,39.38618c0,0 -3.8096,-1.68042 -3.8096,-2.40698c0,-0.90416 1.19631,-4.70488 1.19631,-4.70488c0,0 5.92332,-2.86949 7.25653,-2.50182c1.1919,0.3287 0.36638,4.60407 0.36638,4.60407c0,0 -1.7699,0.1295 -3.37292,1.89467c-1.2151,1.33801 -1.6367,3.11495 -1.6367,3.11495z"/></g></g></g></svg>