<svg version="1.1" xmlns="http://www.w3.org/2000/svg" xmlns:xlink="http://www.w3.org/1999/xlink" width="77.19112" height="15.19112" viewBox="0,0,77.19112,15.19112"><g transform="translate(-195.27944,-172.40444)"><g data-paper-data="{&quot;isPaintingLayer&quot;:true}" fill-rule="nonzero" stroke-linecap="butt" stroke-linejoin="miter" stroke-miterlimit="10" stroke-dasharray="" stroke-dashoffset="0" style="mix-blend-mode: normal"><path d="M196.27944,180c0,-3.64263 16.8321,-6.59556 37.59556,-6.59556c20.76346,0 37.59556,2.95293 37.59556,6.59556c0,3.64263 -16.8321,6.59556 -37.59556,6.59556c-20.76346,0 -37.59556,-2.95293 -37.59556,-6.59556z" fill="#106900" stroke="#000000" stroke-width="2"/><path d="M196.27953,180c0,-3.64263 16.8321,-6.59555 37.5955,-6.59555c20.76346,0 37.5955,2.95293 37.5955,6.59555c0,3.64263 -16.8321,6.59555 -37.5955,6.59555c-20.76346,0 -37.5955,-2.95293 -37.5955,-6.59555z" fill="#ae8741" stroke="#000000" stroke-width="0"/><path d="M212.03252,178.06404l21.8425,-3.83193l21.8425,3.83193z" fill="#ffffff" stroke="none" stroke-width="0"/><path d="M230.09134,185.4093v-7.81318h7.56744v7.81318z" fill="#ffffff" stroke="none" stroke-width="0"/></g></g></svg>