<svg version="1.1" xmlns="http://www.w3.org/2000/svg" xmlns:xlink="http://www.w3.org/1999/xlink" width="349.80988" height="349.8099" viewBox="0,0,349.80988,349.8099"><g transform="translate(-65.09506,-5.09505)"><g data-paper-data="{&quot;isPaintingLayer&quot;:true}" fill-rule="nonzero" stroke="none" stroke-width="0" stroke-linecap="butt" stroke-linejoin="miter" stroke-miterlimit="10" stroke-dasharray="" stroke-dashoffset="0" style="mix-blend-mode: normal"><path d="M136.73467,324.08762l-40.82229,-40.82229l247.35295,-247.35295l40.82229,40.82229z" fill="#000000"/><path d="M384.08762,283.26533l-40.82229,40.82229l-247.35295,-247.35295l40.82229,-40.82229z" fill="#000000"/><path d="M268.86572,354.90495l-57.73144,0v-349.8099l57.73144,0z" fill="#000000"/><path d="M65.09506,208.86573v-57.73146h349.80988v57.73146z" fill="#000000"/><path d="M126.46145,180c0,-62.7056 50.83295,-113.53855 113.53855,-113.53855c62.7056,0 113.53855,50.83295 113.53855,113.53855c0,62.7056 -50.83295,113.53855 -113.53855,113.53855c-62.7056,0 -113.53855,-50.83295 -113.53855,-113.53855z" fill="#000000"/><path d="M261.59582,345.49686h-43.19164l0,-330.99372l43.19164,0z" fill="#808080"/><path d="M135.00937,180c0,-57.98472 47.00591,-104.99063 104.99063,-104.99063c57.98472,0 104.99063,47.00591 104.99063,104.99063c0,57.98472 -47.00591,104.99063 -104.99063,104.99063c-57.98472,0 -104.99063,-47.00591 -104.99063,-104.99063z" fill="#808080"/><path d="M74.50314,201.59583v-43.19167h330.99372v43.19167z" fill="#808080"/><path d="M138.2466,312.2945l-30.5411,-30.5411l234.0479,-234.0479l30.5411,30.5411z" fill="#808080"/><path d="M372.2945,281.7534l-30.5411,30.5411l-234.0479,-234.0479l30.5411,-30.5411z" fill="#808080"/><path d="M156.82394,180c0,-45.93688 37.23919,-83.17606 83.17606,-83.17606c45.93688,0 83.17606,37.23919 83.17606,83.17606c0,45.93688 -37.23919,83.17606 -83.17606,83.17606c-45.93688,0 -83.17606,-37.23919 -83.17606,-83.17606z" fill="#000000"/><path d="M167.0873,180c0,-40.26857 32.64414,-72.9127 72.9127,-72.9127c40.26857,0 72.9127,32.64414 72.9127,72.9127c0,40.26857 -32.64414,72.9127 -72.9127,72.9127c-40.26857,0 -72.9127,-32.64414 -72.9127,-72.9127z" fill="#ff0000"/></g></g></svg>