<svg version="1.1" xmlns="http://www.w3.org/2000/svg" xmlns:xlink="http://www.w3.org/1999/xlink" width="247.58645" height="41.37246" viewBox="0,0,247.58645,41.37246"><defs><linearGradient x1="329.47798" y1="142.44044" x2="484.11332" y2="142.44044" gradientUnits="userSpaceOnUse" id="color-1"><stop offset="0" stop-color="#ff0000"/><stop offset="1" stop-color="#550000"/></linearGradient><linearGradient x1="466.87786" y1="142.41103" x2="569.70955" y2="142.41103" gradientUnits="userSpaceOnUse" id="color-2"><stop offset="0" stop-color="#660000"/><stop offset="1" stop-color="#250000"/></linearGradient></defs><g transform="translate(-322.1231,-121.75421)"><g data-paper-data="{&quot;isPaintingLayer&quot;:true}" fill-rule="nonzero" stroke-linecap="butt" stroke-linejoin="miter" stroke-miterlimit="10" stroke-dasharray="" stroke-dashoffset="0" style="mix-blend-mode: normal"><path d="M356.97126,163.12667l-34.84816,-41.37246h162.8886c-0.04709,0.62692 -0.07106,1.26028 -0.07106,1.89925c0,0.00492 0,0.00985 0,0.01477c-1.65266,1.4719 -1.69861,4.08914 -2.44824,6.17141c-0.33204,0.92233 -1.22361,1.5999 -1.46491,2.55002c-0.9822,3.86741 1.65069,9.85685 1.81442,13.35508c0.24077,5.14428 -3.22165,11.39691 -1.81442,16.60368c0.07283,0.26947 0.17155,0.52781 0.28887,0.77825z" fill="#000000" stroke="#000000" stroke-width="0"/><path d="" fill="#000000" stroke="#000000" stroke-width="0"/><path d="M361.79833,160.18846l-32.32035,-35.49604h154.63534c-0.87301,1.4885 -1.0235,3.48775 -1.62091,5.14722c-0.33204,0.92233 -1.22361,1.5999 -1.46491,2.55002c-0.9822,3.86741 1.65069,9.85685 1.81442,13.35508c0.20827,4.45001 -2.35453,9.7294 -2.13916,14.44372z" fill="url(#color-1)" stroke="#000000" stroke-width="0"/><path d="" fill="#ffffff" stroke="#000000" stroke-width="0"/><text transform="translate(363.58874,151.31445) scale(0.76914,0.76914)" font-size="40" xml:space="preserve" fill="#ffffff" fill-rule="nonzero" stroke="none" stroke-width="1" stroke-linecap="butt" stroke-linejoin="miter" stroke-miterlimit="10" stroke-dasharray="" stroke-dashoffset="0" font-family="&quot;New Title Cards&quot;, Sans Serif" font-weight="normal" text-anchor="start" style="mix-blend-mode: normal"><tspan x="0" dy="0">Pause</tspan></text><path d="M468.14667,163.12667v-41.37246h101.56288v41.37246z" fill="#000000" stroke="none" stroke-width="0"/><path d="M466.87786,160.13226v-35.44246h102.83169v35.44246z" fill="url(#color-2)" stroke="none" stroke-width="0"/></g></g></svg>