<svg version="1.1" xmlns="http://www.w3.org/2000/svg" xmlns:xlink="http://www.w3.org/1999/xlink" width="817.48541" height="593.6892" viewBox="0,0,817.48541,593.6892"><g transform="translate(67.2427,116.8446)"><g stroke-miterlimit="10"><path d="M253.76206,345.09672c0,-56.71431 0,-267.68097 0,-328.15949c0,-6.99947 10.00038,-10.56899 13.46206,-7.10732c30.11719,30.11719 151.39264,150.52701 157.32916,157.4013c4.09058,4.73675 8.59538,12.60771 -1.16214,22.36523c-31.04336,31.04335 -159.9387,159.93869 -159.98966,159.98966c-3.78218,3.78219 -9.63942,1.82412 -9.63942,-4.48938z" fill="#4cff00" stroke="#000000" stroke-width="9"/><path d="M253.76206,345.09672c0,-56.71431 0,-267.68097 0,-328.15949c0,-6.99947 10.00038,-10.56899 13.46206,-7.10732c30.11719,30.11719 151.39264,150.52701 157.32916,157.4013c4.09058,4.73675 8.59538,12.60771 -1.16214,22.36523c-31.04336,31.04335 -159.9387,159.93869 -159.98966,159.98966c-3.78218,3.78219 -9.63942,1.82412 -9.63942,-4.48938z" fill="#4dff00" stroke="none" stroke-width="0"/><path d="M262.1332,329.34473c0,-51.30316 0,-242.14135 0,-296.84957c0,-6.33165 9.04624,-9.5606 12.17764,-6.42921c27.24369,27.24369 136.94816,136.16513 142.31828,142.38353c3.70029,4.28481 7.77529,11.4048 -1.05126,20.23135c-28.08149,28.08148 -144.67884,144.67883 -144.72494,144.72494c-3.42132,3.42133 -8.71972,1.65008 -8.71972,-4.06105z" fill="#257b00" stroke="none" stroke-width="0"/><path d="M402.88643,190.84231c0,-1.92409 0,-19.63106 0,-21.55104c0,-0.45967 0.65674,-0.69409 0.88409,-0.46676c1.97786,1.97787 9.94233,9.88548 10.3322,10.33693c0.26864,0.31108 0.56448,0.82798 -0.07632,1.46878c-2.03869,2.03869 -10.50356,10.50357 -10.50691,10.50691c-0.24838,0.24838 -0.63305,0.1198 -0.63305,-0.29483z" fill="#4dff00" stroke="none" stroke-width="0"/><g fill="#4dff00" stroke="none" stroke-width="0"><path d="M268.28797,291.40605c0,-1.10183 1.04511,-2.45561 1.80318,-2.45561c0.78702,0 2.56033,0 3.82931,0c0.81772,0 1.42602,0.89847 1.42602,1.72283c0,2.09616 0,11.13931 0,11.13931h-7.0585c0,0 0,-8.13829 0,-10.40655z"/><path d="M275.34647,301.81257v7.0585c0,0 -4.8599,0 -6.03382,0c-0.48376,0 -1.02468,-0.4902 -1.02468,-0.94068c0,-1.14881 0,-6.11782 0,-6.11782z"/><path d="M288.20599,303.6183c0,0.78702 0,2.56033 0,3.82931c0,0.81773 -0.89848,1.42602 -1.72283,1.42602c-2.09616,0 -11.13931,0 -11.13931,0v-7.0585c0,0 8.13829,0 10.40654,0c1.10183,0 2.45561,1.04509 2.45561,1.80317z"/><path d="M275.34647,299.36147v3.35556h-7.0585v-3.35556z"/><path d="M276.61762,301.81257v7.0585h-1.7109v-7.0585z"/><path d="M275.29773,297.58153c0,0 0.36207,1.52604 1.4056,2.67513c1.37668,1.51593 2.89667,1.62715 2.89667,1.62715c0,0 0.70896,3.6717 -0.31465,3.95399c-1.14496,0.31576 -6.23192,-2.14857 -6.23192,-2.14857c0,0 -1.02739,-3.26407 -1.02739,-4.04056c0,-0.62397 3.27169,-2.06712 3.27169,-2.06712z"/></g><g fill="#4dff00" stroke="none" stroke-width="0"><path d="M269.20232,64.43423c0,-2.26825 0,-10.40655 0,-10.40655h7.0585c0,0 0,9.04315 0,11.13931c0,0.82436 -0.6083,1.72283 -1.42602,1.72283c-1.26897,0 -3.04229,0 -3.82931,0c-0.75806,0 -1.80318,-1.35377 -1.80318,-2.45561z"/><path d="M269.20232,54.0277c0,0 0,-4.969 0,-6.11782c0,-0.45048 0.54092,-0.94068 1.02468,-0.94068c1.17391,0 6.03382,0 6.03382,0v7.0585z"/><path d="M286.66473,54.02514c-2.26825,0 -10.40654,0 -10.40654,0v-7.0585c0,0 9.04315,0 11.13931,0c0.82436,0 1.72283,0.6083 1.72283,1.42602c0,1.26897 0,3.04229 0,3.82931c0,0.75807 -1.35377,1.80317 -2.45561,1.80317z"/><path d="M269.20232,56.4788v-3.35556h7.0585v3.35556z"/><path d="M275.82107,54.0277v-7.0585h1.7109v7.0585z"/><path d="M276.21208,58.25873c0,0 -3.27169,-1.44315 -3.27169,-2.06712c0,-0.77649 1.02739,-4.04056 1.02739,-4.04056c0,0 5.08696,-2.46432 6.23192,-2.14857c1.02361,0.28229 0.31465,3.95399 0.31465,3.95399c0,0 -1.51999,0.11121 -2.89667,1.62715c-1.04353,1.14909 -1.4056,2.67513 -1.4056,2.67513z"/></g><path d="M289.92823,277.04274c0,-33.33629 0,-157.34107 0,-192.88994c0,-4.11424 5.87816,-6.21238 7.91291,-4.17763c17.70268,17.70268 88.98757,88.47876 92.47702,92.51942c2.40442,2.78423 5.05231,7.41073 -0.6831,13.14613c-18.24708,18.24707 -94.01089,94.01088 -94.04084,94.04084c-2.22314,2.22315 -5.66599,1.07221 -5.66599,-2.63883z" fill="#4dff00" stroke="none" stroke-width="0"/><path d="M-67.2427,476.8446v-593.6892h817.48541v593.6892z" fill="none" stroke="none" stroke-width="0"/></g></g></svg>