<svg version="1.1" xmlns="http://www.w3.org/2000/svg" xmlns:xlink="http://www.w3.org/1999/xlink" width="69.55802" height="69.55802" viewBox="0,0,69.55802,69.55802"><g transform="translate(-205.22099,-145.22099)"><g data-paper-data="{&quot;isPaintingLayer&quot;:true}" fill-rule="nonzero" stroke="none" stroke-width="0" stroke-linecap="butt" stroke-linejoin="miter" stroke-miterlimit="10" stroke-dasharray="" stroke-dashoffset="0" style="mix-blend-mode: normal"><path d="M215.40752,204.59248v-49.18496h49.18496v49.18496z" fill="#676767"/><path d="M240,214.77901l-34.77901,-34.77901l34.77901,-34.77901l34.77901,34.77901z" fill="#676767"/><path d="M227.13648,212.31268l-19.44916,-45.17621l45.17621,-19.44916l19.44916,45.17621z" fill="#676767"/><path d="M253.75263,211.94441l-45.69704,-18.19178l18.19178,-45.69704l45.69704,18.19178z" fill="#676767"/><path d="M217.35836,202.64164v-45.28328h45.28328v45.28328z" fill="#000000"/><path d="M240,212.02011l-32.02011,-32.02011l32.02011,-32.02011l32.02011,32.02011z" fill="#000000"/><path d="M228.15689,209.74943l-17.90632,-41.59253l41.59253,-17.90632l17.90632,41.59253z" fill="#000000"/><path d="M252.66168,209.41036l-42.07204,-16.74868l16.74868,-42.07204l42.07204,16.74868z" fill="#000000"/></g></g></svg>