<svg version="1.1" xmlns="http://www.w3.org/2000/svg" xmlns:xlink="http://www.w3.org/1999/xlink" width="52.50473" height="52.50473" viewBox="0,0,52.50473,52.50473"><g transform="translate(-213.74763,-153.74763)"><g data-paper-data="{&quot;isPaintingLayer&quot;:true}" fill-rule="nonzero" stroke="none" stroke-width="none" stroke-linecap="butt" stroke-linejoin="miter" stroke-miterlimit="10" stroke-dasharray="" stroke-dashoffset="0" style="mix-blend-mode: normal"><path d="M213.74763,202.79796c0,-9.57222 0,-36.17509 0,-42.90479c0,-3.00348 3.20985,-6.14554 6.26121,-6.14554c6.62601,0 32.18734,0 42.19388,0c2.51683,0 4.04964,1.99679 4.04964,4.12551c0,5.87149 0,33.67079 0,44.26511c0,2.55893 -1.87376,4.11411 -3.89971,4.11411c-5.75165,0 -33.68399,0 -44.40425,0c-2.61084,0 -4.20078,-1.29307 -4.20078,-3.45441z" fill="#000000"/><path d="M215.05534,201.66232c0,-9.09539 0,-34.37309 0,-40.76757c0,-2.85386 3.04996,-5.83941 5.94932,-5.83941c6.29594,0 30.58399,0 40.09207,0c2.39146,0 3.84792,1.89733 3.84792,3.92c0,5.57902 0,31.99354 0,42.06013c0,2.43146 -1.78042,3.90918 -3.70545,3.90918c-5.46514,0 -32.00609,0 -42.19234,0c-2.48079,0 -3.99152,-1.22866 -3.99152,-3.28233z" fill="#ffffff"/><path d="M216.87557,200.08162c0,-8.4317 0,-31.86488 0,-37.79275c0,-2.64562 2.82741,-5.4133 5.5152,-5.4133c5.83653,0 28.35227,0 37.16654,0c2.21695,0 3.56713,1.75888 3.56713,3.63396c0,5.17191 0,29.65896 0,38.99099c0,2.25404 -1.6505,3.62392 -3.43506,3.62392c-5.06634,0 -29.6706,0 -39.11355,0c-2.29976,0 -3.70026,-1.139 -3.70026,-3.04282z" fill="#000000"/><path d="M217.60111,199.45155c0,-8.16715 0,-30.8651 0,-36.60698c0,-2.56261 2.73869,-5.24346 5.34215,-5.24346c5.6534,0 27.4627,0 36.00042,0c2.1474,0 3.45521,1.70369 3.45521,3.51994c0,5.00964 0,28.72839 0,37.76763c0,2.18331 -1.59871,3.51022 -3.32729,3.51022c-4.90739,0 -28.73967,0 -37.88634,0c-2.22761,0 -3.58416,-1.10327 -3.58416,-2.94735z" fill="#ffffff"/></g></g></svg>