<svg version="1.1" xmlns="http://www.w3.org/2000/svg" xmlns:xlink="http://www.w3.org/1999/xlink" width="37.12792" height="45.42002" viewBox="0,0,37.12792,45.42002"><g transform="translate(-221.15021,-142.64894)"><g data-paper-data="{&quot;isPaintingLayer&quot;:true}" fill-rule="nonzero" stroke="none" stroke-linecap="butt" stroke-linejoin="miter" stroke-miterlimit="10" stroke-dasharray="" stroke-dashoffset="0" style="mix-blend-mode: normal"><path d="M244.42035,165.26055v22.80842h-8.65808v-22.80842z" data-paper-data="{&quot;index&quot;:null}" fill="#000000" stroke-width="0"/><path d="M244.08152,165.53589v22.25775h-7.95504v-22.25775z" data-paper-data="{&quot;index&quot;:null}" fill="#ffffff" stroke-width="0"/><path d="M243.41141,166.05604v21.89378h-6.62688v-21.89378z" data-paper-data="{&quot;index&quot;:null}" fill="#a0a0a0" stroke-width="0"/><path d="M242.53555,166.78965v20.91844h-4.7537v-20.91844z" data-paper-data="{&quot;index&quot;:null}" fill="#000000" stroke-width="0"/><path d="M242.29525,167.01362v21.02386h-4.1818v-21.02386z" data-paper-data="{&quot;index&quot;:null}" fill="#ffffff" stroke-width="0"/><path d="M221.15021,164.10826c0,-1.92809 1.56301,-3.4911 3.4911,-3.4911c1.92809,0 3.4911,1.56301 3.4911,3.4911c0,1.92809 -1.56301,3.49111 -3.4911,3.49111c-1.92809,0 -3.4911,-1.56302 -3.4911,-3.49111z" fill="#000000" stroke-width="0"/><path d="M251.29593,164.10826c0,-1.92809 1.56301,-3.4911 3.4911,-3.4911c1.92808,0 3.4911,1.56301 3.4911,3.4911c0,1.92809 -1.56301,3.49111 -3.4911,3.49111c-1.92809,0 -3.4911,-1.56302 -3.4911,-3.49111z" fill="#000000" stroke-width="0"/><path d="M224.76841,167.59937v-24.0876h30.08217v24.0876z" fill="#000000" stroke-width="0"/><path d="M224.66164,143.51176c1.92809,0 3.4911,1.56302 3.4911,3.49111c0,1.92809 -1.56301,3.4911 -3.4911,3.4911c-1.92809,0 -3.49111,-1.56301 -3.49111,-3.4911c0,-1.92809 1.56302,-3.49111 3.49111,-3.49111z" data-paper-data="{&quot;index&quot;:null}" fill="#000000" stroke-width="0"/><path d="M254.74381,143.51176c1.92809,0 3.49111,1.56302 3.49111,3.49111c0,1.92809 -1.56302,3.4911 -3.49111,3.4911c-1.92809,0 -3.49111,-1.56301 -3.49111,-3.4911c0,-1.92809 1.56302,-3.49111 3.49111,-3.49111z" data-paper-data="{&quot;index&quot;:null}" fill="#000000" stroke-width="0"/><path d="M258.23491,147.10266v16.90581h-37.06438v-16.90581z" data-paper-data="{&quot;index&quot;:null}" fill="#000000" stroke-width="0"/><path d="M221.77631,163.82968c0,-1.86528 1.5121,-3.37738 3.37738,-3.37738c1.86528,0 3.37739,1.5121 3.37739,3.37738c0,1.86528 -1.5121,3.37739 -3.37739,3.37739c-1.86528,0 -3.37738,-1.5121 -3.37738,-3.37739z" fill="#ffffff" stroke-width="0"/><path d="M250.94011,163.82968c0,-1.86528 1.5121,-3.37738 3.37739,-3.37738c1.86528,0 3.37739,1.5121 3.37739,3.37738c0,1.86528 -1.5121,3.37739 -3.37739,3.37739c-1.86528,0 -3.37739,-1.5121 -3.37739,-3.37739z" fill="#ffffff" stroke-width="0"/><path d="M225.27667,167.20707v-23.303h29.10231v23.303z" fill="#ffffff" stroke-width="0"/><path d="M225.17337,143.90407c1.86528,0 3.37739,1.5121 3.37739,3.37739c0,1.86528 -1.5121,3.37739 -3.37739,3.37739c-1.86528,0 -3.37739,-1.5121 -3.37739,-3.37739c0,-1.86528 1.5121,-3.37739 3.37739,-3.37739z" data-paper-data="{&quot;index&quot;:null}" fill="#ffffff" stroke-width="0"/><path d="M254.27568,143.90407c1.86528,0 3.37739,1.5121 3.37739,3.37739c0,1.86528 -1.5121,3.37739 -3.37739,3.37739c-1.86528,0 -3.37739,-1.5121 -3.37739,-3.37739c0,-1.86528 1.5121,-3.37739 3.37739,-3.37739z" data-paper-data="{&quot;index&quot;:null}" fill="#ffffff" stroke-width="0"/><path d="M257.65307,147.378v16.35514h-35.85708v-16.35514z" data-paper-data="{&quot;index&quot;:null}" fill="#ffffff" stroke-width="0"/><path d="M222.9076,163.30337c0,-1.74663 1.41592,-3.16255 3.16255,-3.16255c1.74663,0 3.16255,1.41592 3.16255,3.16255c0,1.74663 -1.41592,3.16256 -3.16255,3.16256c-1.74663,0 -3.16255,-1.41593 -3.16255,-3.16256z" fill="#a0a0a0" stroke-width="0"/><path d="M250.21635,163.30337c0,-1.74663 1.41592,-3.16255 3.16255,-3.16255c1.74663,0 3.16255,1.41592 3.16255,3.16255c0,1.74663 -1.41592,3.16256 -3.16255,3.16256c-1.74663,0 -3.16255,-1.41593 -3.16255,-3.16256z" fill="#a0a0a0" stroke-width="0"/><path d="M226.1853,166.46594v-21.82075h27.25117v21.82075z" fill="#a0a0a0" stroke-width="0"/><path d="M226.08858,144.64519c1.74663,0 3.16255,1.41592 3.16255,3.16256c0,1.74663 -1.41592,3.16255 -3.16255,3.16255c-1.74663,0 -3.16256,-1.41592 -3.16256,-3.16255c0,-1.74663 1.41593,-3.16256 3.16256,-3.16256z" data-paper-data="{&quot;index&quot;:null}" fill="#a0a0a0" stroke-width="0"/><path d="M253.33975,144.64519c1.74663,0 3.16256,1.41592 3.16256,3.16256c0,1.74663 -1.41592,3.16255 -3.16256,3.16255c-1.74663,0 -3.16256,-1.41592 -3.16256,-3.16255c0,-1.74663 1.41592,-3.16256 3.16256,-3.16256z" data-paper-data="{&quot;index&quot;:null}" fill="#a0a0a0" stroke-width="0"/><path d="M256.50231,147.89815v15.31483h-33.57629v-15.31483z" data-paper-data="{&quot;index&quot;:null}" fill="#a0a0a0" stroke-width="0"/><path d="M224.62202,162.56111c0,-1.5793 1.28027,-2.85957 2.85957,-2.85957c1.5793,0 2.85957,1.28027 2.85957,2.85957c0,1.5793 -1.28027,2.85958 -2.85957,2.85958c-1.5793,0 -2.85957,-1.28028 -2.85957,-2.85958z" fill="#000000" stroke-width="0"/><path d="M249.31449,162.56111c0,-1.5793 1.28027,-2.85957 2.85957,-2.85957c1.5793,0 2.85957,1.28027 2.85957,2.85957c0,1.5793 -1.28027,2.85958 -2.85957,2.85958c-1.5793,0 -2.85957,-1.28028 -2.85957,-2.85958z" fill="#000000" stroke-width="0"/><path d="M227.5857,165.42069v-19.73024h24.64042v19.73024z" fill="#000000" stroke-width="0"/><path d="M227.49825,145.69045c1.5793,0 2.85957,1.28028 2.85957,2.85958c0,1.5793 -1.28027,2.85957 -2.85957,2.85957c-1.5793,0 -2.85958,-1.28027 -2.85958,-2.85957c0,-1.5793 1.28028,-2.85958 2.85958,-2.85958z" data-paper-data="{&quot;index&quot;:null}" fill="#000000" stroke-width="0"/><path d="M252.13866,145.69045c1.5793,0 2.85958,1.28028 2.85958,2.85958c0,1.5793 -1.28028,2.85957 -2.85958,2.85957c-1.5793,0 -2.85957,-1.28027 -2.85957,-2.85957c0,-1.5793 1.28027,-2.85958 2.85957,-2.85958z" data-paper-data="{&quot;index&quot;:null}" fill="#000000" stroke-width="0"/><path d="M254.99823,148.63176v13.84761h-30.35956v-13.84761z" data-paper-data="{&quot;index&quot;:null}" fill="#000000" stroke-width="0"/><path d="M225.19199,162.33449c0,-1.52821 1.23886,-2.76707 2.76707,-2.76707c1.52821,0 2.76707,1.23886 2.76707,2.76707c0,1.52821 -1.23886,2.76707 -2.76707,2.76707c-1.52821,0 -2.76707,-1.23886 -2.76707,-2.76707z" fill="#ff0000" stroke-width="0"/><path d="M249.0857,162.33449c0,-1.52821 1.23886,-2.76707 2.76707,-2.76707c1.52821,0 2.76707,1.23886 2.76707,2.76707c0,1.52821 -1.23886,2.76707 -2.76707,2.76707c-1.52821,0 -2.76707,-1.23886 -2.76707,-2.76707z" fill="#ff0000" stroke-width="0"/><path d="M228.0598,165.10157v-19.092h23.84334v19.092z" fill="#ff0000" stroke-width="0"/><path d="M227.97518,146.00957c1.52821,0 2.76707,1.23887 2.76707,2.76708c0,1.52821 -1.23886,2.76707 -2.76707,2.76707c-1.52821,0 -2.76707,-1.23886 -2.76707,-2.76707c0,-1.52821 1.23886,-2.76708 2.76707,-2.76708z" data-paper-data="{&quot;index&quot;:null}" fill="#ff0000" stroke-width="0"/><path d="M251.81851,146.00957c1.52821,0 2.76708,1.23887 2.76708,2.76708c0,1.52821 -1.23887,2.76707 -2.76708,2.76707c-1.52821,0 -2.76707,-1.23886 -2.76707,-2.76707c0,-1.52821 1.23886,-2.76708 2.76707,-2.76708z" data-paper-data="{&quot;index&quot;:null}" fill="#ff0000" stroke-width="0"/><path d="M254.58558,148.85574v13.39966h-29.37748v-13.39966z" data-paper-data="{&quot;index&quot;:null}" fill="#ff0000" stroke-width="0"/><text transform="translate(235.89829,162.69894) scale(0.5,0.5)" font-size="40" xml:space="preserve" fill="#ecff00" fill-rule="nonzero" stroke="none" stroke-width="1" stroke-linecap="butt" stroke-linejoin="miter" stroke-miterlimit="10" stroke-dasharray="" stroke-dashoffset="0" font-family="&quot;Title Card-Numbers&quot;, Sans Serif" font-weight="normal" text-anchor="start" style="mix-blend-mode: normal"><tspan x="0" dy="0">?</tspan></text></g></g></svg>